<?xml version="1.0" standalone="no"?>
<!DOCTYPE svg PUBLIC "-//W3C//DTD SVG 1.1//EN" "http://www.w3.org/Graphics/SVG/1.1/DTD/svg11.dtd" >
<svg xmlns="http://www.w3.org/2000/svg" xmlns:xlink="http://www.w3.org/1999/xlink" version="1.1">
<metadata>
Created by FontForge 20170731 at Sat Feb  4 13:31:47 2017
 By Aleksey,,,
Copyright 2015 The Cormorant Project Authors (github.com/CatharsisFonts/Cormorant)
</metadata>
<defs>
<font id="Cormorant-Light" horiz-adv-x="620" >
  <font-face 
    font-family="Cormorant Light"
    font-weight="300"
    font-stretch="normal"
    units-per-em="1000"
    panose-1="0 0 4 0 0 0 0 0 0 0"
    ascent="800"
    descent="-200"
    x-height="386"
    cap-height="625"
    bbox="-348.8 -282.167 1451.8 922.533"
    underline-thickness="50"
    underline-position="-150"
    unicode-range="U+0020-A729"
  />
<missing-glyph horiz-adv-x="501" 
d="M94 -275v1000h317v-1000h-317zM168 626h65v-38h-66v-32h166v32h-66v38h66v32h-165v-32zM167 426h166v34h-66v69h-100v-103zM200 460v35h33v-35h-33zM167 365h66v-36h-66v-34h100v70h66v33h-166v-33zM301 273h-134v-34h166v99h-32v-65zM233 160h34v24h34v-48h-101v80h-33
v-113h166v113h-100v-56zM167 -70h166v113h-166v-113zM200 -37v48h101v-48h-101zM167 -126h70l-70 -47v-33h166v33h-101l69 47h32v34h-166v-34z" />
    <glyph glyph-name="Aogonek_acutecomb.liga" unicode="&#x104;&#x301;" horiz-adv-x="701" 
d="M0 0zM698 3.5q0 -5.5 -4 -5.5q-20 0 -52 2l-40 1q-35 0 -66 -17t-50 -47.5t-19 -68.5q0 -47 28.5 -81.5t86.5 -34.5q35 0 59 14h1q3 0 5.5 -3t0.5 -5q-45 -33 -104 -33q-58 0 -91.5 29t-33.5 80q0 43 20 72.5t58 66.5q27 25 40 42.5t13 37.5q0 15 -7 29l-121 257h-190
l-89 -216q-14 -34 -14 -56q0 -29 24 -42t75 -13q5 0 5 -6t-5 -6q-18 0 -52 2q-38 2 -66 2q-25 0 -59 -2q-30 -2 -49 -2q-5 0 -5 6t5 6q28 0 47.5 10t37 36t37.5 74l209 503q2 3 6.5 3t5.5 -3l232 -500q33 -74 58 -100t59 -26q4 0 4 -5.5zM240 358h173l-92 195zM241 678
q-4 0 -5 4.5t2 6.5q46 21 122 65l50 28q4 2 20.5 -4t29 -13.5t5.5 -8.5q-62 -15 -113.5 -33.5t-108.5 -43.5z" />
    <glyph glyph-name="Eogonek_acutecomb.liga" unicode="&#x118;&#x301;" horiz-adv-x="533" 
d="M42 0zM497 -222q3 0 5.5 -3t-0.5 -5q-51 -45 -107 -45q-54 0 -82.5 25.5t-28.5 70.5q0 88 112 179h-352q-2 0 -2 6t2 6q39 0 57.5 5t25 19.5t6.5 44.5v463q0 30 -6.5 44t-25 19.5t-57.5 5.5q-2 0 -2 6t2 6h396q9 0 9 -9l2 -121q0 -3 -5.5 -3t-5.5 3q0 51 -27 81t-71 30
h-69q-38 0 -56 -5t-24.5 -19t-6.5 -44v-203h132q46 0 64 15.5t18 53.5q0 2 6 2t6 -2l-1 -79q0 -29 1 -43l1 -47q0 -2 -6 -2t-6 2q0 45 -19 63t-67 18h-129v-231q0 -29 6.5 -42.5t24 -18.5t56.5 -5h92q40 0 68.5 35t36.5 92q0 3 6 2.5t6 -3.5q-9 -63 -9 -130q0 -8 -3.5 -11.5
t-12.5 -3.5h-44q-43 -38 -62 -73.5t-19 -76.5q0 -46 23.5 -72t68.5 -26q24 0 39.5 6.5t31.5 19.5h2zM168 678q-4 0 -5 4.5t2 6.5q46 21 122 65l50 28q4 2 20.5 -4t29 -13.5t5.5 -8.5q-62 -15 -113.5 -33.5t-108.5 -43.5z" />
    <glyph glyph-name="IJ_acutecomb.liga" unicode="&#x132;&#x301;" horiz-adv-x="688" 
d="M41 0zM193.5 305q6.5 -14 24.5 -19t58 -5q3 0 3 -6t-3 -6q-30 0 -47 1l-70 1l-66 -1q-18 -1 -50 -1q-2 0 -2 6t2 6q39 0 57.5 5t25.5 19.5t7 44.5v194q0 30 -7 44t-25.5 19.5t-57.5 5.5q-2 0 -2 6t2 6l50 -1q40 -2 66 -2q29 0 71 2l46 1q3 0 3 -6t-3 -6q-39 0 -57.5 -6
t-25 -20.5t-6.5 -44.5v-192q0 -31 6.5 -45zM655 619q0 -6 -2 -6q-34 0 -50.5 -6t-22 -20.5t-5.5 -44.5v-284q0 -86 -29.5 -147t-82 -92.5t-121.5 -31.5q-61 0 -111 23t-78.5 58t-28.5 68q0 15 7.5 23t19.5 8q20 0 27.5 -13t14.5 -42q8 -33 19 -55.5t40.5 -39t83.5 -16.5
q95 0 140.5 52.5t45.5 146.5v344q0 30 -7.5 44t-29 19.5t-65.5 5.5q-3 0 -3 6t3 6l57 -1q44 -2 70 -2q24 0 64 2l42 1q2 0 2 -6zM442 678q-4 0 -5 4.5t2 6.5q46 21 122 65l50 28q4 2 20.5 -4t29 -13.5t5.5 -8.5q-62 -15 -113.5 -33.5t-108.5 -43.5zM68 678q-4 0 -5 4.5
t2 6.5q46 21 122 65l50 28q4 2 20.5 -4t29 -13.5t5.5 -8.5q-62 -15 -113.5 -33.5t-108.5 -43.5z" />
    <glyph glyph-name="Iogonek_acutecomb.liga" unicode="&#x12e;&#x301;" horiz-adv-x="330" 
d="M45 0zM283 6q0 -6 -2 -6q-28 0 -44 1l-62 1q-57 -70 -57 -152q0 -46 21.5 -72t61.5 -26q18 0 29 5.5t18.5 12t10.5 8.5h1q3 0 5.5 -3t0.5 -5q-25 -24 -47 -34.5t-47 -10.5q-48 0 -75 26t-27 70t22.5 90t66.5 91l-64 -1q-17 -1 -47 -1q-3 0 -3 6t3 6q39 0 57.5 5
t25.5 19.5t7 44.5v463q0 30 -7 44t-25.5 19.5t-57.5 5.5q-3 0 -3 6t3 6l49 -1q42 -2 67 -2q28 0 70 2l47 1q2 0 2 -6t-2 -6q-39 0 -57.5 -6t-25 -20.5t-6.5 -44.5v-461q0 -31 6.5 -45t24.5 -19t58 -5q2 0 2 -6zM66 678q-4 0 -5 4.5t2 6.5q46 21 122 65l50 28q4 2 20.5 -4
t29 -13.5t5.5 -8.5q-62 -15 -113.5 -33.5t-108.5 -43.5z" />
    <glyph glyph-name="J_acutecomb.liga" unicode="J&#x301;" horiz-adv-x="316" 
d="M49 0zM183 -55q-12 -46 -40 -74.5t-80 -51.5l-1 -1q-2 0 -4.5 5t-0.5 6q47 25 66 76.5t19 134.5v504q0 30 -7 44t-26 19.5t-58 5.5q-2 0 -2 6t2 6l52 -1q40 -2 64 -2q25 0 63 2l43 1q2 0 2 -6t-2 -6q-34 0 -50.5 -6t-22 -20.5t-5.5 -44.5v-475q0 -76 -12 -122zM63 678
q-4 0 -5.5 4.5t1.5 6.5q40 18 114 60l58 32q4 2 20.5 -3.5t29 -13t5.5 -8.5q-118 -30 -222 -78h-1z" />
    <glyph glyph-name="uni01EA0301.liga" unicode="&#x1ea;&#x301;" horiz-adv-x="766" 
d="M49 0zM381 -76q-18 -35 -18 -74q0 -46 23.5 -72t68.5 -26q24 0 39.5 6.5t31.5 19.5h2q3 0 5.5 -3t-0.5 -5q-51 -45 -107 -45q-54 0 -82.5 25.5t-28.5 70.5q0 84 101 170q-24 -3 -50 -3q-93 0 -165.5 43.5t-112 118t-39.5 162.5q0 103 52 176.5t133.5 110.5t166.5 37
q95 0 167 -44.5t110.5 -117.5t38.5 -155q0 -79 -36.5 -147.5t-100.5 -115t-142 -61.5q-39 -36 -57 -71zM149.5 175.5q36.5 -77.5 102.5 -122.5t150 -45q71 0 128 33t90 97t33 153q0 94 -36.5 167.5t-103 114.5t-154.5 41q-116 0 -181 -72t-65 -196q0 -93 36.5 -170.5z
M285 678q-4 0 -5 4.5t2 6.5q46 21 122 65l50 28q4 2 20.5 -4t29 -13.5t5.5 -8.5q-62 -15 -113.5 -33.5t-108.5 -43.5z" />
    <glyph glyph-name="aogonek_acutecomb.liga" unicode="&#x105;&#x301;" horiz-adv-x="419" 
d="M57 0zM414 54q4 0 5 -4.5t-3 -6.5l-103 -49q-1 -1 -2.5 -1t-2.5 -1q-38 -35 -55 -69t-17 -73q0 -46 23.5 -72t68.5 -26q24 0 39.5 6.5t31.5 19.5h2q3 0 5.5 -3t-0.5 -5q-51 -45 -107 -45q-54 0 -82.5 25.5t-28.5 70.5q0 86 107 175q-17 13 -22 63l-66 -36
q-33 -17 -51 -23.5t-36 -6.5q-31 0 -47 16.5t-16 40.5q0 25 20 41.5t70 34.5l126 45v84q0 68 -18.5 94t-49.5 26q-36 0 -56 -26t-25 -58q-2 -14 -8.5 -23.5t-23.5 -9.5q-14 0 -22 7t-8 20q0 22 28.5 48t69.5 44t75 18q38 0 61 -27.5t23 -82.5v-177q0 -37 8.5 -53t29.5 -16
q19 0 55 15h2zM273 71v3v86l-116 -44q-22 -8 -31 -19t-9 -28q0 -21 12 -32.5t32 -11.5q18 0 38 9zM202 472q-3 0 -5.5 1.5t-1.5 2.5l57 240q1 4 14.5 8.5t26 6t10.5 -3.5l-97 -253q0 -2 -4 -2z" />
    <glyph glyph-name="eogonek_acutecomb.liga" unicode="&#x119;&#x301;" horiz-adv-x="405" 
d="M37 0zM368 -222q3 0 5.5 -3t-0.5 -5q-25 -24 -47.5 -34.5t-48.5 -10.5q-48 0 -73.5 26t-25.5 70q0 87 109 178q-30 -11 -66 -11q-58 0 -100 27t-63 70.5t-21 94.5q0 60 28 109t76.5 77.5t107.5 28.5q52 0 81 -26.5t29 -72.5q0 -12 -2.5 -17t-9.5 -5l-248 -1
q-5 -28 -5 -55q0 -88 42.5 -143t116.5 -55q59 0 104 34h1q3 0 5.5 -3.5t0.5 -6.5q-12 -11 -34 -25q-55 -43 -79.5 -83.5t-24.5 -85.5q0 -46 20.5 -72t59.5 -26q20 0 32.5 6.5t27.5 19.5h2zM142.5 351.5q-28.5 -23.5 -40.5 -67.5l197 5q0 41 -23 63.5t-61 22.5
q-44 0 -72.5 -23.5zM196 472q-3 0 -5.5 1.5t-1.5 2.5l57 240q1 4 14.5 8.5t26 6t10.5 -3.5l-97 -253q0 -2 -4 -2z" />
    <glyph glyph-name="ij_acutecomb.liga" unicode="&#x133;&#x301;" horiz-adv-x="524" 
d="M33 0zM55 6q0 6 2 6q29 0 42.5 5t18.5 19.5t5 44.5v189q0 37 -7.5 53t-25.5 16q-19 0 -48 -15h-1q-4 0 -6 5t2 7l124 58l4 1q2 0 4.5 -2t2.5 -5q0 -6 -1 -39.5t-1 -77.5v-190q0 -30 4.5 -44.5t18 -19.5t42.5 -5q3 0 3 -6t-3 -6q-23 0 -36 1l-53 1l-52 -1q-14 -1 -37 -1
q-2 0 -2 6zM132 472q-3 0 -5.5 1.5t-1.5 2.5l57 240q1 4 14.5 8.5t26 6t10.5 -3.5l-97 -253q0 -2 -4 -2zM429 348.5q-1 -33.5 -1 -77.5v-319q0 -68 -12 -111.5t-40.5 -72.5t-78.5 -50q-2 -1 -4.5 4.5t-0.5 6.5q49 21 69 67t20 133v341q0 37 -7 53t-25 16q-19 0 -48 -15h-1
q-5 0 -6.5 5t2.5 7l124 58l3 1q7 0 7 -7q0 -6 -1 -39.5zM390 472q-3 0 -5.5 1.5t-1.5 2.5l57 240q1 4 14.5 8.5t26 6t10.5 -3.5l-97 -253q0 -2 -4 -2z" />
    <glyph glyph-name="iogonek_acutecomb.liga" unicode="&#x12f;&#x301;" horiz-adv-x="275" 
d="M132 472q-3 0 -5.5 1.5t-1.5 2.5l57 240q1 4 14.5 8.5t26 6t10.5 -3.5l-97 -253q0 -2 -4 -2zM239 -214q3 0 5.5 -3t0.5 -5q-25 -24 -47 -34.5t-47 -10.5q-48 0 -75 26t-27 70q0 42 20.5 86t60.5 87q-56 -2 -73 -2q-2 0 -2 6t2 6q29 0 42.5 5t18.5 19.5t5 44.5v189
q0 37 -7.5 53t-25.5 16q-19 0 -48 -15h-1q-4 0 -6 5t2 7l124 58l4 1q2 0 4.5 -2t2.5 -5q0 -6 -1 -39.5t-1 -77.5v-190q0 -30 4.5 -44.5t18 -19.5t42.5 -5q3 0 3 -6t-3 -6q-23 0 -36 1l-51 1q-51 -67 -51 -144q0 -46 21.5 -72t61.5 -26q18 0 29 5.5t18.5 12t10.5 8.5h1z" />
    <glyph glyph-name="j_acutecomb.liga" unicode="j&#x301;" horiz-adv-x="255" 
d="M21 0zM160 348.5q-1 -33.5 -1 -77.5v-319q0 -68 -12 -111.5t-40.5 -72.5t-78.5 -50q-2 -1 -4.5 4.5t-0.5 6.5q49 21 69 67t20 133v341q0 37 -7 53t-25 16q-19 0 -48 -15h-1q-5 0 -6.5 5t2.5 7l124 58l3 1q7 0 7 -7q0 -6 -1 -39.5zM121 472q-3 0 -5.5 1.5t-1.5 2.5l57 240
q1 4 14.5 8.5t26 6t10.5 -3.5l-97 -253q0 -2 -4 -2z" />
    <glyph glyph-name="uni01EB0301.liga" unicode="&#x1eb;&#x301;" horiz-adv-x="477" 
d="M37 0zM392 57q-48 -54 -122 -67q-34 -34 -49.5 -68t-15.5 -72q0 -46 22 -72t64 -26q23 0 38.5 6.5t33.5 19.5h1q3 0 5.5 -3t0.5 -5q-52 -45 -108 -45q-51 0 -78 26t-27 70q0 82 93 167q-6 -1 -20 -1q-57 0 -101 28.5t-68 77t-24 105.5q0 65 31.5 110.5t80 68t99.5 22.5
q58 0 101.5 -29t67 -76.5t23.5 -100.5q0 -82 -48 -136zM115 116.5q21 -50.5 58 -81t85 -30.5q58 0 91 39t33 123q0 60 -21 108.5t-59 76.5t-87 28q-57 0 -89 -39.5t-32 -113.5q0 -60 21 -110.5zM233 472q-3 0 -5.5 1.5t-1.5 2.5l57 240q1 4 14.5 8.5t26 6t10.5 -3.5
l-97 -253q0 -2 -4 -2z" />
    <glyph glyph-name="T_T.liga" unicode="TT" horiz-adv-x="1146" 
d="M1106 654q5 0 5 -4q-3 -26 -6 -84.5t-3 -94.5q0 -2 -6 -2t-6 2q0 53 -11 82.5t-37.5 42.5t-73.5 13q-52 0 -72.5 -3.5t-28 -17t-7.5 -46.5v-461q0 -31 7 -45t27.5 -19t65.5 -5q3 0 3 -6t-3 -6q-33 0 -52 1l-76 1l-74 -1q-20 -1 -54 -1q-2 0 -2 6t2 6q44 0 65 5t29 19.5
t8 44.5v463q0 32 -7.5 45t-26.5 16.5t-66 3.5q-65 0 -86.5 -6.5t-27.5 -31t-8 -100.5q0 -2 -6 -2t-6 2l1 45q0 48 -9 66t-33 22.5t-89 4.5q-44 0 -63.5 -4.5t-26.5 -18t-7 -44.5v-461q0 -31 6.5 -45t24.5 -19t58 -5q2 0 2 -6t-2 -6q-30 0 -47 1l-70 1l-73 -1q-20 -1 -55 -1
q-2 0 -2 6t2 6q45 0 66 5t28.5 19.5t7.5 44.5v463q0 33 -8 46t-28.5 16t-74.5 3q-63 0 -92 -30t-39 -108q0 -2 -6 -2t-6 2q4 27 9 86.5t5 89.5q0 5 6 5t6 -5q0 -22 53 -22q86 -3 201 -3q56 0 118 2l63 1q42 0 55.5 1t17 6t4.5 19q0 4 6 4t6 -4q-1 -14 1.5 -18.5t12 -5.5
t41.5 -2q81 -3 190 -3q59 0 125 2l68 1q35 0 52 5t22 20q2 4 7 4z" />
    <glyph glyph-name="T_h.liga" unicode="Th" horiz-adv-x="1023" 
d="M1003 6q0 -6 -3 -6q-23 0 -36 1l-53 1l-52 -1q-14 -1 -37 -1q-2 0 -2 6t2 6q29 0 42.5 5t18.5 19.5t5 44.5v163q0 61 -23.5 90t-71.5 29q-32 0 -66 -18.5t-62 -51.5v-212q0 -30 5 -44.5t18.5 -19.5t42.5 -5q3 0 3 -6t-3 -6q-23 0 -36 1l-53 1l-52 -1q-14 -1 -37 -1
q-2 0 -2 6t2 6q29 0 42.5 5t18.5 19.5t5 44.5v517q0 11 -12 11h-153q-52 0 -73 -3.5t-28.5 -17t-7.5 -46.5v-461q0 -31 7 -45t28 -19t66 -5q2 0 2 -6t-2 -6q-33 0 -52 1l-77 1l-73 -1q-20 -1 -55 -1q-2 0 -2 6t2 6q45 0 66 5t28.5 19.5t7.5 44.5v463q0 33 -8 46t-28.5 16
t-74.5 3q-63 0 -92 -30t-39 -108q0 -2 -6 -2t-6 2q4 27 9 86.5t5 89.5q0 5 6 5t6 -5q0 -22 53 -22q57 -2 201 -2q141 0 193 2q126 3 144 100q1 3 6 2t5 -3v-415q40 46 77.5 66.5t77.5 20.5q55 0 85 -30.5t30 -90.5v-194q0 -30 4.5 -44.5t18 -19.5t42.5 -5q3 0 3 -6z" />
    <glyph glyph-name="f_b.liga" unicode="fb" horiz-adv-x="819" 
d="M701 378q36 -21 58 -62.5t22 -101.5q0 -72 -31.5 -123.5t-82.5 -77.5t-107 -26q-77 0 -137 41l-70 -32h-2q-4 0 -4.5 3.5t2.5 6.5q34 24 46.5 42t12.5 55l1 531q-48 77 -126 77q-38 0 -64 -18t-41 -58q-26 -62 -26 -196v-65q47 1 133 10q3 0 5 -6.5t2 -16.5q0 -8 -3 -16
t-7 -7q-55 13 -130 15v-272q0 -31 7 -45t27.5 -19t66.5 -5q2 0 2 -6t-2 -6l-64 1q-20 1 -62 1l-55 -1q-14 -1 -39 -1q-3 0 -3 6t3 6q31 0 45.5 5.5t20 19.5t5.5 44v225q0 27 -4.5 37.5t-19 14t-51.5 3.5q-3 0 -3 6t3 6q43 0 58 9.5t16 35.5q5 148 48 223q26 43 64.5 64
t93.5 21q39 0 72.5 -10t55.5 -27q10 18 10 38q0 3 5.5 3t5.5 -3l-1 -417q37 40 76.5 64.5t88.5 24.5q43 0 79 -21zM690 51.5q35 45.5 35 130.5q0 90 -37 139.5t-96 49.5q-36 0 -69 -20.5t-66 -56.5v-220q32 -36 65 -52t71 -16q62 0 97 45.5z" />
    <glyph glyph-name="f_f.liga" unicode="ff" horiz-adv-x="599" 
d="M696 710.5q33 -15.5 33 -35.5q0 -13 -9 -20.5t-22 -7.5q-10 0 -18 4.5t-18 17.5q-17 21 -36.5 31t-46.5 10q-61 0 -97 -67.5t-36 -203.5v-65q47 1 133 10q3 0 5 -6.5t2 -16.5q0 -8 -3 -16t-7 -7q-55 13 -130 15v-272q0 -31 7 -45t27.5 -19t66.5 -5q2 0 2 -6t-2 -6l-64 1
q-20 1 -62 1l-55 -1q-14 -1 -39 -1q-3 0 -3 6t3 6q31 0 45.5 5.5t20 19.5t5.5 44v225q0 17 -1 23q-2 12 -9 16.5t-27.5 6t-50.5 2.5q-35 2 -158 2v-275q0 -31 7 -45t27.5 -19t66.5 -5q2 0 2 -6t-2 -6l-64 1q-20 1 -62 1l-55 -1q-14 -1 -39 -1q-3 0 -3 6t3 6q31 0 45.5 5.5
t20 19.5t5.5 44v225q0 27 -4.5 37.5t-19 14t-51.5 3.5q-3 0 -3 6t3 6q43 0 58 9.5t16 35.5q6 132 67 202.5t165 70.5q70 0 128 -28q52 63 150 63q50 0 83 -15.5zM322 375q37 2 52.5 7t20.5 20q2 10 2 16q5 125 36 195q-27 29 -61 45.5t-71 16.5q-68 0 -108.5 -61t-40.5 -175
v-65q128 0 170 1z" />
    <glyph glyph-name="f_f_b.liga" unicode="ffb" horiz-adv-x="1112" 
d="M995 378q36 -21 58 -62.5t22 -101.5q0 -72 -31.5 -123.5t-82.5 -77.5t-107 -26q-77 0 -137 41l-70 -32h-2q-4 0 -4.5 3.5t2.5 6.5q34 24 46.5 42t12.5 55l1 531q-48 77 -126 77q-38 0 -64 -18t-41 -58q-26 -62 -26 -196v-65q47 1 133 10q3 0 5 -6.5t2 -16.5q0 -8 -3 -16
t-7 -7q-55 13 -130 15v-272q0 -31 7 -45t27.5 -19t66.5 -5q2 0 2 -6t-2 -6l-64 1q-20 1 -62 1l-55 -1q-14 -1 -39 -1q-3 0 -3 6t3 6q31 0 45.5 5.5t20 19.5t5.5 44v225q0 17 -1 23q-2 12 -9 16.5t-27.5 6t-50.5 2.5q-35 2 -158 2v-275q0 -31 7 -45t27.5 -19t66.5 -5
q2 0 2 -6t-2 -6l-64 1q-20 1 -62 1l-55 -1q-14 -1 -39 -1q-3 0 -3 6t3 6q31 0 45.5 5.5t20 19.5t5.5 44v225q0 27 -4.5 37.5t-19 14t-51.5 3.5q-3 0 -3 6t3 6q43 0 58 9.5t16 35.5q6 132 67 202.5t165 70.5q70 0 126 -27q49 62 142 62q39 0 72.5 -10t55.5 -27q10 18 10 38
q0 3 5.5 3t5.5 -3l-1 -417q37 40 76.5 64.5t88.5 24.5q43 0 79 -21zM322 375q37 2 52.5 7t20.5 20q2 10 2 16q5 126 35 197q-57 60 -131 60q-68 0 -108.5 -61t-40.5 -175v-65q128 0 170 1zM984 51.5q35 45.5 35 130.5q0 90 -37 139.5t-96 49.5q-36 0 -69 -20.5t-66 -56.5
v-220q32 -36 65 -52t71 -16q62 0 97 45.5z" />
    <glyph glyph-name="f_f_f.liga" unicode="fff" horiz-adv-x="894" 
d="M905 710.5q33 -15.5 33 -35.5q0 -13 -9 -20.5t-22 -7.5q-10 0 -18 4.5t-18 17.5q-17 21 -36.5 31t-46.5 10q-36 0 -62 -22q27 -15 45 -33l-27 -62q-22 37 -47 60q-42 -68 -42 -214v-61q20 4 27.5 13t8.5 27l21 -41q52 4 76 7q3 0 5 -6.5t2 -16.5q0 -8 -3 -16t-7 -7
q-38 10 -77 13l-16 -45q-1 21 -2.5 29t-9 12t-25.5 5v-271q0 -31 7 -45t27.5 -19t66.5 -5q2 0 2 -6t-2 -6l-64 1q-20 1 -62 1q-37 0 -83 -2h-1h-6h-4v0l-57 1q-19 1 -58 1l-54 -1q-15 -1 -41 -1q-2 0 -2 6t2 6q31 0 46 5t20.5 19.5t5.5 44.5v225q0 17 -1 23q-2 12 -9 16.5
t-27.5 6t-50.5 2.5q-35 2 -158 2v-275q0 -31 7 -45t27.5 -19t66.5 -5q2 0 2 -6t-2 -6l-64 1q-20 1 -62 1l-55 -1q-14 -1 -39 -1q-3 0 -3 6t3 6q31 0 45.5 5.5t20 19.5t5.5 44v225q0 27 -4.5 37.5t-19 14t-51.5 3.5q-3 0 -3 6t3 6q43 0 58 9.5t16 35.5q6 132 67 202.5
t165 70.5q43 0 79.5 -10t62.5 -26l-1 -2q59 62 152 62q43 0 82 -18q45 29 112 29q50 0 83 -15.5zM677 669q-40 27 -83 27q-68 0 -108 -66.5t-40 -190.5v-65h114q26 3 35.5 12.5t10.5 31.5q6 177 71 251zM322 375q31 1 46.5 4.5t22.5 13.5q5 12 5 25q6 115 45 186
q-28 33 -64 52t-76 19q-68 0 -108.5 -61t-40.5 -175v-65q128 0 170 1zM607 306q0 23 -3 33.5t-12 15.5q-35 1 -146 1v-275q0 -30 6.5 -44t25.5 -19t62 -6q29 1 43 6t19 19t5 44v225z" />
    <glyph glyph-name="f_f_h.liga" unicode="ffh" horiz-adv-x="1108" 
d="M1087 6q0 -6 -2 -6q-23 0 -37 1l-52 1l-53 -1q-13 -1 -36 -1q-3 0 -3 6t3 6q29 0 42 5t18 19.5t5 44.5v163q0 61 -23 90t-71 29q-32 0 -66 -18.5t-62 -50.5v-213q0 -30 4.5 -44.5t18 -19.5t43.5 -5q2 0 2 -6t-2 -6q-23 0 -37 1l-52 1l-53 -1q-13 -1 -36 -1q-3 0 -3 6t3 6
q29 0 42 5t18 19.5t5 44.5v552q-48 78 -126 78q-68 0 -99.5 -63.5t-31.5 -208.5v-65q47 1 133 10q3 0 5 -6.5t2 -16.5q0 -8 -3 -16t-7 -7q-55 13 -130 15v-272q0 -31 7 -45t27.5 -19t66.5 -5q2 0 2 -6t-2 -6l-64 1q-20 1 -62 1l-55 -1q-14 -1 -39 -1q-3 0 -3 6t3 6
q31 0 45.5 5.5t20 19.5t5.5 44v225q0 17 -1 23q-2 12 -9 16.5t-27.5 6t-50.5 2.5q-35 2 -158 2v-275q0 -31 7 -45t27.5 -19t66.5 -5q2 0 2 -6t-2 -6l-64 1q-20 1 -62 1l-55 -1q-14 -1 -39 -1q-3 0 -3 6t3 6q31 0 45.5 5.5t20 19.5t5.5 44v225q0 27 -4.5 37.5t-19 14
t-51.5 3.5q-3 0 -3 6t3 6q43 0 58 9.5t16 35.5q6 132 67 202.5t165 70.5q70 0 126 -27q49 62 142 62q38 0 71.5 -9.5t55.5 -26.5q8 18 8 37q0 3 6 3t6 -3v-418q40 46 77.5 66.5t77.5 20.5q55 0 84.5 -30.5t29.5 -90.5v-194q0 -30 5 -44.5t18.5 -19.5t42.5 -5q2 0 2 -6z
M322 375q37 2 52.5 7t20.5 20q2 10 2 16q5 126 35 197q-57 60 -131 60q-68 0 -108.5 -61t-40.5 -175v-65q128 0 170 1z" />
    <glyph glyph-name="f_f_i.liga" unicode="ffi" horiz-adv-x="862" 
d="M486.5 643q-40.5 -67 -40.5 -204v-65q53 0 133 10q3 0 5 -7.5t2 -16.5t-4 -18t-6 -7q-65 22 -130 23v-277q0 -31 7 -45t27.5 -19t66.5 -5q2 0 2 -6t-2 -6l-64 1q-20 1 -62 1l-55 -1q-14 -1 -39 -1q-3 0 -3 6t3 6q31 0 45.5 5.5t20 19.5t5.5 44v225q0 17 -1 23
q-2 12 -9 16.5t-27.5 6t-50.5 2.5q-35 2 -158 2v-275q0 -31 7 -45t27.5 -19t66.5 -5q2 0 2 -6t-2 -6l-64 1q-20 1 -62 1l-55 -1q-14 -1 -39 -1q-3 0 -3 6t3 6q31 0 45.5 5.5t20 19.5t5.5 44v225q0 27 -4.5 37.5t-19 14t-51.5 3.5q-3 0 -3 6t3 6q43 0 58 9.5t16 35.5
q6 132 67 202.5t165 70.5q75 0 135 -32q57 67 161 67q52 0 86.5 -22.5t34.5 -52.5q0 -13 -7 -20.5t-19 -7.5q-13 0 -20 7.5t-17 23.5q-15 26 -33.5 41t-58.5 15q-70 0 -110.5 -67zM322 375q37 2 52.5 7t20.5 20q2 10 2 16q4 118 40 191q-27 31 -62 48.5t-74 17.5
q-68 0 -108.5 -61t-40.5 -175v-65q128 0 170 1zM825 6q0 -6 -2 -6q-23 0 -37 1l-52 1l-53 -1q-13 -1 -36 -1q-3 0 -3 6t3 6q29 0 42 5t18 19.5t5 44.5v189q0 37 -7 53t-25 16q-16 0 -48 -15h-1q-5 0 -6.5 5t2.5 7l125 59q1 1 3 1t4 -2.5t2 -5.5q0 -6 -1 -39.5t-1 -77.5v-190
q0 -30 5 -44.5t18.5 -19.5t42.5 -5q2 0 2 -6z" />
    <glyph glyph-name="f_f_j.liga" unicode="ffj" horiz-adv-x="861" 
d="M488 643q-42 -67 -42 -204v-65q47 1 133 10q3 0 5 -6.5t2 -16.5q0 -8 -3 -16t-7 -7q-55 13 -130 15v-272q0 -31 7 -45t27.5 -19t66.5 -5q2 0 2 -6t-2 -6l-64 1q-20 1 -62 1l-55 -1q-14 -1 -39 -1q-3 0 -3 6t3 6q31 0 45.5 5.5t20 19.5t5.5 44v225q0 17 -1 23
q-2 12 -9 16.5t-27.5 6t-50.5 2.5q-35 2 -158 2v-275q0 -31 7 -45t27.5 -19t66.5 -5q2 0 2 -6t-2 -6l-64 1q-20 1 -62 1l-55 -1q-14 -1 -39 -1q-3 0 -3 6t3 6q31 0 45.5 5.5t20 19.5t5.5 44v225q0 27 -4.5 37.5t-19 14t-51.5 3.5q-3 0 -3 6t3 6q43 0 58 9.5t16 35.5
q6 132 67 202.5t165 70.5q40 0 75 -9t61 -23q61 67 166 67q37 0 66 -10.5t45 -28t16 -36.5q0 -13 -7.5 -20.5t-19.5 -7.5q-13 0 -20.5 7t-18.5 24q-15 26 -34.5 41t-60.5 15q-73 0 -115 -67zM322 375q37 2 52.5 7t20.5 20q2 10 2 16q4 118 41 191q-28 31 -63 48.5t-74 17.5
q-68 0 -108.5 -61t-40.5 -175v-65q128 0 170 1zM760 396q3 0 5 -2.5t2 -5.5q0 -6 -1.5 -39.5t-1.5 -77.5v-319q0 -68 -12 -110t-40 -69t-79 -48q-2 -1 -4.5 4.5t0.5 6.5q49 21 68.5 64t19.5 129v341q0 37 -7 53t-25 16q-16 0 -48 -15h-1q-5 0 -6.5 5t2.5 7l125 59q1 1 3 1z
" />
    <glyph glyph-name="f_f_k.liga" unicode="ffk" horiz-adv-x="1102" 
d="M1093 6q0 -6 -3 -6q-22 0 -36 1l-52 1l-71 -1q-15 -1 -42 -1q-2 0 -2 6t2 6q28 0 40.5 4.5t12.5 14.5q0 9 -9 22l-125 173l-58 -44v-101q0 -30 4.5 -44.5t18 -19.5t43.5 -5q2 0 2 -6t-2 -6q-23 0 -37 1l-52 1l-53 -1q-13 -1 -36 -1q-3 0 -3 6t3 6q29 0 42 5t18 19.5
t5 44.5v552q-48 78 -127 78q-67 0 -98.5 -63.5t-31.5 -208.5v-65q47 1 133 10q3 0 5 -6.5t2 -16.5q0 -8 -3 -16t-7 -7q-55 13 -130 15v-272q0 -31 7 -45t27.5 -19t66.5 -5q2 0 2 -6t-2 -6l-64 1q-20 1 -62 1l-55 -1q-14 -1 -39 -1q-3 0 -3 6t3 6q31 0 45.5 5.5t20 19.5
t5.5 44v225q0 17 -1 23q-2 12 -9 16.5t-27.5 6t-50.5 2.5q-35 2 -158 2v-275q0 -31 7 -45t27.5 -19t66.5 -5q2 0 2 -6t-2 -6l-64 1q-20 1 -62 1l-55 -1q-14 -1 -39 -1q-3 0 -3 6t3 6q31 0 45.5 5.5t20 19.5t5.5 44v225q0 27 -4.5 37.5t-19 14t-51.5 3.5q-3 0 -3 6t3 6
q43 0 58 9.5t16 35.5q6 132 67 202.5t165 70.5q70 0 126 -27q47 62 139 62q41 0 74.5 -9.5t55.5 -26.5q8 18 8 37q0 3 6 3t6 -3v-532l145 113q34 25 34 43q0 23 -63 23q-3 0 -3 6t3 6q27 0 41 -1l71 -1l66 1q12 1 35 1q2 0 2 -6t-2 -6q-75 0 -166 -69l-64 -49l125 -175
q48 -69 116 -69q3 0 3 -6zM322 375q37 2 52.5 7t20.5 20q2 10 2 16q5 126 35 197q-58 60 -131 60q-68 0 -108.5 -61t-40.5 -175v-65q128 0 170 1z" />
    <glyph glyph-name="f_f_l.liga" unicode="ffl" horiz-adv-x="861" 
d="M835 6q0 -6 -3 -6q-22 0 -36 1l-54 1l-54 -1q-13 -1 -36 -1q-3 0 -3 6t3 6q29 0 42 5t18 19.5t5 44.5v549q-28 44 -61 62.5t-74 18.5q-65 0 -100.5 -63.5t-35.5 -208.5v-65q53 0 133 10q3 0 5 -8t2 -17t-4 -17.5t-6 -6.5q-65 22 -130 23v-277q0 -31 7 -45t27.5 -19
t66.5 -5q2 0 2 -6t-2 -6l-64 1q-20 1 -62 1l-55 -1q-14 -1 -39 -1q-3 0 -3 6t3 6q31 0 45.5 5.5t20 19.5t5.5 44v225q0 17 -1 23q-2 12 -9 16.5t-27.5 6t-50.5 2.5q-35 2 -158 2v-275q0 -31 7 -45t27.5 -19t66.5 -5q2 0 2 -6t-2 -6l-64 1q-20 1 -62 1l-55 -1q-14 -1 -39 -1
q-3 0 -3 6t3 6q31 0 45.5 5.5t20 19.5t5.5 44v225q0 27 -4.5 37.5t-19 14t-51.5 3.5q-3 0 -3 6t3 6q43 0 58 9.5t16 35.5q6 132 67 202.5t165 70.5q70 0 128 -28q50 63 144 63q42 0 77.5 -10.5t59.5 -28.5q11 17 11 40q0 3 6 3t6 -3v-646q0 -30 4.5 -44.5t18 -19.5t42.5 -5
q3 0 3 -6zM322 375q37 2 52.5 7t20.5 20q2 10 2 16q4 123 36 195q-26 29 -60 45.5t-72 16.5q-68 0 -108.5 -61t-40.5 -175v-65q128 0 170 1z" />
    <glyph glyph-name="f_f_thorn.liga" unicode="ff&#xfe;" horiz-adv-x="1102" 
d="M988.5 377q34.5 -22 55.5 -64t21 -98q0 -74 -34 -125.5t-84 -77t-96 -25.5q-33 0 -58.5 7t-51.5 24v-212q0 -30 7.5 -44t28 -19.5t64.5 -5.5q3 0 3 -6t-3 -6q-34 0 -53 1l-72 1l-53 -1q-13 -1 -37 -1q-2 0 -2 6t2 6q28 0 42 5.5t19 19.5t5 44v844q-45 61 -116 61
q-67 0 -98.5 -63.5t-31.5 -208.5v-65q47 1 133 10q3 0 5 -6.5t2 -16.5q0 -8 -3 -16t-7 -7q-55 13 -130 15v-272q0 -31 7 -45t27.5 -19t66.5 -5q2 0 2 -6t-2 -6l-64 1q-20 1 -62 1l-55 -1q-14 -1 -39 -1q-3 0 -3 6t3 6q31 0 45.5 5.5t20 19.5t5.5 44v225q0 17 -1 23
q-2 12 -9 16.5t-27.5 6t-50.5 2.5q-35 2 -158 2v-275q0 -31 7 -45t27.5 -19t66.5 -5q2 0 2 -6t-2 -6l-64 1q-20 1 -62 1l-55 -1q-14 -1 -39 -1q-3 0 -3 6t3 6q31 0 45.5 5.5t20 19.5t5.5 44v225q0 27 -4.5 37.5t-19 14t-51.5 3.5q-3 0 -3 6t3 6q43 0 58 9.5t16 35.5
q6 132 67 202.5t165 70.5q70 0 126 -27q47 62 139 62q77 0 123 -31q6 15 6 32q0 3 6 3t6 -3v-419q45 47 86.5 69t85.5 22q41 0 75.5 -22zM322 375q37 2 52.5 7t20.5 20q2 10 2 16q5 126 35 197q-58 60 -131 60q-68 0 -108.5 -61t-40.5 -175v-65q128 0 170 1zM974 55
q36 48 36 129q0 86 -38 134t-96 48q-38 0 -70 -19.5t-65 -54.5v-220q28 -31 61.5 -48t80.5 -17q55 0 91 48z" />
    <glyph glyph-name="f_f_t.liga" unicode="fft" horiz-adv-x="915" 
d="M884 47q3 0 5 -4.5t-1 -6.5q-37 -26 -65 -37t-58 -11q-41 0 -67 18.5t-26 61.5v238q0 29 -8.5 37.5t-47 10.5t-170.5 2v-275q0 -31 7 -45t27.5 -19t66.5 -5q2 0 2 -6t-2 -6l-64 1q-20 1 -62 1l-55 -1q-14 -1 -39 -1q-3 0 -3 6t3 6q31 0 45.5 5.5t20 19.5t5.5 44v225
q0 17 -1 23q-2 12 -9 16.5t-27.5 6t-50.5 2.5q-35 2 -158 2v-275q0 -31 7 -45t27.5 -19t66.5 -5q2 0 2 -6t-2 -6l-64 1q-20 1 -62 1l-55 -1q-14 -1 -39 -1q-3 0 -3 6t3 6q31 0 45.5 5.5t20 19.5t5.5 44v225q0 27 -4.5 37.5t-19 14t-51.5 3.5q-3 0 -3 6t3 6q43 0 58 9.5
t16 35.5q6 132 67 202.5t165 70.5q70 0 128 -28q52 63 150 63q50 0 83 -15.5t33 -35.5q0 -13 -9 -20.5t-22 -7.5q-17 0 -36 22q-17 21 -36.5 31t-46.5 10q-61 0 -97 -67.5t-36 -203.5v-65q90 0 142 3q49 1 73.5 7t34 20.5t9.5 42.5q0 3 8 3q7 0 7 -3v-73q69 1 141 10
q3 0 5 -6.5t2 -16.5q0 -8 -3.5 -16t-6.5 -7q-60 15 -138 15v-251q0 -83 80 -83q47 0 82 27zM322 375q37 2 52.5 7t20.5 20q2 10 2 16q5 125 36 195q-27 29 -61 45.5t-71 16.5q-68 0 -108.5 -61t-40.5 -175v-65q128 0 170 1z" />
    <glyph glyph-name="f_h.liga" unicode="fh" horiz-adv-x="814" 
d="M793 6q0 -6 -2 -6q-23 0 -37 1l-52 1l-53 -1q-13 -1 -36 -1q-3 0 -3 6t3 6q29 0 42 5t18 19.5t5 44.5v163q0 61 -23 90t-71 29q-32 0 -66 -18.5t-62 -50.5v-213q0 -30 4.5 -44.5t18 -19.5t43.5 -5q2 0 2 -6t-2 -6q-23 0 -37 1l-52 1l-53 -1q-13 -1 -36 -1q-3 0 -3 6t3 6
q29 0 42 5t18 19.5t5 44.5v552q-48 78 -126 78q-68 0 -99.5 -63.5t-31.5 -208.5v-65q47 1 133 10q3 0 5 -6.5t2 -16.5q0 -8 -3 -16t-7 -7q-55 13 -130 15v-272q0 -31 7 -45t27.5 -19t66.5 -5q2 0 2 -6t-2 -6l-64 1q-20 1 -62 1l-55 -1q-14 -1 -39 -1q-3 0 -3 6t3 6
q31 0 45.5 5.5t20 19.5t5.5 44v225q0 27 -4.5 37.5t-19 14t-51.5 3.5q-3 0 -3 6t3 6q43 0 58 9.5t16 35.5q5 158 54 233t152 75q38 0 71.5 -9.5t55.5 -26.5q8 18 8 37q0 3 6 3t6 -3v-418q40 46 77.5 66.5t77.5 20.5q55 0 84.5 -30.5t29.5 -90.5v-194q0 -30 5 -44.5
t18.5 -19.5t42.5 -5q2 0 2 -6z" />
    <glyph glyph-name="f_j.liga" unicode="fj" horiz-adv-x="567" 
d="M194 643q-42 -67 -42 -204v-65q47 1 133 10q3 0 5 -6.5t2 -16.5q0 -8 -3 -16t-7 -7q-55 13 -130 15v-272q0 -31 7 -45t27.5 -19t66.5 -5q2 0 2 -6t-2 -6l-64 1q-20 1 -62 1l-55 -1q-14 -1 -39 -1q-3 0 -3 6t3 6q31 0 45.5 5.5t20 19.5t5.5 44v225q0 27 -4.5 37.5t-19 14
t-51.5 3.5q-3 0 -3 6t3 6q43 0 58 9.5t16 35.5q5 159 68 233.5t172 74.5q37 0 66 -10.5t45 -28t16 -36.5q0 -13 -7.5 -20.5t-19.5 -7.5q-13 0 -20.5 7t-18.5 24q-15 26 -34.5 41t-60.5 15q-73 0 -115 -67zM466 396q3 0 5 -2.5t2 -5.5q0 -6 -1.5 -39.5t-1.5 -77.5v-319
q0 -68 -12 -110t-40 -69t-79 -48q-2 -1 -4.5 4.5t0.5 6.5q49 21 68.5 64t19.5 129v341q0 37 -7 53t-25 16q-16 0 -48 -15h-1q-5 0 -6.5 5t2.5 7l125 59q1 1 3 1z" />
    <glyph glyph-name="f_k.liga" unicode="fk" horiz-adv-x="808" 
d="M799 6q0 -6 -3 -6q-22 0 -36 1l-52 1l-71 -1q-15 -1 -42 -1q-2 0 -2 6t2 6q28 0 40.5 4.5t12.5 14.5q0 9 -9 22l-125 173l-58 -44v-101q0 -30 4.5 -44.5t18 -19.5t43.5 -5q2 0 2 -6t-2 -6q-23 0 -37 1l-52 1l-53 -1q-13 -1 -36 -1q-3 0 -3 6t3 6q29 0 42 5t18 19.5
t5 44.5v552q-48 78 -127 78q-67 0 -98.5 -63.5t-31.5 -208.5v-65q47 1 133 10q3 0 5 -6.5t2 -16.5q0 -8 -3 -16t-7 -7q-55 13 -130 15v-272q0 -31 7 -45t27.5 -19t66.5 -5q2 0 2 -6t-2 -6l-64 1q-20 1 -62 1l-55 -1q-14 -1 -39 -1q-3 0 -3 6t3 6q31 0 45.5 5.5t20 19.5
t5.5 44v225q0 27 -4.5 37.5t-19 14t-51.5 3.5q-3 0 -3 6t3 6q43 0 58 9.5t16 35.5q5 158 54 233t149 75q41 0 74.5 -9.5t55.5 -26.5q8 18 8 37q0 3 6 3t6 -3v-532l145 113q34 25 34 43q0 23 -63 23q-3 0 -3 6t3 6q27 0 41 -1l71 -1l66 1q12 1 35 1q2 0 2 -6t-2 -6
q-75 0 -166 -69l-64 -49l125 -175q48 -69 116 -69q3 0 3 -6z" />
    <glyph glyph-name="f_thorn.liga" unicode="f&#xfe;" horiz-adv-x="808" 
d="M694.5 377q34.5 -22 55.5 -64t21 -98q0 -74 -34 -125.5t-84 -77t-96 -25.5q-33 0 -58.5 7t-51.5 24v-212q0 -30 7.5 -44t28 -19.5t64.5 -5.5q3 0 3 -6t-3 -6q-34 0 -53 1l-72 1l-53 -1q-13 -1 -37 -1q-2 0 -2 6t2 6q28 0 42 5.5t19 19.5t5 44v844q-45 61 -116 61
q-67 0 -98.5 -63.5t-31.5 -208.5v-65q47 1 133 10q3 0 5 -6.5t2 -16.5q0 -8 -3 -16t-7 -7q-55 13 -130 15v-272q0 -31 7 -45t27.5 -19t66.5 -5q2 0 2 -6t-2 -6l-64 1q-20 1 -62 1l-55 -1q-14 -1 -39 -1q-3 0 -3 6t3 6q31 0 45.5 5.5t20 19.5t5.5 44v225q0 27 -4.5 37.5
t-19 14t-51.5 3.5q-3 0 -3 6t3 6q43 0 58 9.5t16 35.5q5 158 54 233t149 75q77 0 123 -31q6 15 6 32q0 3 6 3t6 -3v-419q45 47 86.5 69t85.5 22q41 0 75.5 -22zM680 55q36 48 36 129q0 86 -38 134t-96 48q-38 0 -70 -19.5t-65 -54.5v-220q28 -31 61.5 -48t80.5 -17
q55 0 91 48z" />
    <glyph glyph-name="f_t.liga" unicode="ft" horiz-adv-x="621" 
d="M590 47q3 0 5 -4.5t-1 -6.5q-37 -26 -65 -37t-58 -11q-41 0 -67 18.5t-26 61.5v238q0 29 -8.5 37.5t-47 10.5t-170.5 2v-275q0 -31 7 -45t27.5 -19t66.5 -5q2 0 2 -6t-2 -6l-64 1q-20 1 -62 1l-55 -1q-14 -1 -39 -1q-3 0 -3 6t3 6q31 0 45.5 5.5t20 19.5t5.5 44v225
q0 27 -4.5 37.5t-19 14t-51.5 3.5q-3 0 -3 6t3 6q43 0 58 9.5t16 35.5q5 162 58.5 235t157.5 73q50 0 83 -15.5t33 -35.5q0 -13 -9 -20.5t-22 -7.5q-17 0 -36 22q-17 21 -36.5 31t-46.5 10q-61 0 -97 -67.5t-36 -203.5v-65q90 0 142 3q49 1 73.5 7t34 20.5t9.5 42.5q0 3 8 3
q7 0 7 -3v-73q69 1 141 10q3 0 5 -6.5t2 -16.5q0 -8 -3.5 -16t-6.5 -7q-60 15 -138 15v-251q0 -83 80 -83q47 0 82 27z" />
    <glyph glyph-name="fi.liga" unicode="fi" horiz-adv-x="568" 
d="M192.5 643q-40.5 -67 -40.5 -204v-65q53 0 133 10q3 0 5 -7.5t2 -16.5t-4 -18t-6 -7q-65 22 -130 23v-277q0 -31 7 -45t27.5 -19t66.5 -5q2 0 2 -6t-2 -6l-64 1q-20 1 -62 1l-55 -1q-14 -1 -39 -1q-3 0 -3 6t3 6q31 0 45.5 5.5t20 19.5t5.5 44v225q0 27 -4.5 37.5t-19 14
t-51.5 3.5q-3 0 -3 6t3 6q43 0 58 9.5t16 35.5q5 159 66.5 233.5t167.5 74.5q52 0 86.5 -22.5t34.5 -52.5q0 -13 -7 -20.5t-19 -7.5q-13 0 -20 7.5t-17 23.5q-15 26 -33.5 41t-58.5 15q-70 0 -110.5 -67zM531 6q0 -6 -2 -6q-23 0 -37 1l-52 1l-53 -1q-13 -1 -36 -1
q-3 0 -3 6t3 6q29 0 42 5t18 19.5t5 44.5v189q0 37 -7 53t-25 16q-16 0 -48 -15h-1q-5 0 -6.5 5t2.5 7l125 59q1 1 3 1t4 -2.5t2 -5.5q0 -6 -1 -39.5t-1 -77.5v-190q0 -30 5 -44.5t18.5 -19.5t42.5 -5q2 0 2 -6z" />
    <glyph glyph-name="fl.liga" unicode="fl" horiz-adv-x="567" 
d="M541 6q0 -6 -3 -6q-22 0 -36 1l-54 1l-54 -1q-13 -1 -36 -1q-3 0 -3 6t3 6q29 0 42 5t18 19.5t5 44.5v549q-28 44 -61 62.5t-74 18.5q-65 0 -100.5 -63.5t-35.5 -208.5v-65q53 0 133 10q3 0 5 -8t2 -17t-4 -17.5t-6 -6.5q-65 22 -130 23v-277q0 -31 7 -45t27.5 -19
t66.5 -5q2 0 2 -6t-2 -6l-64 1q-20 1 -62 1l-55 -1q-14 -1 -39 -1q-3 0 -3 6t3 6q31 0 45.5 5.5t20 19.5t5.5 44v225q0 27 -4.5 37.5t-19 14t-51.5 3.5q-3 0 -3 6t3 6q43 0 58 9.5t16 35.5q5 161 58 234.5t152 73.5q42 0 77.5 -10.5t59.5 -28.5q11 17 11 40q0 3 6 3t6 -3
v-646q0 -30 4.5 -44.5t18 -19.5t42.5 -5q3 0 3 -6z" />
    <glyph glyph-name="g_g.liga" unicode="gg" horiz-adv-x="856" 
d="M438 387q2 -7 2 -14q0 -11 -3 -22t-7 -9q-22 6 -40.5 10t-46.5 4q-15 0 -29 -3q26 -29 26 -70q0 -33 -17 -62t-50 -46.5t-79 -17.5q-30 0 -51 7q-19 -13 -30 -31.5t-11 -38.5q0 -31 29 -44t82 -21q14 -2 23 -4q55 -8 89 -17.5t57.5 -32.5t23.5 -65q0 -44 -32 -89
t-86.5 -74t-116.5 -29q-70 0 -113 35t-43 87q0 80 116 157q-69 20 -69 67q0 53 70 103q-37 14 -57.5 43.5t-20.5 66.5q0 50 41.5 83t109.5 33q64 0 100 -31q35 16 65 24t64 8q2 0 4 -7zM666 26q61 -9 95.5 -18t59.5 -32.5t25 -65.5q0 -44 -33.5 -89t-90.5 -74t-123 -29
q-68 0 -109 35t-41 87q0 42 28.5 80t82.5 77q-33 9 -51.5 25t-18.5 42q0 53 70 103q-37 14 -57.5 43.5t-20.5 66.5q0 50 41.5 83t109.5 33q64 0 99 -30q29 15 54 23t53 8q2 0 3.5 -7t1.5 -14q0 -12 -2.5 -22.5t-6.5 -8.5q-35 14 -64 14q-15 0 -29 -3q26 -29 26 -70
q0 -33 -17 -62t-50 -46.5t-79 -17.5q-30 0 -51 7q-19 -13 -30 -31.5t-11 -38.5q0 -31 29 -44t82 -21zM266.5 193.5q20.5 22.5 20.5 69.5q0 52 -31.5 84t-73.5 32q-33 0 -53.5 -20t-20.5 -63q0 -59 32 -92t74 -33q32 0 52.5 22.5zM556.5 359q-20.5 -20 -20.5 -63
q0 -59 32 -92t74 -33q32 0 52.5 22.5t20.5 69.5q0 52 -31.5 84t-72.5 32q-34 0 -54.5 -20zM338.5 -58q-24.5 21 -56 28.5t-91.5 15.5q-30 5 -41 7q-41 -25 -63.5 -53.5t-22.5 -70.5q0 -55 38 -88.5t105 -33.5q49 0 84.5 19.5t53.5 50t18 64.5q0 40 -24.5 61zM726 -233.5
q38 19.5 57 50t19 64.5q0 40 -26 61t-59.5 28.5t-97.5 15.5l-39 6q-39 -24 -60.5 -52.5t-21.5 -70.5q0 -55 36.5 -88.5t100.5 -33.5q53 0 91 19.5z" />
    <glyph glyph-name="longs_b.liga" unicode="&#x17f;b" horiz-adv-x="807" 
d="M689.5 378q35.5 -21 57.5 -62.5t23 -101.5q-1 -72 -33 -123.5t-82 -77.5t-106 -26q-76 0 -138 41l-69 -32h-2q-4 0 -5 3.5t2 6.5q34 24 46.5 42t12.5 55l2 530q-43 78 -116 78q-67 0 -98.5 -63.5t-31.5 -208.5v-358q0 -31 7 -45t27.5 -19t66.5 -5q2 0 2 -6t-2 -6l-64 1
q-20 1 -62 1l-55 -1q-14 -1 -39 -1q-3 0 -3 6t3 6q31 0 45 5t19.5 19.5t5.5 44.5v337q0 308 203 308q77 0 120 -37q9 17 9 38q0 3 6 3t6 -3l-1 -416q37 40 76.5 64t88.5 24q43 0 78.5 -21zM677.5 51.5q34.5 45.5 35.5 130.5q-1 90 -37.5 139.5t-95.5 49.5q-35 0 -68 -20.5
t-66 -56.5v-221q32 -36 65 -51.5t70 -15.5q62 0 96.5 45.5z" />
    <glyph glyph-name="longs_h.liga" unicode="&#x17f;h" horiz-adv-x="802" 
d="M781 6q0 -6 -2 -6q-23 0 -36 1l-53 1l-52 -1q-14 -1 -37 -1q-2 0 -2 6t2 6q29 0 42.5 5t18.5 19.5t5 44.5v163q0 61 -23.5 90t-71.5 29q-33 0 -66.5 -18.5t-61.5 -51.5v-212q0 -30 5 -44.5t18.5 -19.5t42.5 -5q2 0 2 -6t-2 -6q-23 0 -36 1l-53 1l-52 -1q-14 -1 -37 -1
q-2 0 -2 6t2 6q29 0 42.5 5t18.5 19.5t5 44.5v552q-43 78 -116 78q-67 0 -98.5 -63.5t-31.5 -208.5v-358q0 -31 7 -45t27.5 -19t66.5 -5q2 0 2 -6t-2 -6l-64 1q-20 1 -62 1l-55 -1q-14 -1 -39 -1q-3 0 -3 6t3 6q31 0 45.5 5.5t20 19.5t5.5 44v337q0 156 50.5 232t151.5 76
q77 0 119 -36q8 18 8 37q0 3 5.5 3t5.5 -3v-418q40 46 77.5 66.5t77.5 20.5q55 0 84.5 -30.5t29.5 -90.5v-194q0 -30 5 -44.5t18.5 -19.5t42.5 -5q2 0 2 -6z" />
    <glyph glyph-name="longs_i.liga" unicode="&#x17f;i" horiz-adv-x="544" 
d="M30 6q0 6 3 6q31 0 45.5 5.5t20 19.5t5.5 44v337q0 160 55 234t154 74q51 0 80.5 -15t29.5 -36q0 -13 -8.5 -20t-21.5 -7t-21.5 6.5t-19.5 20.5q-15 18 -29 27.5t-39 9.5q-61 0 -95.5 -66.5t-34.5 -206.5v-358q0 -31 5.5 -45t23.5 -19t58 -5q2 0 2 -6t-2 -6l-58 1
q-18 1 -56 1l-55 -1q-14 -1 -39 -1q-3 0 -3 6zM318 6q0 6 2 6q29 0 42.5 5t18.5 19.5t5 44.5v189q0 37 -7 53t-25 16q-17 0 -49 -15h-1q-5 0 -6 5t3 7l125 59l2 1q3 0 5 -2.5t2 -5.5q0 -6 -1 -39.5t-1 -77.5v-190q0 -30 4.5 -44.5t18 -19.5t42.5 -5q3 0 3 -6t-3 -6
q-23 0 -36 1l-53 1l-52 -1q-14 -1 -37 -1q-2 0 -2 6z" />
    <glyph glyph-name="longs_j.liga" unicode="&#x17f;j" horiz-adv-x="525" 
d="M30 6q0 6 3 6q31 0 45.5 5.5t20 19.5t5.5 44v337q0 160 55 234t154 74q51 0 80.5 -15t29.5 -36q0 -13 -8.5 -20t-21.5 -7t-21.5 6.5t-19.5 20.5q-15 18 -29 27.5t-39 9.5q-61 0 -95.5 -66.5t-34.5 -206.5v-358q0 -31 5.5 -45t23.5 -19t58 -5q2 0 2 -6t-2 -6l-58 1
q-18 1 -56 1l-55 -1q-14 -1 -39 -1q-3 0 -3 6zM292.5 -270.5q-2.5 5.5 -0.5 6.5q49 21 69 64t20 129v341q0 37 -7 53t-25 16q-16 0 -48 -15h-1q-5 0 -6.5 5t2.5 7l125 59q1 1 3 1t4 -2.5t2 -5.5q0 -6 -1 -39.5t-1 -77.5v-319q0 -67 -12 -109.5t-40 -69.5t-79 -48
q-2 -1 -4.5 4.5z" />
    <glyph glyph-name="longs_k.liga" unicode="&#x17f;k" horiz-adv-x="796" 
d="M787 6q0 -6 -2 -6q-23 0 -37 1l-52 1l-71 -1q-15 -1 -41 -1q-3 0 -3 6t3 6q27 0 39.5 4.5t12.5 14.5q0 9 -9 22l-125 172l-58 -44v-100q0 -30 5 -44.5t18.5 -19.5t42.5 -5q2 0 2 -6t-2 -6q-23 0 -36 1l-53 1l-52 -1q-14 -1 -37 -1q-2 0 -2 6t2 6q29 0 42.5 5t18.5 19.5
t5 44.5v552q-43 78 -116 78q-67 0 -98.5 -63.5t-31.5 -208.5v-358q0 -31 7 -45t27.5 -19t66.5 -5q2 0 2 -6t-2 -6l-64 1q-20 1 -62 1l-55 -1q-14 -1 -39 -1q-3 0 -3 6t3 6q31 0 45.5 5.5t20 19.5t5.5 44v337q0 156 50.5 232t151.5 76q77 0 119 -36q8 18 8 37q0 3 5.5 3
t5.5 -3v-532l145 113q34 25 34 43q0 23 -63 23q-2 0 -2 6t2 6q27 0 42 -1l71 -1l65 1q13 1 35 1q3 0 3 -6t-3 -6q-75 0 -166 -69l-64 -49l125 -175q48 -69 117 -69q2 0 2 -6z" />
    <glyph glyph-name="longs_l.liga" unicode="&#x17f;l" horiz-adv-x="544" 
d="M517 6q0 -6 -2 -6q-23 0 -37 1l-53 1l-54 -1q-13 -1 -36 -1q-3 0 -3 6t3 6q28 0 41.5 5.5t18.5 19.5t5 44v548q-43 82 -118 82q-67 0 -98.5 -63.5t-31.5 -208.5v-358q0 -31 7 -45t27.5 -19t66.5 -5q2 0 2 -6t-2 -6l-64 1q-20 1 -62 1l-55 -1q-14 -1 -39 -1q-3 0 -3 6t3 6
q31 0 45.5 5.5t20 19.5t5.5 44v337q0 156 50.5 232t151.5 76q78 0 121 -38q10 18 10 39q0 3 6 3t6 -3v-646q0 -30 4.5 -44.5t18 -19.5t43.5 -5q2 0 2 -6z" />
    <glyph glyph-name="longs_thorn.liga" unicode="&#x17f;&#xfe;" horiz-adv-x="796" 
d="M683 377q35 -22 55.5 -63.5t20.5 -98.5q0 -74 -34 -125.5t-84 -77t-96 -25.5q-32 0 -58 7t-52 25v-213q0 -30 7.5 -44t28 -19.5t65.5 -5.5q2 0 2 -6t-2 -6q-35 0 -54 1l-71 1l-53 -1q-14 -1 -38 -1q-2 0 -2 6t2 6q28 0 42 5.5t19 19.5t5 44v846q-40 59 -104 59
q-67 0 -98.5 -63.5t-31.5 -208.5v-358q0 -31 7 -45t27.5 -19t66.5 -5q2 0 2 -6t-2 -6l-64 1q-20 1 -62 1l-55 -1q-14 -1 -39 -1q-3 0 -3 6t3 6q31 0 45.5 5.5t20 19.5t5.5 44v337q0 156 50.5 232t151.5 76q68 0 111 -30q6 14 6 31q0 3 6 3t6 -3v-419q45 47 87 69t85 22
q41 0 76 -22zM642 28.5q29 21.5 45.5 61.5t16.5 94q0 86 -37.5 134t-95.5 48q-38 0 -70.5 -19.5t-65.5 -54.5v-219q29 -32 62.5 -49t80.5 -17q35 0 64 21.5z" />
    <glyph glyph-name="longs_longs.liga" unicode="&#x17f;&#x17f;" horiz-adv-x="538" 
d="M663.5 710.5q29.5 -15.5 29.5 -35.5q0 -14 -8.5 -20.5t-22.5 -6.5q-13 0 -21.5 6.5t-19.5 20.5q-14 17 -28 26.5t-38 9.5q-57 0 -88.5 -65.5t-31.5 -206.5v-358q0 -31 5.5 -45t23.5 -19t58 -5q2 0 2 -6t-2 -6l-58 1q-18 1 -56 1l-55 -1q-14 -1 -39 -1q-3 0 -3 6t3 6
q31 0 45.5 5.5t20 19.5t5.5 44v337q0 130 33 202q-52 55 -117 55q-68 0 -108.5 -61t-40.5 -175v-358q0 -31 7 -45t27.5 -19t66.5 -5q2 0 2 -6t-2 -6l-64 1q-20 1 -62 1l-55 -1q-14 -1 -39 -1q-3 0 -3 6t3 6q31 0 45.5 5.5t20 19.5t5.5 44v337q0 131 63 202t168 71
q61 0 111 -25q49 60 143 60q45 0 74.5 -15.5z" />
    <glyph glyph-name="longs_longs_b.liga" unicode="&#x17f;&#x17f;b" horiz-adv-x="1092" 
d="M974.5 378q35.5 -21 57.5 -62.5t23 -101.5q-1 -72 -33 -123.5t-82 -77.5t-106 -26q-76 0 -138 41l-69 -32h-2q-4 0 -5 3.5t2 6.5q34 24 46.5 42t12.5 55l2 530q-43 78 -116 78q-67 0 -98.5 -63.5t-31.5 -208.5v-358q0 -31 7 -45t27.5 -19t66.5 -5q2 0 2 -6t-2 -6l-64 1
q-20 1 -62 1l-55 -1q-14 -1 -39 -1q-3 0 -3 6t3 6q31 0 45 5t19.5 19.5t5.5 44.5v337q0 125 33 198q-52 59 -120 59t-108.5 -61t-40.5 -175v-358q0 -31 7 -45t27.5 -19t66.5 -5q2 0 2 -6t-2 -6l-64 1q-20 1 -62 1l-55 -1q-14 -1 -39 -1q-3 0 -3 6t3 6q31 0 45.5 5.5t20 19.5
t5.5 44v337q0 131 63 202t168 71q64 0 114 -27q50 62 142 62q77 0 120 -37q9 17 9 38q0 3 6 3t6 -3l-1 -416q37 40 76.5 64t88.5 24q43 0 78.5 -21zM962.5 51.5q34.5 45.5 35.5 130.5q-1 90 -37.5 139.5t-95.5 49.5q-35 0 -68 -20.5t-66 -56.5v-221q32 -36 65 -51.5
t70 -15.5q62 0 96.5 45.5z" />
    <glyph glyph-name="longs_longs_h.liga" unicode="&#x17f;&#x17f;h" horiz-adv-x="1089" 
d="M1068 6q0 -6 -2 -6q-23 0 -36 1l-53 1l-52 -1q-14 -1 -37 -1q-2 0 -2 6t2 6q29 0 42.5 5t18.5 19.5t5 44.5v163q0 61 -23.5 90t-71.5 29q-33 0 -66.5 -18.5t-61.5 -51.5v-212q0 -30 5 -44.5t18.5 -19.5t42.5 -5q2 0 2 -6t-2 -6q-23 0 -36 1l-53 1l-52 -1q-14 -1 -37 -1
q-2 0 -2 6t2 6q29 0 42.5 5t18.5 19.5t5 44.5v552q-43 78 -116 78q-67 0 -98.5 -63.5t-31.5 -208.5v-358q0 -31 7 -45t27.5 -19t66.5 -5q2 0 2 -6t-2 -6l-64 1q-20 1 -62 1l-55 -1q-14 -1 -39 -1q-3 0 -3 6t3 6q31 0 45.5 5.5t20 19.5t5.5 44v337q0 120 31 196
q-25 29 -56 45t-65 16q-68 0 -108.5 -61t-40.5 -175v-358q0 -31 7 -45t27.5 -19t66.5 -5q2 0 2 -6t-2 -6l-64 1q-20 1 -62 1l-55 -1q-14 -1 -39 -1q-3 0 -3 6t3 6q31 0 45.5 5.5t20 19.5t5.5 44v337q0 131 63 202t168 71q67 0 116 -28q51 63 142 63q77 0 119 -36q8 18 8 37
q0 3 5.5 3t5.5 -3v-418q40 46 77.5 66.5t77.5 20.5q55 0 84.5 -30.5t29.5 -90.5v-194q0 -30 5 -44.5t18.5 -19.5t42.5 -5q2 0 2 -6z" />
    <glyph glyph-name="longs_longs_i.liga" unicode="&#x17f;&#x17f;i" horiz-adv-x="825" 
d="M469.5 645.5q-34.5 -66.5 -34.5 -206.5v-358q0 -31 5.5 -45t23.5 -19t58 -5q2 0 2 -6t-2 -6l-58 1q-18 1 -56 1l-55 -1q-14 -1 -39 -1q-3 0 -3 6t3 6q31 0 45.5 5.5t20 19.5t5.5 44v337q0 126 35 199q-52 58 -119 58q-68 0 -108.5 -61t-40.5 -175v-358q0 -31 7 -45
t27.5 -19t66.5 -5q2 0 2 -6t-2 -6l-64 1q-20 1 -62 1l-55 -1q-14 -1 -39 -1q-3 0 -3 6t3 6q31 0 45.5 5.5t20 19.5t5.5 44v337q0 131 63 202t168 71q64 0 114 -27q52 62 145 62q51 0 80.5 -15t29.5 -36q0 -13 -8.5 -20t-21.5 -7t-21.5 6.5t-19.5 20.5q-15 18 -29 27.5
t-39 9.5q-61 0 -95.5 -66.5zM782 6q0 -6 -3 -6q-23 0 -36 1l-53 1l-52 -1q-14 -1 -37 -1q-2 0 -2 6t2 6q29 0 42.5 5t18.5 19.5t5 44.5v189q0 37 -7 53t-25 16q-17 0 -49 -15h-1q-5 0 -6 5t3 7l125 59l2 1q3 0 5 -2.5t2 -5.5q0 -6 -1 -39.5t-1 -77.5v-190q0 -30 4.5 -44.5
t18 -19.5t42.5 -5q3 0 3 -6z" />
    <glyph glyph-name="longs_longs_j.liga" unicode="&#x17f;&#x17f;j" horiz-adv-x="806" 
d="M469.5 645.5q-34.5 -66.5 -34.5 -206.5v-358q0 -31 5.5 -45t23.5 -19t58 -5q2 0 2 -6t-2 -6l-58 1q-18 1 -56 1l-55 -1q-14 -1 -39 -1q-3 0 -3 6t3 6q31 0 45.5 5.5t20 19.5t5.5 44v337q0 126 35 199q-52 58 -119 58q-68 0 -108.5 -61t-40.5 -175v-358q0 -31 7 -45
t27.5 -19t66.5 -5q2 0 2 -6t-2 -6l-64 1q-20 1 -62 1l-55 -1q-14 -1 -39 -1q-3 0 -3 6t3 6q31 0 45.5 5.5t20 19.5t5.5 44v337q0 131 63 202t168 71q64 0 114 -27q52 62 145 62q51 0 80.5 -15t29.5 -36q0 -13 -8.5 -20t-21.5 -7t-21.5 6.5t-19.5 20.5q-15 18 -29 27.5
t-39 9.5q-61 0 -95.5 -66.5zM705 396q2 0 4 -2.5t2 -5.5q0 -6 -1 -39.5t-1 -77.5v-319q0 -67 -12 -109.5t-40 -69.5t-79 -48q-2 -1 -4.5 4.5t-0.5 6.5q49 21 69 64t20 129v341q0 37 -7 53t-25 16q-16 0 -48 -15h-1q-5 0 -6.5 5t2.5 7l125 59q1 1 3 1z" />
    <glyph glyph-name="longs_longs_k.liga" unicode="&#x17f;&#x17f;k" horiz-adv-x="1083" 
d="M1074 6q0 -6 -2 -6q-23 0 -37 1l-52 1l-71 -1q-15 -1 -41 -1q-3 0 -3 6t3 6q27 0 39.5 4.5t12.5 14.5q0 9 -9 22l-125 172l-58 -44v-100q0 -30 5 -44.5t18.5 -19.5t42.5 -5q2 0 2 -6t-2 -6q-23 0 -36 1l-53 1l-52 -1q-14 -1 -37 -1q-2 0 -2 6t2 6q29 0 42.5 5t18.5 19.5
t5 44.5v552q-43 78 -116 78q-67 0 -98.5 -63.5t-31.5 -208.5v-358q0 -31 7 -45t27.5 -19t66.5 -5q2 0 2 -6t-2 -6l-64 1q-20 1 -62 1l-55 -1q-14 -1 -39 -1q-3 0 -3 6t3 6q31 0 45.5 5.5t20 19.5t5.5 44v337q0 120 31 196q-25 29 -56 45t-65 16q-68 0 -108.5 -61t-40.5 -175
v-358q0 -31 7 -45t27.5 -19t66.5 -5q2 0 2 -6t-2 -6l-64 1q-20 1 -62 1l-55 -1q-14 -1 -39 -1q-3 0 -3 6t3 6q31 0 45.5 5.5t20 19.5t5.5 44v337q0 131 63 202t168 71q67 0 116 -28q51 63 142 63q77 0 119 -36q8 18 8 37q0 3 5.5 3t5.5 -3v-532l145 113q34 25 34 43
q0 23 -63 23q-2 0 -2 6t2 6q27 0 42 -1l71 -1l65 1q13 1 35 1q3 0 3 -6t-3 -6q-75 0 -166 -69l-64 -49l125 -175q48 -69 117 -69q2 0 2 -6z" />
    <glyph glyph-name="longs_longs_l.liga" unicode="&#x17f;&#x17f;l" horiz-adv-x="830" 
d="M804 6q0 -6 -2 -6q-23 0 -37 1l-53 1l-54 -1q-13 -1 -36 -1q-3 0 -3 6t3 6q28 0 41.5 5.5t18.5 19.5t5 44v548q-43 82 -118 82q-67 0 -98.5 -63.5t-31.5 -208.5v-358q0 -31 7 -45t27.5 -19t66.5 -5q2 0 2 -6t-2 -6l-64 1q-20 1 -62 1l-55 -1q-14 -1 -39 -1q-3 0 -3 6t3 6
q31 0 45.5 5.5t20 19.5t5.5 44v337q0 120 31 196q-25 29 -56 45t-65 16q-68 0 -108.5 -61t-40.5 -175v-358q0 -31 7 -45t27.5 -19t66.5 -5q2 0 2 -6t-2 -6l-64 1q-20 1 -62 1l-55 -1q-14 -1 -39 -1q-3 0 -3 6t3 6q31 0 45.5 5.5t20 19.5t5.5 44v337q0 131 63 202t168 71
q67 0 116 -28q51 63 142 63q78 0 121 -38q10 18 10 39q0 3 6 3t6 -3v-646q0 -30 4.5 -44.5t18 -19.5t43.5 -5q2 0 2 -6z" />
    <glyph glyph-name="longs_longs_thorn.liga" unicode="&#x17f;&#x17f;&#xfe;" horiz-adv-x="1083" 
d="M970 377q35 -22 55.5 -63.5t20.5 -98.5q0 -74 -34 -125.5t-84 -77t-96 -25.5q-32 0 -58 7t-52 25v-213q0 -30 7.5 -44t28 -19.5t65.5 -5.5q2 0 2 -6t-2 -6q-35 0 -54 1l-71 1l-53 -1q-14 -1 -38 -1q-2 0 -2 6t2 6q28 0 42 5.5t19 19.5t5 44v846q-40 59 -104 59
q-67 0 -98.5 -63.5t-31.5 -208.5v-358q0 -31 7 -45t27.5 -19t66.5 -5q2 0 2 -6t-2 -6l-64 1q-20 1 -62 1l-55 -1q-14 -1 -39 -1q-3 0 -3 6t3 6q31 0 45.5 5.5t20 19.5t5.5 44v337q0 120 31 196q-25 29 -56 45t-65 16q-68 0 -108.5 -61t-40.5 -175v-358q0 -31 7 -45t27.5 -19
t66.5 -5q2 0 2 -6t-2 -6l-64 1q-20 1 -62 1l-55 -1q-14 -1 -39 -1q-3 0 -3 6t3 6q31 0 45.5 5.5t20 19.5t5.5 44v337q0 131 63 202t168 71q67 0 116 -28q51 63 142 63q68 0 111 -30q6 14 6 31q0 3 6 3t6 -3v-419q45 47 87 69t85 22q41 0 76 -22zM929 28.5q29 21.5 45.5 61.5
t16.5 94q0 86 -37.5 134t-95.5 48q-38 0 -70.5 -19.5t-65.5 -54.5v-219q29 -32 62.5 -49t80.5 -17q35 0 64 21.5z" />
    <glyph glyph-name=".notdef" horiz-adv-x="501" 
d="M94 -275v1000h317v-1000h-317zM168 626h65v-38h-66v-32h166v32h-66v38h66v32h-165v-32zM167 426h166v34h-66v69h-100v-103zM200 460v35h33v-35h-33zM167 365h66v-36h-66v-34h100v70h66v33h-166v-33zM301 273h-134v-34h166v99h-32v-65zM233 160h34v24h34v-48h-101v80h-33
v-113h166v113h-100v-56zM167 -70h166v113h-166v-113zM200 -37v48h101v-48h-101zM167 -126h70l-70 -47v-33h166v33h-101l69 47h32v34h-166v-34z" />
    <glyph glyph-name=".null" horiz-adv-x="0" 
 />
    <glyph glyph-name="nonmarkingreturn" horiz-adv-x="333" 
 />
    <glyph glyph-name="space" unicode=" " horiz-adv-x="234" 
 />
    <glyph glyph-name="exclam" unicode="!" horiz-adv-x="243" 
d="M94.5 626.5q12.5 2.5 27.5 2.5t27.5 -2.5t11.5 -5.5q-15 -87 -22 -186t-14 -246q0 -2 -5 -2t-5 2q-5 144 -11.5 244.5t-21.5 187.5q0 3 12.5 5.5zM89 -0.5q-11 10.5 -11 28.5q0 17 11 27t29 10q19 0 29 -10t10 -27q0 -18 -10 -28.5t-29 -10.5q-18 0 -29 10.5z" />
    <glyph glyph-name="quotedbl" unicode="&#x22;" horiz-adv-x="278" 
d="M47 362zM47 609q0 9 16.5 18t34.5 12t17 -2l-50 -271q-1 -2 -5.5 -3t-4.5 2zM187 609q0 9 16.5 18t34.5 12t17 -2l-50 -271q-1 -2 -5.5 -3t-4.5 2z" />
    <glyph glyph-name="numbersign" unicode="#" horiz-adv-x="526" 
d="M466.5 307.5q1.5 -5.5 1.5 -12.5t-1.5 -13t-3.5 -6h-75l-29 -161h69q2 0 3.5 -6t1.5 -13t-1.5 -13t-3.5 -6h-76l-27 -155q0 -3 -10 -3q-8 0 -16 2t-7 4l27 152h-154l-27 -155q0 -3 -10 -3q-8 0 -16 2t-7 4l27 152h-69q-2 0 -3.5 6.5t-1.5 13.5t1.5 12.5t2.5 5.5h77
l28 161h-69q-2 0 -3.5 6.5t-1.5 13.5q0 6 1 11.5t3 5.5h77l30 169q0 2 7 2q8 0 17 -2.5t8 -5.5l-29 -163h154l30 169q0 2 7 2q8 0 17 -2.5t8 -5.5l-29 -163h69q2 0 3.5 -5.5zM326 115l28 161h-153l-29 -161h154z" />
    <glyph glyph-name="dollar" unicode="$" horiz-adv-x="408" 
d="M323.5 32.5q-36.5 -36.5 -101.5 -43.5v-91q0 -7 -10 -7t-10 7v90h-7q-64 0 -112 34q-5 3 -6.5 7t-2.5 12l-12 95q-1 4 5 5t7 -3q10 -53 46 -91t82 -44v217l-9 5q-39 21 -63 37t-40 40.5t-16 57.5q0 52 36.5 83.5t91.5 35.5v82q0 4 3 6t7 2t7 -2t3 -6v-81q41 0 90 -23
q10 -5 12 -7.5t3 -8.5l9 -85q0 -4 -5.5 -5t-6.5 3q-6 38 -34.5 70.5t-67.5 40.5v-200l15 -8q40 -21 64.5 -37t41.5 -41t17 -59q0 -51 -36.5 -87.5zM141 323q22 -25 61 -47v191h-1q-38 0 -60 -23t-22 -60q0 -36 22 -61zM284.5 24q26.5 21 26.5 66q0 40 -23.5 67t-65.5 52
v-207q36 1 62.5 22z" />
    <glyph glyph-name="percent" unicode="%" horiz-adv-x="574" 
d="M63.5 340.5q-34.5 37.5 -34.5 92.5q0 53 34.5 90t86.5 37t85 -37.5t33 -92.5q0 -54 -33.5 -90.5t-84.5 -36.5q-52 0 -86.5 37.5zM103 -6q-4 0 -12.5 5t-7.5 7l371 544q0 1 2 1q5 0 13 -5.5t7 -7.5l-371 -543zM203.5 340.5q11.5 27.5 11.5 82.5q0 62 -18 94.5t-53 32.5
q-36 0 -49 -30t-13 -84q0 -123 75 -123q35 0 46.5 27.5zM340.5 32.5q-34.5 37.5 -34.5 92.5q0 53 34.5 90.5t86.5 37.5t85 -38t33 -92q0 -55 -33.5 -91.5t-84.5 -36.5q-52 0 -86.5 37.5zM480.5 33.5q11.5 27.5 11.5 82.5q0 126 -71 126q-35 0 -48.5 -30t-13.5 -83
q0 -123 75 -123q35 0 46.5 27.5z" />
    <glyph glyph-name="ampersand" unicode="&#x26;" horiz-adv-x="692" 
d="M693.5 5.5q-0.5 -5.5 -3.5 -5.5h-94q-50 0 -148 78q-81 -90 -204 -90q-60 0 -100.5 21t-60 55.5t-19.5 74.5q0 59 36 103t103 92q-18 28 -29 51q-28 64 -28 109q0 40 20.5 75t56.5 56t82 21q45 0 79 -22t34 -77q0 -39 -19.5 -70.5t-48 -54.5t-78.5 -57l-21 -14
q74 -116 216 -224q43 70 43 148q0 31 -13.5 46.5t-55.5 15.5q-3 0 -3.5 6t3.5 6l202 1q4 0 4 -6t-4 -6q-35 0 -52.5 -6t-24.5 -17t-13 -32q-27 -96 -73 -165q59 -43 114 -70.5t96 -35.5q4 -1 3.5 -6.5zM244 363q61 43 93.5 81t32.5 88q0 45 -24 70t-66 25q-41 0 -63.5 -25
t-22.5 -77q0 -75 50 -162zM366 32.5q40 19.5 71 54.5l-11 9q-62 49 -118.5 108t-96.5 118q-44 -33 -68.5 -69.5t-24.5 -84.5q0 -43 21.5 -78.5t58.5 -56t83 -20.5q45 0 85 19.5z" />
    <glyph glyph-name="quotesingle" unicode="'" horiz-adv-x="138" 
d="M47 609q0 9 16.5 18t34.5 12t17 -2l-50 -271q-1 -2 -5.5 -3t-4.5 2z" />
    <glyph glyph-name="parenleft" unicode="(" horiz-adv-x="309" 
d="M124 559q54 113 150 166q2 1 4 -1.5t0 -4.5q-77 -71 -113 -174t-36 -241t36 -241t113 -174q2 -1 0 -4t-4 -2q-97 54 -150.5 166.5t-53.5 254.5t54 255z" />
    <glyph glyph-name="parenright" unicode=")" horiz-adv-x="309" 
d="M185 49q-54 -113 -150 -166q-2 -1 -4 1.5t0 4.5q77 71 113 174t36 241t-36 241t-113 174q-2 1 0 4t4 2q97 -54 150.5 -166.5t53.5 -254.5t-54 -255z" />
    <glyph glyph-name="asterisk" unicode="*" horiz-adv-x="448" 
d="M235 657q0 9 17.5 18t35 12t15.5 -2l-67 -156q-1 -3 -5.5 -3t-4.5 3zM84 559q-13 5 -13 44q0 14 2 23.5t5 6.5l129 -113q3 -1 1 -5.5t-4 -3.5zM251 503q-2 0 -3.5 4.5t0.5 5.5l126 31q9 2 22.5 -11.5t22 -29t2.5 -15.5zM116 382q-11 0 -26 4.5t-24.5 10t-5.5 7.5l146 87
l2 1q2 0 4.5 -3t1.5 -4l-83 -98q-4 -5 -15 -5zM233 481q-1 2 3 5.5t5 1.5l69 -110q5 -8 -4 -25t-21.5 -30t-13.5 -8z" />
    <glyph glyph-name="plus" unicode="+" horiz-adv-x="398" 
d="M367.5 202.5q1.5 -5.5 1.5 -12.5t-1.5 -13t-3.5 -6h-146v-146q0 -2 -7 -3.5t-15 -1.5q-16 0 -16 3v148h-146q-2 0 -3.5 6.5t-1.5 13.5q0 6 1 11.5t3 5.5h147v146q0 2 6 3.5t13 1.5t13 -1.5t6 -3.5v-146h146q2 0 3.5 -5.5z" />
    <glyph glyph-name="comma" unicode="," horiz-adv-x="222" 
d="M147.5 40.5q16.5 -21.5 16.5 -61.5q0 -39 -17.5 -72t-51.5 -66q-1 -1 -3 -1q-3 0 -5 3t0 5q49 50 49 118q0 26 -10 41q-7 -15 -29 -15q-17 0 -26.5 9.5t-9.5 25.5q0 35 41 35q29 0 45.5 -21.5z" />
    <glyph glyph-name="hyphen" unicode="-" horiz-adv-x="323" 
d="M28.5 174.5q-1.5 7.5 -1.5 15.5q0 17 3 17l261 47q2 1 3.5 -5.5t1.5 -13.5t-1.5 -13t-3.5 -7l-259 -47q-2 -1 -3.5 6.5z" />
    <glyph glyph-name="period" unicode="." horiz-adv-x="195" 
d="M69 -0.5q-11 10.5 -11 28.5q0 17 11 27t29 10q19 0 29 -10t10 -27q0 -18 -10 -28.5t-29 -10.5q-18 0 -29 10.5z" />
    <glyph glyph-name="slash" unicode="/" horiz-adv-x="339" 
d="M43 -161.5q-18 5.5 -17 9.5l252 882q2 5 19.5 -1t15.5 -11l-251 -881q-1 -4 -19 1.5z" />
    <glyph glyph-name="zero" unicode="0" horiz-adv-x="477" 
d="M135.5 14q-46.5 27 -72.5 74.5t-26 107.5q0 59 26 105t72.5 72t105.5 26q58 0 103 -26.5t70.5 -73.5t25.5 -106t-25.5 -106t-71 -73.5t-103.5 -26.5t-104.5 27zM347.5 48q32.5 49 32.5 133q0 100 -43 153t-107 53q-63 0 -98.5 -51t-35.5 -132q0 -58 19 -105t54 -73.5
t82 -26.5q64 0 96.5 49z" />
    <glyph glyph-name="one" unicode="1" horiz-adv-x="332" 
d="M56 6q0 6 2 6q44 0 64.5 5.5t28.5 19.5t8 44v188q0 41 -5 56.5t-21 15.5q-20 0 -75 -26l-2 -1q-3 0 -5 5t2 6l143 70q1 1 3 1q3 0 5 -2.5t2 -5.5v-307q0 -31 7 -45t27.5 -19t65.5 -5q3 0 3 -6t-3 -6q-32 0 -51 1l-73 1l-71 -1q-19 -1 -53 -1q-2 0 -2 6z" />
    <glyph glyph-name="two" unicode="2" horiz-adv-x="402" 
d="M175.5 128q49.5 47 72 85t22.5 75q0 42 -26 66.5t-66 24.5t-70 -30.5t-46 -90.5q0 -1 -4 -1q-9 0 -8 4l38 147q0 2 4 2q3 0 5.5 -1.5t1.5 -2.5q-1 -4 -1 -10q0 -16 15 -16q9 0 30 7q15 4 34 8t37 4q50 0 79.5 -27.5t29.5 -72.5q0 -34 -20.5 -68t-66.5 -77t-128 -106
q-4 -3 -2.5 -5t6.5 -2q117 0 160.5 3.5t61.5 17t26 48.5q1 2 6.5 1.5t5.5 -2.5l-14 -98q0 -4 -2.5 -7.5t-6.5 -3.5h-305q-4 0 -7 4t0 8q89 69 138.5 116z" />
    <glyph glyph-name="three" unicode="3" horiz-adv-x="388" 
d="M310.5 85.5q34.5 -39.5 34.5 -93.5q0 -50 -31.5 -101.5t-95.5 -96t-158 -69.5q-4 -1 -6.5 4.5t1.5 6.5q122 35 175 104t53 141q0 53 -27 90.5t-86 37.5q-28 0 -51 -6q-3 -1 -5 5t2 7q80 20 112.5 56t32.5 97q0 51 -23 81t-71 30q-44 0 -74 -29t-47 -92q-1 -1 -4 -1
q-9 0 -8 4l37 146q2 2 4 2q3 0 6 -1.5t2 -2.5q-2 -8 -2 -11q0 -17 17 -17q11 0 30 8q21 7 37 10.5t35 3.5q54 0 85 -33.5t31 -80.5q0 -48 -28 -91t-77 -64q65 -5 99.5 -44.5z" />
    <glyph glyph-name="four" unicode="4" horiz-adv-x="450" 
d="M415.5 36.5q1.5 -6.5 1.5 -14.5t-1.5 -14.5t-3.5 -6.5q-33 2 -89 4v-163q0 -11 -8 -14l-32 -16l-6 -2q-3 0 -3 8v188q-63 2 -246 2q-5 0 -8 4t1 8l287 376q2 2 6 2q3 0 6 -1.5t3 -4.5v-351q25 0 89 2q2 0 3.5 -6.5zM274 39v273l-205 -268q-3 -3 -1.5 -5t6.5 -2
q90 0 200 2z" />
    <glyph glyph-name="five" unicode="5" horiz-adv-x="409" 
d="M104 320l-22 -124q138 -1 202.5 -50.5t64.5 -136.5q0 -57 -28.5 -103.5t-90 -90t-162.5 -90.5h-1q-4 0 -6.5 4.5t1.5 6.5q127 61 178.5 123t51.5 133q0 83 -58 129t-166 46q-5 0 -8 3.5t-2 8.5l32 178q1 7 3 8.5t10 2.5q126 15 169 21t55.5 12.5t17.5 21.5q1 3 6.5 2.5
t4.5 -4.5l-20 -64q-4 -12 -9.5 -15t-18.5 -3l-189 -4q-13 0 -15 -15z" />
    <glyph glyph-name="six" unicode="6" horiz-adv-x="465" 
d="M396 246.5q32 -35.5 32 -87.5q0 -47 -26.5 -86.5t-72 -62.5t-99.5 -23q-84 0 -132.5 58t-48.5 163q0 93 42 183t121.5 161.5t187.5 108.5q4 1 6 -4t-1 -7q-97 -43 -165 -112.5t-102 -151t-34 -160.5q0 -95 41.5 -158t112.5 -63q52 0 83.5 34.5t31.5 93.5q0 55 -27 89.5
t-79 34.5q-28 0 -52 -11.5t-55 -39.5q-1 -1 -3 -1q-3 0 -5.5 3t-1.5 5q55 69 146 69q68 0 100 -35.5z" />
    <glyph glyph-name="seven" unicode="7" horiz-adv-x="429" 
d="M147.5 -237q-7.5 -6 -9.5 -7l-42 -31q-2 -1 -5 2t-2 5l268 606q3 7 -5 7q-150 0 -208 -4t-77.5 -17t-29.5 -47q0 -2 -4 -2q-3 0 -5.5 1.5t-1.5 3.5l32 133q1 2 7 1.5t5 -2.5q-1 -4 -1 -10q0 -10 9.5 -13t38.5 -3h265q4 0 7.5 -4.5t1.5 -8.5l-232 -593q-4 -11 -11.5 -17z
" />
    <glyph glyph-name="eight" unicode="8" horiz-adv-x="489" 
d="M375.5 294q32.5 -23 54 -56t21.5 -77q0 -49 -28.5 -89t-76 -62.5t-104.5 -22.5t-101 22.5t-68 60t-24 79.5q0 61 41.5 114t99.5 83q-42 24 -64 49.5t-22 60.5q0 38 24 64.5t60 40t72 13.5q38 0 67.5 -15.5t45.5 -39.5t16 -50q0 -32 -24.5 -65t-70.5 -62q49 -25 81.5 -48z
M168.5 429.5q17.5 -23.5 44 -41t71.5 -40.5q28 25 41.5 49.5t13.5 55.5q0 48 -29 77t-74 29q-37 0 -61 -20t-24 -56q0 -30 17.5 -53.5zM364.5 38q37.5 34 37.5 94q0 48 -23 82.5t-56 57t-86 48.5l-35 19q-47 -27 -72 -69.5t-25 -94.5q0 -44 21 -83.5t59 -63.5t85 -24
q57 0 94.5 34z" />
    <glyph glyph-name="nine" unicode="9" horiz-adv-x="465" 
d="M99 130q-32 20 -47 50.5t-15 63.5q0 45 24 80t65.5 55t91.5 20q60 0 104.5 -29.5t69 -82.5t24.5 -123q0 -91 -42 -179.5t-121.5 -157.5t-187.5 -102q-3 -1 -5.5 4t1.5 7q96 38 164 105.5t102 147t34 155.5q0 54 -16.5 108.5t-52.5 91.5t-91 37q-50 0 -79.5 -31.5
t-29.5 -87.5q0 -54 30 -90.5t86 -36.5q28 0 49 8.5t48 30.5q1 1 3 1q3 0 6 -3t2 -5q-51 -57 -136 -57q-49 0 -81 20z" />
    <glyph glyph-name="colon" unicode=":" horiz-adv-x="195" 
d="M58 0zM69 -0.5q-11 10.5 -11 28.5q0 17 11 27t29 10q19 0 29 -10t10 -27q0 -18 -10 -28.5t-29 -10.5q-18 0 -29 10.5zM69 280.5q-11 10.5 -11 28.5q0 17 11 27t29 10q19 0 29 -10t10 -27q0 -18 -10 -28.5t-29 -10.5q-18 0 -29 10.5z" />
    <glyph glyph-name="semicolon" unicode=";" horiz-adv-x="222" 
d="M60 0zM147.5 40.5q16.5 -21.5 16.5 -61.5q0 -39 -17.5 -72t-51.5 -66q-1 -1 -3 -1q-3 0 -5 3t0 5q49 50 49 118q0 26 -10 41q-7 -15 -29 -15q-17 0 -26.5 9.5t-9.5 25.5q0 35 41 35q29 0 45.5 -21.5zM71 280.5q-11 10.5 -11 28.5q0 17 11 27t29 10q19 0 29 -10t10 -27
q0 -18 -10 -28.5t-29 -10.5q-18 0 -29 10.5z" />
    <glyph glyph-name="less" unicode="&#x3c;" horiz-adv-x="407" 
d="M377 41q0 -19 -7 -16l-334 148q-5 3 -5 17q0 15 5 17l334 147q3 2 5 -2.5t2 -12.5q0 -19 -7 -23l-294 -126l294 -126q7 -3 7 -23z" />
    <glyph glyph-name="equal" unicode="=" horiz-adv-x="468" 
d="M30.5 247.5q-1.5 6.5 -1.5 13.5q0 6 1 11.5t3 5.5h401q2 0 3.5 -5.5t1.5 -12.5t-1.5 -13t-3.5 -6h-400q-2 0 -3.5 6.5zM30.5 107.5q-1.5 6.5 -1.5 13.5q0 6 1 11.5t3 5.5h401q2 0 3.5 -5.5t1.5 -12.5t-1.5 -13t-3.5 -6h-400q-2 0 -3.5 6.5z" />
    <glyph glyph-name="greater" unicode="&#x3e;" horiz-adv-x="407" 
d="M376 189q0 -14 -5 -17l-334 -147q-3 -1 -5 3.5t-2 11.5q0 8 2 15t5 8l294 126l-294 126q-3 1 -5 8t-2 15t2 13t5 3l334 -148q5 -2 5 -17z" />
    <glyph glyph-name="question" unicode="?" horiz-adv-x="327" 
d="M122 600q-9 -13 -12 -35q-4 -18 -11 -28t-23 -10q-14 0 -22 9.5t-8 21.5q0 27 34 47t81 20q57 0 94 -31t37 -89q0 -42 -17.5 -69.5t-53.5 -63.5t-50 -63t-14 -61q0 -23 6 -55q1 -3 -4.5 -4t-6.5 2q-11 26 -18.5 61.5t-7.5 57.5q0 31 13 51.5t39 45.5q28 27 42.5 50
t14.5 60q0 43 -22 69.5t-56 26.5q-26 0 -35 -13zM117 -0.5q-11 10.5 -11 28.5q0 17 11 27t29 10q19 0 29 -10t10 -27q0 -18 -10 -28.5t-29 -10.5q-18 0 -29 10.5z" />
    <glyph glyph-name="at" unicode="@" horiz-adv-x="717" 
d="M427 66q-13 16 -13 45q0 7 2 25l12 63q-35 -68 -79 -109.5t-82 -41.5q-22 0 -36 14.5t-14 44.5q0 12 1 18q8 54 41 107.5t76.5 87.5t82.5 34q30 0 46 -19q11 11 14 26q2 2 8 2q12 0 10 -3l-41 -224q-4 -24 -4 -32q0 -18 8 -27t29 -9q29 0 57 20.5t46 58.5t18 89
q0 63 -32.5 116.5t-88.5 84.5t-124 31q-75 0 -132 -37t-87 -99t-30 -134q0 -78 35 -137.5t97.5 -92.5t143.5 -33q48 0 83.5 9.5t82.5 35.5h1q2 0 4.5 -3.5t0.5 -4.5q-86 -67 -203 -67q-80 0 -144.5 32.5t-102 93t-37.5 142.5q0 90 45 163t119 114t156 41q72 0 128 -30.5
t86.5 -82.5t30.5 -114q0 -55 -24 -104.5t-64.5 -79.5t-85.5 -30q-27 0 -40 16zM348 109q32 28 57.5 72t35.5 88q2 10 2 16q0 20 -12 33t-35 13q-25 0 -54 -24.5t-51.5 -65.5t-29.5 -88q-3 -18 -3 -31q0 -41 30 -41q28 0 60 28z" />
    <glyph glyph-name="A" unicode="A" horiz-adv-x="698" 
d="M698 6q0 -6 -4 -6q-18 0 -58 2q-38 2 -56 2q-21 0 -55 -2q-32 -2 -48 -2q-4 0 -4 6t4 6q41 0 59 7.5t18 25.5q0 14 -11 39l-119 255h-191l-90 -216q-14 -34 -14 -56q0 -29 24 -42t75 -13q5 0 5 -6t-5 -6q-18 0 -52 2q-38 2 -66 2q-25 0 -59 -2q-30 -2 -49 -2q-5 0 -5 6
t5 6q28 0 47.5 10t37 36t37.5 74l209 503q2 3 6.5 3t5.5 -3l232 -498q23 -51 41 -77.5t35.5 -37t40.5 -10.5q4 0 4 -6zM241 358h175l-93 198z" />
    <glyph glyph-name="B" unicode="B" horiz-adv-x="549" 
d="M451 301q48 -47 48 -116q0 -54 -25 -97t-69 -67.5t-97 -24.5q-34 0 -72 3q-14 1 -33 2t-43 1l-66 -1q-18 -1 -50 -1q-2 0 -2 6t2 6q40 0 58.5 5t25.5 19.5t7 44.5v463q0 30 -6.5 44t-25 19.5t-57.5 5.5q-3 0 -3 6t3 6l48 -1q40 -2 66 -2q18 0 34 1t28 2q31 3 55 3
q83 0 122.5 -37.5t39.5 -95.5q0 -49 -31 -85.5t-83 -56.5q78 -5 126 -52zM213 611q-13 -4 -19.5 -19t-6.5 -50v-190l47 -1q79 0 115 37.5t36 99.5q0 56 -31.5 91.5t-99.5 35.5q-28 0 -41 -4zM404.5 50.5q36.5 38.5 36.5 109.5q0 76 -46.5 123.5t-125.5 48.5q-37 1 -82 -2
v-249q0 -27 8.5 -41.5t31.5 -21t67 -6.5q74 0 110.5 38.5z" />
    <glyph glyph-name="C" unicode="C" horiz-adv-x="669" 
d="M511.5 626q49.5 -10 79.5 -27q8 -5 10.5 -9.5t3.5 -14.5l11 -105q0 -3 -5 -3.5t-6 2.5q-36 146 -231 146q-78 0 -137.5 -33.5t-92.5 -94.5t-33 -141q0 -94 41 -173.5t109 -126t147 -46.5q74 0 127.5 39t78.5 119q0 3 4 3q3 0 5.5 -1t2.5 -3l-14 -107q-2 -12 -4.5 -15.5
t-11.5 -7.5q-89 -39 -191 -39q-120 0 -200 48.5t-118 124t-38 158.5q0 91 51 163.5t135 113t178 40.5q49 0 98.5 -10z" />
    <glyph glyph-name="D" unicode="D" horiz-adv-x="688" 
d="M232 -1q-14 1 -34.5 2t-45.5 1l-66 -1q-18 -1 -50 -1q-2 0 -2 6t2 6q39 0 57.5 5t25.5 19.5t7 44.5v463q0 30 -6.5 44t-25 19.5t-57.5 5.5q-2 0 -2 6t2 6l49 -1q42 -2 66 -2q35 0 71 3q44 2 60 2q105 0 186 -40t125.5 -109t44.5 -155q0 -97 -46.5 -171.5t-124.5 -115
t-171 -40.5q-29 0 -65 3zM436 43q65 34 101.5 100t36.5 158q0 88 -34.5 159t-99 112.5t-148.5 41.5q-44 0 -67.5 -5t-34.5 -20.5t-11 -46.5v-450q0 -30 9 -48t32 -26.5t67 -8.5q84 0 149 34z" />
    <glyph glyph-name="E" unicode="E" horiz-adv-x="533" 
d="M476 148.5q6 -0.5 6 -3.5q-9 -63 -9 -130q0 -8 -3.5 -11.5t-12.5 -3.5h-413q-2 0 -2 6t2 6q39 0 57.5 5t25 19.5t6.5 44.5v463q0 30 -6.5 44t-25 19.5t-57.5 5.5q-2 0 -2 6t2 6h396q9 0 9 -9l2 -121q0 -3 -5.5 -3t-5.5 3q0 51 -27 81t-71 30h-69q-38 0 -56 -5t-24.5 -19
t-6.5 -44v-203h132q46 0 64 15.5t18 53.5q0 2 6 2t6 -2l-1 -79q0 -29 1 -43l1 -47q0 -2 -6 -2t-6 2q0 45 -19 63t-67 18h-129v-231q0 -29 6.5 -42.5t24 -18.5t56.5 -5h92q40 0 68.5 35t36.5 92q0 3 6 2.5z" />
    <glyph glyph-name="F" unicode="F" horiz-adv-x="506" 
d="M451 495q0 -3 -5.5 -3t-5.5 3q0 51 -27 81t-71 30h-69q-37 0 -55 -5t-25 -18t-7 -40v-220h109q51 0 72 15.5t21 53.5q0 2 6 2t6 -2l-1 -79q0 -29 1 -43l1 -47q0 -2 -6 -2t-6 2q0 45 -21.5 63t-76.5 18h-105v-219q0 -32 9 -46.5t34.5 -20.5t81.5 -6q3 0 3 -6t-3 -6
q-41 0 -64 1l-87 1l-66 -1q-18 -1 -50 -1q-2 0 -2 6t2 6q39 0 57.5 5t25 19.5t6.5 44.5v463q0 30 -6.5 44t-25 19.5t-57.5 5.5q-2 0 -2 6t2 6h396q9 0 9 -9z" />
    <glyph glyph-name="G" unicode="G" horiz-adv-x="713" 
d="M214.5 30q-80.5 42 -123 114t-42.5 161q0 97 49.5 172t136 117t195.5 42q49 0 92.5 -10t72.5 -28q7 -5 8.5 -8.5t2 -8t0.5 -6.5l12 -105q0 -3 -5.5 -3.5t-6.5 2.5q-19 71 -75 108.5t-142 37.5q-132 0 -205 -73t-73 -202q0 -96 41 -172.5t113.5 -119.5t162.5 -43
q54 0 83.5 9t43 35t13.5 77q0 52 -7 72.5t-30 27.5t-80 7q-6 0 -6 8q0 3 1.5 5.5t3.5 2.5q77 -5 124 -5q45 0 96 3q2 0 3.5 -2.5t1.5 -4.5q0 -7 -5 -7q-26 1 -37 -6.5t-14 -30.5t-3 -80q0 -45 3.5 -64t3.5 -24q0 -6 -2 -8t-9 -4q-117 -28 -208 -28q-109 0 -189.5 42z" />
    <glyph glyph-name="H" unicode="H" horiz-adv-x="758" 
d="M723 6q0 -6 -3 -6q-31 0 -48 1l-67 1l-69 -1q-17 -1 -47 -1q-3 0 -3 6t3 6q40 0 58 5t24.5 19t6.5 45v235h-399v-235q0 -31 6.5 -45t24.5 -19t58 -5q2 0 2 -6t-2 -6q-30 0 -48 1l-68 1l-66 -1q-18 -1 -50 -1q-2 0 -2 6t2 6q39 0 57.5 5t25.5 19.5t7 44.5v463
q0 30 -6.5 44t-25 19.5t-57.5 5.5q-2 0 -2 6t2 6l49 -1q42 -2 66 -2q27 0 69 2l47 1q2 0 2 -6t-2 -6q-39 0 -57.5 -6t-25 -20.5t-6.5 -44.5v-207h399v207q0 30 -6.5 44.5t-25 20.5t-57.5 6q-3 0 -3 6t3 6l47 -1q42 -2 69 -2q25 0 67 2l48 1q3 0 3 -6t-3 -6q-39 0 -57.5 -5.5
t-25.5 -19.5t-7 -44v-463q0 -30 7 -44.5t25.5 -19.5t57.5 -5q3 0 3 -6z" />
    <glyph glyph-name="I" unicode="I" horiz-adv-x="330" 
d="M198.5 36q6.5 -14 24.5 -19t58 -5q2 0 2 -6t-2 -6q-30 0 -47 1l-70 1l-67 -1q-18 -1 -49 -1q-3 0 -3 6t3 6q39 0 57.5 5t25.5 19.5t7 44.5v463q0 30 -7 44t-25.5 19.5t-57.5 5.5q-3 0 -3 6t3 6l49 -1q42 -2 67 -2q28 0 70 2l47 1q2 0 2 -6t-2 -6q-39 0 -57.5 -6
t-25 -20.5t-6.5 -44.5v-461q0 -31 6.5 -45z" />
    <glyph glyph-name="J" unicode="J" horiz-adv-x="318" 
d="M277 619q0 -6 -2 -6q-34 0 -50 -6t-21.5 -20.5t-5.5 -44.5v-576q0 -96 -43.5 -153t-127.5 -57q-33 0 -51.5 10.5t-18.5 27.5q0 13 7.5 21t21.5 8q15 0 23 -6t18 -18q8 -12 16 -18t22 -6q39 0 59 43.5t20 138.5v587q0 30 -7.5 44t-28.5 19.5t-66 5.5q-2 0 -2 6t2 6l57 -1
q46 -2 71 -2t63 2l42 1q2 0 2 -6z" />
    <glyph glyph-name="K" unicode="K" horiz-adv-x="649" 
d="M638 6q0 -6 -3 -6h-112q-35 0 -42 4t-36.5 46t-71.5 95l-159 197l-35 -34v-227q0 -31 6.5 -45t24.5 -19t58 -5q2 0 2 -6t-2 -6q-30 0 -48 1l-68 1l-66 -1q-18 -1 -50 -1q-2 0 -2 6t2 6q39 0 57.5 5t25.5 19.5t7 44.5v463q0 30 -6.5 44t-25 19.5t-57.5 5.5q-2 0 -2 6t2 6
l49 -1q42 -2 66 -2q27 0 69 2l47 1q2 0 2 -6t-2 -6q-39 0 -57.5 -6t-25 -20.5t-6.5 -44.5v-211l220 219q34 34 34 47q0 9 -13.5 12.5t-44.5 3.5q-2 0 -2 6t2 6l42 -1q38 -2 71 -2q31 0 65 2l35 1q3 0 3 -6t-3 -6q-41 0 -84.5 -15.5t-81.5 -53.5l-170 -166l143 -180
q76 -95 116 -134t61 -45.5t63 -6.5q3 0 3 -6z" />
    <glyph glyph-name="L" unicode="L" horiz-adv-x="530" 
d="M178 85q0 -29 6.5 -42.5t24 -18.5t55.5 -5h128q99 0 117 127q0 3 5.5 2.5t5.5 -3.5q-9 -79 -9 -130q0 -8 -3 -11.5t-12 -3.5h-460q-2 0 -2 6t2 6q39 0 57.5 5t25 19.5t6.5 44.5v463q0 30 -6.5 44t-25 19.5t-57.5 5.5q-2 0 -2 6t2 6l49 -1q42 -2 66 -2q27 0 69 2l47 1
q2 0 2 -6t-2 -6q-39 0 -57.5 -5.5t-25 -20t-6.5 -44.5v-458z" />
    <glyph glyph-name="M" unicode="M" horiz-adv-x="830" 
d="M810 6q0 -6 -3 -6q-31 0 -49 1l-67 1l-62 -1q-15 -1 -42 -1q-2 0 -2 6t2 6q35 0 51.5 5.5t22 19.5t3.5 44l-17 465l-234 -539q-2 -4 -8 -4q-5 0 -9 4l-244 535l-1 2l-8 -440q-1 -52 17 -72t67 -20q2 0 2 -6t-2 -6q-28 0 -43 1l-54 1l-49 -1q-13 -1 -39 -1q-2 0 -2 6t2 6
q42 0 59.5 20.5t18.5 71.5l10 474q-31 35 -81 35q-2 0 -2 6t2 6l34 -1q10 -1 26 -1t27 1t17 1q14 0 22 -9.5t24 -42.5l225 -486l224 513q5 11 13.5 18t16.5 7q4 0 13 -1t25 -1l45 1q10 1 31 1q2 0 2 -6t-2 -6q-52 0 -73.5 -13.5t-20.5 -53.5l19 -465q1 -31 7.5 -45t25 -19
t57.5 -5q3 0 3 -6z" />
    <glyph glyph-name="N" unicode="N" horiz-adv-x="725" 
d="M702 619q0 -6 -3 -6q-43 0 -60.5 -21t-17.5 -72v-531q0 -2 -5 -3t-7 1l-452 556l-17 19v-458q0 -51 17 -71.5t59 -20.5q3 0 3 -6t-3 -6q-24 0 -37 1l-48 1l-49 -1q-13 -1 -39 -1q-2 0 -2 6t2 6q43 0 59 20t16 72v479q-35 30 -72 30q-3 0 -3 6t3 6l36 -1q11 -1 31 -1
q17 0 28 1t17 1q7 0 11.5 -3.5t10.5 -14.5q11 -18 24 -34l395 -491v438q0 51 -16 72t-58 21q-2 0 -2 6t2 6l38 -1q30 -2 48 -2q17 0 49 2l39 1q3 0 3 -6z" />
    <glyph glyph-name="O" unicode="O" horiz-adv-x="766" 
d="M200.5 31.5q-72.5 43.5 -112 118t-39.5 162.5q0 103 52 176.5t133.5 110.5t166.5 37q95 0 167 -44.5t110.5 -117.5t38.5 -155q0 -91 -48 -167t-128.5 -120t-174.5 -44q-93 0 -165.5 43.5zM530 41q57 33 90 97t33 153q0 94 -36.5 167.5t-103 114.5t-154.5 41
q-116 0 -181 -72t-65 -196q0 -93 36.5 -170.5t102.5 -122.5t150 -45q71 0 128 33z" />
    <glyph glyph-name="P" unicode="P" horiz-adv-x="540" 
d="M195 38.5q9 -14.5 34.5 -20.5t81.5 -6q3 0 3 -6t-3 -6q-41 0 -64 1l-87 1l-66 -1q-18 -1 -50 -1q-2 0 -2 6t2 6q39 0 57.5 5t25 19.5t6.5 44.5v463q0 30 -6.5 44t-25 19.5t-57.5 5.5q-2 0 -2 6t2 6l49 -1q42 -2 66 -2t55 3q78 3 85 3q88 0 143 -40.5t55 -123.5
q0 -67 -33 -112.5t-83.5 -67.5t-104.5 -22q-30 0 -49 5q-3 0 -3 5q0 3 1.5 6t3.5 2q16 -4 36 -4q71 0 120.5 43t49.5 125q0 53 -21 91.5t-57.5 59t-80.5 20.5q-41 0 -58 -4t-24.5 -18.5t-7.5 -50.5v-457q0 -32 9 -46.5z" />
    <glyph glyph-name="Q" unicode="Q" horiz-adv-x="766" 
d="M746 -156q2 0 3.5 -4.5t-0.5 -5.5q-53 -12 -86 -12q-68 0 -143 44t-129 123q-8 -1 -25 -1q-93 0 -165.5 43.5t-112 118t-39.5 162.5q0 103 52 176.5t133.5 110.5t166.5 37q95 0 167 -44.5t110.5 -117.5t38.5 -155q0 -75 -33.5 -141t-92 -112.5t-131.5 -65.5
q43 -70 114 -114.5t135 -44.5q23 0 36 3h1zM149.5 175.5q36.5 -77.5 102.5 -122.5t150 -45q71 0 128 33t90 97t33 153q0 94 -36.5 167.5t-103 114.5t-154.5 41q-116 0 -181 -72t-65 -196q0 -93 36.5 -170.5z" />
    <glyph glyph-name="R" unicode="R" horiz-adv-x="667" 
d="M679 6q0 -6 -3 -6h-116q-26 0 -97 86.5t-172 239.5q-30 -8 -61 -8q-17 0 -43 2v-239q0 -31 6.5 -45t24.5 -19t58 -5q3 0 3 -6t-3 -6q-30 0 -48 1l-68 1l-66 -1q-18 -1 -50 -1q-2 0 -2 6t2 6q40 0 58.5 5t25.5 19.5t7 44.5v463q0 30 -6.5 44t-25 19.5t-57.5 5.5q-3 0 -3 6
t3 6l48 -1q40 -2 66 -2q18 0 34 1t28 2q31 3 55 3q79 0 121 -33t42 -92q0 -48 -28 -90.5t-74 -67.5q87 -128 145 -199t103.5 -102.5t89.5 -31.5q3 0 3 -6zM247 340q73 0 105 30.5t32 98.5q0 76 -35.5 111t-94.5 35q-28 0 -41 -4t-19.5 -19t-6.5 -50v-198q38 -4 60 -4z" />
    <glyph glyph-name="S" unicode="S" horiz-adv-x="485" 
d="M157 435q19 -29 46.5 -48.5t76.5 -48.5q52 -31 80.5 -51.5t49 -52.5t20.5 -77q0 -47 -23 -85.5t-68.5 -61t-111.5 -22.5q-35 0 -66.5 7.5t-69.5 26.5q-5 3 -6.5 7t-2.5 12l-15 130v1q0 4 5 4.5t6 -3.5q10 -69 53 -120t118 -51q53 0 89.5 29t36.5 91q0 45 -20 77.5
t-48.5 54t-77.5 50.5q-48 28 -75.5 49t-47 52.5t-19.5 75.5q0 50 25.5 85t66.5 52.5t88 17.5q55 0 114 -24q15 -6 15 -17l9 -106q0 -4 -5.5 -4t-6.5 4q-4 52 -39 93t-100 41q-60 0 -88 -35t-28 -84q0 -40 19 -69z" />
    <glyph glyph-name="T" unicode="T" horiz-adv-x="632" 
d="M88 578q-29 -30 -39 -107q0 -2 -6 -2t-6 2q4 27 9 86.5t5 89.5q0 5 6 5t6 -5q0 -22 53 -22q86 -3 201 -3q59 0 125 2l68 1q36 0 53 5t22 20q1 4 6 4t5 -4q-3 -28 -6 -85.5t-3 -93.5q0 -2 -6 -2t-6 2q0 53 -11 82t-37 42t-73 13q-52 0 -73 -3.5t-28.5 -16.5t-7.5 -46v-461
q0 -31 7 -45t28 -19t66 -5q2 0 2 -6t-2 -6q-33 0 -52 1l-77 1l-73 -1q-20 -1 -55 -1q-2 0 -2 6t2 6q45 0 66 5t28.5 19.5t7.5 44.5v463q0 33 -8 45.5t-28.5 15.5t-74.5 3q-63 0 -92 -30z" />
    <glyph glyph-name="U" unicode="U" horiz-adv-x="697" 
d="M551.5 590.5q-20.5 22.5 -64.5 22.5q-3 0 -3 6t3 6l42 -1q34 -2 55 -2q18 0 48 2l41 1q2 0 2 -6t-2 -6q-41 0 -60 -22.5t-19 -70.5v-286q0 -117 -63 -182t-170 -65q-74 0 -129 29.5t-85 83.5t-30 125v319q0 30 -6.5 44t-25 19.5t-57.5 5.5q-2 0 -2 6t2 6l48 -1
q42 -2 67 -2q27 0 69 2l46 1q3 0 3 -6t-3 -6q-39 0 -57 -6t-24.5 -20.5t-6.5 -44.5v-282q0 -117 55 -180.5t154 -63.5q91 0 142 57.5t51 159.5v287q0 48 -20.5 70.5z" />
    <glyph glyph-name="V" unicode="V" horiz-adv-x="667" 
d="M673 619q0 -6 -3 -6q-34 0 -56.5 -14.5t-39.5 -54.5l-220 -543q-1 -4 -11 -4q-8 0 -11 4l-247 541q-17 39 -36.5 55t-50.5 16q-3 0 -3 6t3 6l43 -1q28 -2 42 -2q29 0 69 2l43 1q3 0 3 -6t-3 -6q-31 0 -46.5 -7t-15.5 -24q0 -12 9 -30l218 -481l193 479q7 17 7 29
q0 18 -18.5 26t-60.5 8q-3 0 -3 6t3 6l40 -1q34 -2 60 -2q21 0 47 2l42 1q3 0 3 -6z" />
    <glyph glyph-name="W" unicode="W" horiz-adv-x="936" 
d="M942 619q0 -6 -3 -6q-34 0 -56.5 -14.5t-39.5 -54.5l-220 -543q-1 -4 -11 -4q-8 0 -11 4l-131 287l-116 -287q-1 -4 -11 -4q-8 0 -11 4l-247 541q-17 39 -36.5 55t-50.5 16q-3 0 -3 6t3 6l43 -1q28 -2 42 -2q29 0 69 2l43 1q3 0 3 -6t-3 -6q-31 0 -47 -7t-16 -25
q0 -10 8 -29l221 -477l97 239l-104 228q-17 39 -36.5 55t-50.5 16q-3 0 -3 6t3 6l43 -1q28 -2 42 -2q21 0 49 2l28 1q3 0 3 -6t-3 -6q-20 0 -28 -3t-8 -12t16 -46l80 -172l69 170q9 21 9 35q0 15 -11.5 21.5t-36.5 6.5q-2 0 -2 6t2 6l28 -1q20 -2 38 -2q20 0 46 2l43 1
q2 0 2 -6t-2 -6q-34 0 -57 -14.5t-39 -54.5l-77 -190l129 -279l193 475q7 15 7 29q0 18 -18.5 26t-61.5 8q-3 0 -3 6t3 6l40 -1q34 -2 60 -2q21 0 47 2l42 1q3 0 3 -6z" />
    <glyph glyph-name="X" unicode="X" horiz-adv-x="653" 
d="M635 6q0 -6 -2 -6q-26 0 -41 1l-53 1l-75 -1q-18 -1 -49 -1q-2 0 -2 6t2 6q30 0 43 4t13 14q0 8 -9 21l-155 235l-139 -194q-20 -29 -20 -47q0 -33 61 -33q3 0 3 -6t-3 -6q-30 0 -45 1l-67 1l-41 -1q-11 -1 -36 -1q-3 0 -3 6t3 6q34 0 66 20.5t61 59.5l151 207l-161 243
q-26 39 -52 55t-62 16q-2 0 -2 6t2 6q12 0 38 -2l36 -1q32 0 80 2l52 1q3 0 3 -6t-3 -6q-30 0 -43 -4.5t-13 -14.5q0 -7 9 -21l152 -228l127 179q24 35 24 55q0 34 -58 34q-3 0 -3 6t3 6l45 -1q38 -2 67 -2q17 0 41 2l36 1q3 0 3 -6t-3 -6q-68 0 -134 -90l-140 -191
l166 -249q26 -40 53.5 -55.5t71.5 -15.5q2 0 2 -6z" />
    <glyph glyph-name="Y" unicode="Y" horiz-adv-x="607" 
d="M613 619q0 -6 -2 -6q-37 0 -72 -23.5t-63 -66.5l-141 -214v-228q0 -31 6 -45t24 -19t58 -5q3 0 3 -6t-3 -6q-30 0 -47 1l-68 1l-68 -1q-18 -1 -48 -1q-3 0 -3 6t3 6q39 0 57.5 5t25.5 19.5t7 44.5v213l-171 248q-26 39 -51 55t-62 16q-3 0 -3 6t3 6l37 -1q24 -2 36 -2
q33 0 81 2l52 1q2 0 2 -6t-2 -6q-30 0 -43.5 -4.5t-13.5 -14.5q0 -6 10 -21l168 -241l128 194q22 36 22 55q0 32 -54 32q-2 0 -2 6t2 6l45 -1q38 -2 67 -2q17 0 41 2l37 1q2 0 2 -6z" />
    <glyph glyph-name="Z" unicode="Z" horiz-adv-x="593" 
d="M460 600q3 5 2.5 6.5t-7.5 1.5q-196 0 -262 -5t-88.5 -24t-41.5 -77q0 -2 -4 -2q-3 0 -6 1.5t-2 2.5l40 151q0 1 4 1q10 0 8 -3q-1 -3 -1 -8q0 -12 11.5 -16t46.5 -4h365q5 0 7.5 -5t-0.5 -8l-401 -585l-3 -6q0 -2 8 -2h268q70 0 103 25t43 86q1 2 6 2t5 -2l-14 -122
q0 -3 -2.5 -6.5t-6.5 -3.5q-149 2 -478 2q-5 0 -7 4.5t1 8.5z" />
    <glyph glyph-name="bracketleft" unicode="[" horiz-adv-x="274" 
d="M94 715q0 7 1.5 8.5t7.5 1.5h133q3 0 3 -6t-3 -6q-41 0 -60.5 -6t-26.5 -20.5t-7 -44.5v-676q0 -30 7 -44.5t26.5 -20.5t60.5 -6q3 0 3 -6t-3 -6h-133q-6 0 -7.5 2t-1.5 9v821z" />
    <glyph glyph-name="backslash" unicode="\" horiz-adv-x="339" 
d="M26 718q-2 5 15.5 11t19.5 1l252 -882q2 -4 -16 -9.5t-20 -1.5z" />
    <glyph glyph-name="bracketright" unicode="]" horiz-adv-x="274" 
d="M178.5 -115q-1.5 -2 -7.5 -2h-133q-3 0 -3 6t3 6q41 0 60.5 6t26.5 20.5t7 44.5v676q0 30 -7 44.5t-26.5 20.5t-60.5 6q-3 0 -3 6t3 6h133q6 0 7.5 -1.5t1.5 -8.5v-821q0 -7 -1.5 -9z" />
    <glyph glyph-name="asciicircum" unicode="^" horiz-adv-x="392" 
d="M333 379q0 -2 -4 -4t-5 0l-128 182l-128 -182q-1 -1 -3 -1t-5 2.5t-2 3.5l127 249q1 5 11 5t11 -5l126 -249v-1z" />
    <glyph glyph-name="underscore" unicode="_" horiz-adv-x="398" 
d="M30.5 -68.5q-1.5 6.5 -1.5 13.5t1.5 12.5t2.5 5.5h331q2 0 3.5 -6t1.5 -13t-1.5 -13t-3.5 -6h-330q-2 0 -3.5 6.5z" />
    <glyph glyph-name="grave" unicode="`" horiz-adv-x="213" 
d="M57.5 730.5q12.5 -1.5 26.5 -6t14 -8.5l56 -240q2 -2 -3.5 -3.5t-6.5 1.5l-97 253q-2 5 10.5 3.5z" />
    <glyph glyph-name="a" unicode="a" horiz-adv-x="419" 
d="M414 54q4 0 5 -4.5t-3 -6.5l-103 -49q-4 -2 -8 -2q-11 0 -20.5 18t-11.5 49l-66 -36q-33 -17 -51 -23.5t-36 -6.5q-31 0 -47 16.5t-16 40.5q0 25 20 41.5t70 34.5l126 45v84q0 68 -18.5 94t-49.5 26q-36 0 -56 -26t-25 -58q-2 -14 -8.5 -23.5t-23.5 -9.5q-14 0 -22 7
t-8 20q0 22 28.5 48t69.5 44t75 18q38 0 61 -27.5t23 -82.5v-177q0 -37 8.5 -53t29.5 -16q19 0 55 15h2zM273 71v3v86l-116 -44q-22 -8 -31 -19t-9 -28q0 -21 12 -32.5t32 -11.5q18 0 38 9z" />
    <glyph glyph-name="b" unicode="b" horiz-adv-x="508" 
d="M390 378q36 -21 58 -62.5t22 -101.5q0 -72 -31.5 -123.5t-82.5 -77.5t-107 -26q-76 0 -134 43l-73 -34h-2q-4 0 -5 3.5t2 6.5q34 24 47 42t13 55v496q0 37 -7.5 53t-25.5 16q-17 0 -48 -14h-2q-3 0 -4.5 5t2.5 6l120 59l5 1q2 0 4.5 -2t2.5 -5v-411q37 41 77.5 66.5
t89.5 25.5q43 0 79 -21zM379 51.5q35 45.5 35 130.5q0 90 -37 139.5t-96 49.5q-37 0 -70 -21.5t-67 -58.5v-168q0 -40 22.5 -66.5t54 -38.5t61.5 -12q62 0 97 45.5z" />
    <glyph glyph-name="c" unicode="c" horiz-adv-x="407" 
d="M122.5 16.5q-43.5 28.5 -64.5 73.5t-21 95q0 64 31.5 111.5t81 73t101.5 25.5q43 0 78.5 -17t35.5 -40q0 -12 -8 -20.5t-21 -8.5q-23 0 -40 28q-13 19 -30.5 28.5t-46.5 9.5q-60 0 -92.5 -43.5t-32.5 -117.5q0 -84 43 -139.5t128 -55.5q64 0 103 35h2q3 0 5.5 -3t-0.5 -5
q-34 -30 -69 -44t-76 -14q-64 0 -107.5 28.5z" />
    <glyph glyph-name="d" unicode="d" horiz-adv-x="513" 
d="M507 55q4 0 5.5 -5t-2.5 -7l-103 -49q-4 -2 -8 -2q-14 0 -23.5 22.5t-10.5 63.5q-38 -41 -79.5 -66t-92.5 -25q-42 0 -77.5 24t-57 67.5t-21.5 98.5q0 70 35 120.5t88 76t105 25.5q53 0 100 -31v231q0 37 -7.5 53t-26.5 16q-8 0 -20.5 -4.5t-27.5 -10.5h-2q-4 0 -5 4.5
t2 6.5l122 60q2 1 5 1q2 0 4.5 -2t2.5 -5v-610q0 -37 8.5 -53t29.5 -16q31 0 55 15zM299 39.5q33 19.5 66 54.5v212q-26 35 -56.5 54.5t-73.5 19.5q-65 0 -104 -46t-39 -128q0 -55 18 -97t49 -65.5t69 -23.5t71 19.5z" />
    <glyph glyph-name="e" unicode="e" horiz-adv-x="405" 
d="M358 54q3 0 5.5 -3.5t0.5 -6.5q-66 -56 -143 -56q-58 0 -100 27t-63 70.5t-21 94.5q0 60 28 109t76.5 77.5t107.5 28.5q52 0 81 -26.5t29 -72.5q0 -12 -2.5 -17t-9.5 -5l-248 -1q-5 -28 -5 -55q0 -88 42.5 -143t116.5 -55q59 0 104 34h1zM142.5 351.5
q-28.5 -23.5 -40.5 -67.5l197 5q0 41 -23 63.5t-61 22.5q-44 0 -72.5 -23.5z" />
    <glyph glyph-name="f" unicode="f" horiz-adv-x="305" 
d="M402 710.5q33 -15.5 33 -35.5q0 -13 -9 -20.5t-22 -7.5q-10 0 -18 4.5t-18 17.5q-17 21 -36.5 31t-46.5 10q-61 0 -97 -67.5t-36 -203.5v-65q47 1 133 10q3 0 5 -6.5t2 -16.5q0 -8 -3 -16t-7 -7q-55 13 -130 15v-272q0 -31 7 -45t27.5 -19t66.5 -5q2 0 2 -6t-2 -6l-64 1
q-20 1 -62 1l-55 -1q-14 -1 -39 -1q-3 0 -3 6t3 6q31 0 45.5 5.5t20 19.5t5.5 44v225q0 27 -4.5 37.5t-19 14t-51.5 3.5q-3 0 -3 6t3 6q43 0 58 9.5t16 35.5q5 162 58.5 235t157.5 73q50 0 83 -15.5z" />
    <glyph glyph-name="g" unicode="g" horiz-adv-x="428" 
d="M238 26q61 -9 95.5 -18t59.5 -32.5t25 -65.5q0 -44 -33.5 -89t-90.5 -74t-123 -29q-70 0 -113 35t-43 87q0 80 116 157q-69 20 -69 67q0 53 70 103q-37 14 -57.5 43.5t-20.5 66.5q0 50 41.5 83t109.5 33q64 0 99 -30q55 31 107 31q2 0 3.5 -7t1.5 -14q0 -12 -2.5 -22.5
t-6.5 -8.5q-2 1 -19.5 7.5t-44.5 6.5q-15 0 -29 -3q26 -29 26 -70q0 -33 -17 -62t-50 -46.5t-79 -17.5q-30 0 -51 7q-19 -13 -30 -31.5t-11 -38.5q0 -31 29 -44t82 -21zM128.5 359q-20.5 -20 -20.5 -63q0 -59 32 -92t74 -33q32 0 52.5 22.5t20.5 69.5q0 52 -31.5 84
t-73.5 32q-33 0 -53.5 -20zM298 -233.5q38 19.5 57 50t19 64.5q0 40 -26 61t-59.5 28.5t-97.5 15.5q-28 4 -42 7q-40 -25 -62.5 -53.5t-22.5 -70.5q0 -55 38 -88.5t105 -33.5q53 0 91 19.5z" />
    <glyph glyph-name="h" unicode="h" horiz-adv-x="496" 
d="M476 6q0 -6 -2 -6q-23 0 -37 1l-52 1l-53 -1q-13 -1 -36 -1q-3 0 -3 6t3 6q29 0 42 5t18 19.5t5 44.5v163q0 61 -23 90t-71 29q-32 0 -66 -18.5t-62 -50.5v-213q0 -30 5 -44.5t18.5 -19.5t42.5 -5q2 0 2 -6t-2 -6q-23 0 -37 1l-52 1l-53 -1q-13 -1 -36 -1q-3 0 -3 6t3 6
q29 0 42 5t18 19.5t5 44.5v519q0 37 -7 53t-25 16q-17 0 -48 -15h-2q-4 0 -5.5 5t2.5 6l123 60h2q7 0 7 -7v-409q40 46 77.5 66.5t77.5 20.5q55 0 84.5 -30.5t29.5 -90.5v-194q0 -30 5 -44.5t18.5 -19.5t42.5 -5q2 0 2 -6z" />
    <glyph glyph-name="i" unicode="i" horiz-adv-x="275" 
d="M33 0zM55 6q0 6 2 6q29 0 42.5 5t18.5 19.5t5 44.5v189q0 37 -7.5 53t-25.5 16q-19 0 -48 -15h-1q-4 0 -6 5t2 7l124 58l4 1q2 0 4.5 -2t2.5 -5q0 -6 -1 -39.5t-1 -77.5v-190q0 -30 4.5 -44.5t18 -19.5t42.5 -5q3 0 3 -6t-3 -6q-23 0 -36 1l-53 1l-52 -1q-14 -1 -37 -1
q-2 0 -2 6zM108.5 526q-10.5 10 -10.5 28t10.5 28t29.5 10q18 0 28 -10t10 -28t-10 -28t-28 -10q-19 0 -29.5 10z" />
    <glyph glyph-name="j" unicode="j" horiz-adv-x="255" 
d="M21 0zM160 348.5q-1 -33.5 -1 -77.5v-319q0 -68 -12 -111.5t-40.5 -72.5t-78.5 -50q-2 -1 -4.5 4.5t-0.5 6.5q49 21 69 67t20 133v341q0 37 -7 53t-25 16q-19 0 -48 -15h-1q-5 0 -6.5 5t2.5 7l124 58l3 1q7 0 7 -7q0 -6 -1 -39.5zM97.5 526q-10.5 10 -10.5 28t10.5 28
t29.5 10q18 0 28 -10t10 -28t-10 -28t-28 -10q-19 0 -29.5 10z" />
    <glyph glyph-name="k" unicode="k" horiz-adv-x="491" 
d="M482 6q0 -6 -2 -6q-23 0 -37 1l-52 1l-70 -1q-16 -1 -43 -1q-2 0 -2 6t2 6q28 0 40.5 4.5t12.5 14.5q0 9 -9 22l-125 173l-58 -44v-101q0 -30 5 -44.5t18.5 -19.5t42.5 -5q2 0 2 -6t-2 -6q-23 0 -37 1l-52 1l-53 -1q-13 -1 -36 -1q-3 0 -3 6t3 6q29 0 42 5t18 19.5
t5 44.5v519q0 37 -7 53t-25 16q-17 0 -48 -15h-2q-4 0 -5.5 5t2.5 6l120 59l5 1q2 0 4.5 -2t2.5 -5v-523l145 113q34 25 34 43q0 23 -63 23q-3 0 -3 6t3 6q27 0 41 -1l71 -1l66 1q12 1 35 1q2 0 2 -6t-2 -6q-75 0 -166 -69l-64 -49l125 -175q48 -69 117 -69q2 0 2 -6z" />
    <glyph glyph-name="l" unicode="l" horiz-adv-x="256" 
d="M38 6q0 6 3 6q29 0 42 5t18 19.5t5 44.5v519q0 37 -7 53t-25 16q-16 0 -48 -15h-2q-4 0 -5.5 5t2.5 6l123 59q2 1 5 1q2 0 4.5 -2t2.5 -5v-637q0 -30 4.5 -44t18 -19.5t42.5 -5.5q3 0 3 -6t-3 -6q-22 0 -36 1l-54 1l-54 -1q-13 -1 -36 -1q-3 0 -3 6z" />
    <glyph glyph-name="m" unicode="m" horiz-adv-x="760" 
d="M741 6q0 -6 -3 -6q-23 0 -36 1l-53 1l-52 -1q-14 -1 -37 -1q-2 0 -2 6t2 6q29 0 42.5 5t18.5 19.5t5 44.5v163q0 61 -21.5 90t-67.5 29q-31 0 -63.5 -18.5t-59.5 -51.5q1 -5 1 -18v-194q0 -30 5 -44.5t18.5 -19.5t42.5 -5q2 0 2 -6t-2 -6q-23 0 -37 1l-52 1l-53 -1
q-13 -1 -36 -1q-3 0 -3 6t3 6q29 0 42 5t18 19.5t5 44.5v163q0 61 -21.5 90t-66.5 29q-31 0 -63 -18t-59 -51v-213q0 -30 4.5 -44.5t18 -19.5t42.5 -5q3 0 3 -6t-3 -6q-23 0 -36 1l-52 1l-53 -1q-13 -1 -36 -1q-3 0 -3 6t3 6q29 0 42 5t18 19.5t5 44.5v200q0 35 -8 50
t-28 15q-16 0 -56 -15h-2q-4 0 -5.5 4.5t2.5 6.5l111 52q2 1 5 1q8 0 18 -22.5t10 -57.5v-4q37 45 73 65t75 20q45 0 72.5 -22.5t34.5 -66.5q38 47 75 68t76 21q53 0 81 -30t28 -91v-194q0 -30 4.5 -44.5t18 -19.5t42.5 -5q3 0 3 -6z" />
    <glyph glyph-name="n" unicode="n" horiz-adv-x="515" 
d="M495 6q0 -6 -3 -6q-23 0 -36 1l-52 1l-53 -1q-13 -1 -36 -1q-3 0 -3 6t3 6q29 0 42 5t18 19.5t5 44.5v167q0 61 -23 89t-72 28q-32 0 -65.5 -18.5t-61.5 -50.5v-215q0 -30 4.5 -44.5t18 -19.5t42.5 -5q3 0 3 -6t-3 -6q-23 0 -36 1l-52 1l-53 -1q-13 -1 -36 -1q-3 0 -3 6
t3 6q29 0 42 5t18 19.5t5 44.5v200q0 35 -8 50t-28 15q-16 0 -56 -15h-2q-4 0 -5.5 4.5t2.5 6.5l111 52q2 1 5 1q8 0 18 -22.5t10 -57.5v-4q40 46 77 67t77 21q56 0 85.5 -30t29.5 -91v-197q0 -30 4.5 -44.5t18 -19.5t42.5 -5q3 0 3 -6z" />
    <glyph glyph-name="o" unicode="o" horiz-adv-x="477" 
d="M129 15.5q-44 28.5 -68 77t-24 105.5q0 65 31.5 110.5t80 68t99.5 22.5q58 0 101.5 -29t67 -76.5t23.5 -100.5q0 -62 -28.5 -109t-76.5 -72t-105 -25t-101 28.5zM349 44q33 39 33 123q0 60 -21 108.5t-59 76.5t-87 28q-57 0 -89 -39.5t-32 -113.5q0 -60 21 -110.5t58 -81
t85 -30.5q58 0 91 39z" />
    <glyph glyph-name="p" unicode="p" horiz-adv-x="510" 
d="M394 377q35 -22 55.5 -63.5t20.5 -98.5q0 -74 -34 -125.5t-84 -77t-96 -25.5q-33 0 -59 7t-52 25v-213q0 -30 8 -44t29 -19.5t66 -5.5q2 0 2 -6t-2 -6q-34 0 -53 1l-72 1l-54 -1q-13 -1 -36 -1q-3 0 -3 6t3 6q28 0 41.5 5.5t18.5 19.5t5 44v472q0 37 -8 53t-29 16
q-24 0 -55 -15h-2q-4 0 -5.5 4.5t2.5 6.5l103 49l8 2q15 0 24 -22.5t9 -64.5q45 48 87 70t86 22q41 0 76 -22zM353 28.5q29 21.5 45.5 61.5t16.5 94q0 86 -37.5 134t-95.5 48q-38 0 -70.5 -19.5t-66.5 -55.5v-217q29 -33 62.5 -50t81.5 -17q35 0 64 21.5z" />
    <glyph glyph-name="q" unicode="q" horiz-adv-x="484" 
d="M470 -269q0 -6 -2 -6q-24 0 -37 1l-53 1l-57 -1q-16 -1 -45 -1q-2 0 -2 6t2 6q35 0 51.5 5.5t22.5 19.5t6 44v270q-37 -40 -76.5 -64.5t-88.5 -24.5q-42 0 -77 22t-56 63.5t-21 98.5q0 80 32.5 131.5t81.5 74t102 22.5q63 0 129 -34l64 23l2 1q3 0 4 -4.5t-2 -5.5
q-24 -15 -36 -34t-12 -50v-489q0 -30 5 -44t19 -19.5t42 -5.5q2 0 2 -6zM289.5 35.5q32.5 20.5 66.5 57.5v177q0 50 -37 80t-99 30q-126 0 -126 -178q0 -87 35 -137t92 -50q36 0 68.5 20.5z" />
    <glyph glyph-name="r" unicode="r" horiz-adv-x="360" 
d="M310.5 383.5q19.5 -11.5 19.5 -26.5q0 -10 -7.5 -18t-21.5 -8q-10 0 -18 5.5t-10 6.5q-19 15 -38 15q-14 0 -29.5 -12t-47.5 -51v-214q0 -30 7 -44.5t27.5 -19.5t65.5 -5q3 0 3 -6t-3 -6q-32 0 -51 1l-72 1l-53 -1q-13 -1 -36 -1q-3 0 -3 6t3 6q29 0 42 5t18 19.5t5 44.5
v200q0 35 -8 50t-28 15q-16 0 -56 -15h-2q-4 0 -5.5 4.5t2.5 6.5l111 52q2 1 5 1q8 0 18 -22.5t10 -57.5v-6q41 50 65 68t46 18t41.5 -11.5z" />
    <glyph glyph-name="s" unicode="s" horiz-adv-x="338" 
d="M119 264.5q23 -20.5 70 -43.5q34 -17 54 -30t34 -33.5t14 -49.5q0 -50 -37.5 -84.5t-102.5 -34.5q-53 0 -94 31q-6 4 -6 12l-2 72q0 3 5.5 3.5t6.5 -2.5q19 -50 48.5 -73.5t70.5 -23.5q34 0 52 15t18 44t-12.5 48.5t-31 31.5t-50.5 27q-33 16 -52.5 28.5t-33 33.5
t-13.5 52q0 53 40 82t94 29q37 0 71 -15q6 -3 7.5 -5t1.5 -6q0 -19 -1 -30l-1 -39q0 -2 -6 -2t-6 2q0 32 -33 53.5t-70 21.5q-27 0 -42.5 -14.5t-15.5 -42.5q0 -37 23 -57.5z" />
    <glyph glyph-name="t" unicode="t" horiz-adv-x="339" 
d="M308 47q3 0 5 -4.5t-1 -6.5q-37 -26 -65 -37t-58 -11q-41 0 -67 18.5t-26 61.5v238q0 27 -3.5 37.5t-13.5 14t-35 3.5q-3 0 -3 6t3 6q38 0 61.5 21t23.5 53q0 3 8 3q7 0 7 -3v-73q68 1 141 10q3 0 5 -6.5t2 -16.5q0 -8 -3 -16t-7 -7q-60 15 -138 15v-251q0 -83 81 -83
q46 0 81 27z" />
    <glyph glyph-name="u" unicode="u" horiz-adv-x="490" 
d="M484 55q4 0 5.5 -4.5t-2.5 -6.5l-112 -52l-4 -1q-9 0 -18.5 22.5t-9.5 57.5v9q-41 -46 -81 -66.5t-82 -20.5q-49 0 -76.5 31t-27.5 91v155q0 41 -6.5 58.5t-22.5 17.5q-15 0 -36 -10h-2q-4 0 -5.5 5t2.5 6l105 47l4 1q2 0 5 -2t3 -5v-243q0 -60 21 -89t63 -29
q35 0 71 18.5t65 51.5v173q0 41 -6.5 58.5t-23.5 17.5q-15 0 -36 -10h-2q-4 0 -5 5t3 6l105 47l3 1q3 0 5.5 -2t2.5 -5v-283q0 -34 8.5 -49.5t28.5 -15.5q10 0 24.5 4.5t31.5 10.5h2z" />
    <glyph glyph-name="v" unicode="v" horiz-adv-x="433" 
d="M427 380q0 -6 -2 -6q-25 0 -41 -14.5t-32 -54.5l-125 -304q-1 -4 -11 -4t-11 4l-137 302q-20 44 -32.5 57.5t-31.5 13.5q-3 0 -3 6t3 6q20 0 31 -1l30 -1l63 1q14 1 38 1q3 0 3 -6t-3 -6q-61 0 -61 -24q0 -7 4 -15l124 -271l102 247q6 17 6 27q0 19 -19.5 27.5t-63.5 8.5
q-2 0 -2 6t2 6q27 0 41 -1l60 -1l35 1q10 1 31 1q2 0 2 -6z" />
    <glyph glyph-name="w" unicode="w" horiz-adv-x="667" 
d="M661 380q0 -6 -3 -6q-24 0 -40 -15t-32 -54l-125 -304q-1 -4 -11 -4t-11 4l-111 244l-101 -244q-1 -4 -11 -4t-11 4l-137 302q-20 44 -32.5 57.5t-31.5 13.5q-3 0 -3 6t3 6q20 0 31 -1l30 -1l58 1q15 1 43 1q3 0 3 -6t-3 -6q-29 0 -44.5 -5.5t-15.5 -18.5q0 -7 4 -15
l124 -271l84 204l-16 35q-20 44 -33 57.5t-32 13.5q-2 0 -2 6t2 6l32 -1q10 -1 30 -1l63 1q14 1 38 1q3 0 3 -6t-3 -6q-61 0 -61 -24q0 -7 4 -15l124 -272l101 248q7 19 7 28q0 19 -19.5 27t-63.5 8q-2 0 -2 6t2 6q27 0 41 -1l60 -1l35 1q9 1 30 1q3 0 3 -6z" />
    <glyph glyph-name="x" unicode="x" horiz-adv-x="439" 
d="M427 6q0 -6 -2 -6l-32 1q-10 1 -30 1l-63 -1q-14 -1 -38 -1q-3 0 -3 6t3 6q19 0 27.5 2.5t8.5 9.5q0 6 -13 27l-79 119l-66 -95q-8 -12 -13.5 -22.5t-5.5 -18.5q0 -22 60 -22q3 0 3 -6t-3 -6q-27 0 -40 1l-60 1l-35 -1q-10 -1 -31 -1q-2 0 -2 6t2 6q25 0 54.5 17.5
t53.5 51.5l74 103l-79 119q-25 38 -52 54.5t-50 16.5q-2 0 -2 6t2 6q21 0 31 -1l31 -1l63 1q14 1 38 1q2 0 2 -6t-2 -6q-19 0 -27.5 -2.5t-8.5 -9.5q0 -6 13 -27l72 -109l57 85q21 29 21 42q0 11 -14 16t-48 5q-2 0 -2 6t2 6q27 0 41 -1l60 -1l35 1q10 1 31 1q2 0 2 -6
t-2 -6q-26 0 -54 -16.5t-54 -52.5l-67 -91l87 -131q25 -38 52 -54.5t50 -16.5q2 0 2 -6z" />
    <glyph glyph-name="y" unicode="y" horiz-adv-x="437" 
d="M432 380q0 -6 -3 -6q-24 0 -41 -15t-31 -54l-125 -333q-37 -97 -69.5 -151.5t-67.5 -78t-81 -23.5q-20 0 -34 9.5t-14 27.5q0 11 8 18t19 7q21 0 41 -12q9 -6 16.5 -8.5t18.5 -2.5q25 0 47 22t47.5 73t60.5 144l-150 306q-23 44 -35 57.5t-31 13.5q-2 0 -2 6t2 6
q21 0 31 -1l31 -1l62 1q14 1 39 1q2 0 2 -6t-2 -6q-60 0 -60 -24q0 -7 4 -15l136 -278l85 244q8 22 8 36q0 21 -18.5 29t-62.5 8q-2 0 -2 6t2 6q27 0 41 -1l60 -1l35 1q9 1 30 1q3 0 3 -6z" />
    <glyph glyph-name="z" unicode="z" horiz-adv-x="405" 
d="M288 367q4 7 -5 7q-85 0 -127.5 -5.5t-65.5 -23.5t-34 -56q0 -2 -4 -2q-3 0 -6 1.5t-2 2.5l32 122q1 2 7 1.5t5 -2.5q-4 -15 6.5 -20.5t40.5 -5.5h207q4 0 7 -4t1 -8l-238 -353q-4 -7 5 -7q109 0 148.5 4.5t56.5 22.5t34 68q1 2 6 2t5 -2l-2 -98q0 -4 -2.5 -7.5
t-6.5 -3.5h-305q-4 0 -6.5 4t-0.5 8z" />
    <glyph glyph-name="braceleft" unicode="{" horiz-adv-x="289" 
d="M29 304.5q0 6.5 3 6.5q51 6 68 65t17 153q0 86 11 126.5t38 55t84 14.5q4 0 4 -6t-4 -6q-38 0 -59 -27.5t-23 -78.5q-2 -123 -8 -172.5t-26.5 -78t-72.5 -51.5q51 -24 72 -53.5t27 -79t8 -171.5q2 -51 23 -78.5t59 -27.5q4 0 4 -6t-4 -6q-58 0 -85.5 14.5t-37.5 55.5
t-10 127q0 95 -17 153.5t-68 64.5q-3 0 -3 6.5z" />
    <glyph glyph-name="bar" unicode="|" horiz-adv-x="168" 
d="M67 731q0 7 19 7q18 0 18 -7v-885q0 -4 -5.5 -6t-12.5 -2q-8 0 -13.5 2t-5.5 6v885z" />
    <glyph glyph-name="braceright" unicode="}" horiz-adv-x="283" 
d="M183 233.5q-17 -58.5 -17 -153.5q0 -86 -10 -127t-37.5 -55.5t-85.5 -14.5q-4 0 -4 6t4 6q38 0 59 27.5t23 78.5q2 122 8 171.5t27 79t72 53.5q-52 23 -72.5 51.5t-26.5 78t-8 172.5q-2 51 -23 78.5t-59 27.5q-4 0 -4 6t4 6q57 0 84 -14.5t38 -55t11 -126.5
q0 -94 17 -153t68 -65q3 0 3 -6.5t-3 -6.5q-51 -6 -68 -64.5z" />
    <glyph glyph-name="asciitilde" unicode="~" horiz-adv-x="443" 
d="M357.5 204q15.5 10 31.5 29h1q3 0 5.5 -2.5t0.5 -4.5q-34 -41 -56 -55t-48 -14q-19 0 -36.5 4.5t-42.5 13.5q-26 9 -44 13.5t-39 4.5q-24 0 -36.5 -7t-23.5 -17.5t-15 -14.5h-1q-2 0 -4.5 2.5t-1.5 4.5q56 69 111 69q14 0 32 -5t36 -11q26 -10 46 -15t40 -5q29 0 44.5 10
z" />
    <glyph glyph-name="uni00A0" unicode="&#xa0;" horiz-adv-x="234" 
 />
    <glyph glyph-name="exclamdown" unicode="&#xa1;" horiz-adv-x="243" 
d="M154 354.5q11 -10.5 11 -28.5q0 -17 -11 -27t-29 -10q-19 0 -29 10t-10 27q0 18 10 28.5t29 10.5q18 0 29 -10.5zM148.5 -272.5q-12.5 -2.5 -27.5 -2.5t-27.5 2.5t-11.5 5.5q15 87 22 186t14 246q0 2 5 2t5 -2q5 -144 11.5 -244.5t21.5 -187.5q0 -3 -12.5 -5.5z" />
    <glyph glyph-name="cent" unicode="&#xa2;" horiz-adv-x="540" 
d="M489 143q2 0 4.5 -1.5t2.5 -2.5l-14 -106q-1 -8 -3 -11t-11 -7q-77 -27 -160 -27h-11v-90q0 -7 -10 -7t-10 7v91q-83 7 -137 45.5t-78.5 92.5t-24.5 109q0 63 31 115.5t86 86t123 40.5v83q0 4 3 6t7 2t7 -2t3 -6v-81h15q38 0 81.5 -7.5t70.5 -21.5q7 -3 9 -6t3 -11
l11 -103q0 -3 -5.5 -4t-6.5 3q-13 68 -59.5 101.5t-118.5 35.5v-466q7 -1 20 -1q63 0 107 34.5t60 105.5q0 3 5 3zM117.5 142q20.5 -53 61.5 -90.5t98 -48.5v464q-51 -3 -92 -32t-64.5 -77t-23.5 -107q0 -56 20.5 -109z" />
    <glyph glyph-name="sterling" unicode="&#xa3;" horiz-adv-x="432" 
d="M374 124.5q6 -0.5 6 -2.5q-9 -50 -9 -107q0 -8 -3.5 -11.5t-11.5 -3.5h-320q-2 0 -2 5.5t2 6.5q45 12 63 28q14 12 19.5 27.5t5.5 38.5q0 33 -5 59t-14 55h-50q-3 0 -5 3t-2 7t2 7t5 3h43q-8 27 -12.5 48t-4.5 45q0 73 47.5 110t117.5 37q47 0 90 -17q15 -4 16 -19
l7 -100q0 -4 -5 -4q-6 0 -7 4q-3 47 -32 85t-80 38q-53 0 -78 -30t-25 -73q0 -26 5 -49.5t11 -44.5t8 -30h118q7 0 7 -10t-7 -10h-112q10 -38 10 -73q0 -39 -14 -63t-39 -44h132q44 0 65.5 6t32.5 23t19 54q0 2 6 1.5z" />
    <glyph glyph-name="currency" unicode="&#xa4;" horiz-adv-x="414" 
d="M335 37l-48 54q-41 -26 -91 -26q-44 0 -75 22l-44 -50l-21 21l44 46q-19 19 -29 45t-10 53q0 55 40 92l-50 50l26 23l50 -54q40 22 84 22q43 0 80 -24l49 53l20 -20l-49 -50q38 -38 38 -93q0 -51 -37 -90l49 -49zM274.5 107q22.5 26 22.5 73q0 56 -29.5 97.5t-79.5 41.5
q-36 0 -57 -24.5t-21 -71.5q0 -55 27 -98.5t78 -43.5q37 0 59.5 26z" />
    <glyph glyph-name="yen" unicode="&#xa5;" horiz-adv-x="477" 
d="M468 462q0 -6 -3 -6q-33 0 -64 -23.5t-58 -66.5l-83 -136v-17h106q7 0 7 -10t-7 -10h-265q-7 0 -7 10t7 10h108v1l-112 171q-27 40 -48 55.5t-54 15.5q-2 0 -2 6t2 6l31 -1q22 -2 31 -2q29 0 73 2l45 1q3 0 3 -6t-3 -6q-42 0 -42 -20q0 -9 7 -20l113 -171l71 122
q18 30 18 52q0 17 -11 27t-29 10q-3 0 -3 6t3 6l39 -1q32 -2 59 -2q15 0 35 2l30 1q3 0 3 -6zM373 146q0 -10 -7 -10h-106v-55q0 -31 6 -45t24.5 -19t58.5 -5q2 0 2 -6t-2 -6q-30 0 -47 1l-68 1l-65 -1q-18 -1 -50 -1q-2 0 -2 6t2 6q39 0 57.5 5t25.5 19.5t7 44.5v55h-108
q-7 0 -7 10t7 10h265q7 0 7 -10z" />
    <glyph glyph-name="brokenbar" unicode="&#xa6;" horiz-adv-x="168" 
d="M67 731q0 7 19 7q18 0 18 -7v-371q0 -3 -5.5 -5t-12.5 -2q-8 0 -13.5 2t-5.5 5v371zM67 216q0 4 5.5 6t13.5 2q7 0 12.5 -2t5.5 -6v-370q0 -4 -5.5 -6t-12.5 -2q-8 0 -13.5 2t-5.5 6v370z" />
    <glyph glyph-name="section" unicode="&#xa7;" horiz-adv-x="429" 
d="M351 -56q0 -65 -43.5 -98.5t-103.5 -33.5q-52 0 -88 18q-11 7 -12 17l-7 93q0 3 6 3t6 -3q3 -23 22 -47.5t48 -41t62 -16.5q31 0 51 18t20 57q0 30 -14.5 53.5t-35 39.5t-59.5 42q-43 28 -69.5 49.5t-45 54t-18.5 76.5q0 39 13.5 67.5t51.5 64.5q-36 36 -36 83
q0 64 43 98t102 34q53 0 88 -19q11 -5 11 -16l8 -94q0 -2 -6 -2t-6 2q-3 24 -22 48.5t-48 41t-62 16.5q-30 0 -49.5 -18t-19.5 -57q0 -30 14 -53.5t34.5 -39.5t58.5 -42q42 -28 67.5 -49.5t43.5 -54t18 -76.5q0 -38 -13 -66t-50 -64q40 -37 40 -85zM129 181.5
q18 -31.5 43 -52.5t69 -49q47 -31 61 -43q31 33 31 90q0 43 -17.5 75t-43 53.5t-66.5 48.5q-6 4 -26.5 18t-35.5 27q-19 -20 -26 -42.5t-7 -50.5q0 -43 18 -74.5z" />
    <glyph glyph-name="dieresis" unicode="&#xa8;" horiz-adv-x="322" 
d="M44.5 491q-10.5 10 -10.5 28t10.5 28t29.5 10q18 0 28 -10t10 -28t-10 -28t-28 -10q-19 0 -29.5 10zM220 491q-11 10 -11 28t11 28t29 10q19 0 29 -10t10 -28t-10 -28t-29 -10q-18 0 -29 10z" />
    <glyph glyph-name="copyright" unicode="&#xa9;" horiz-adv-x="717" 
d="M232 -68q-67 33 -111.5 99t-44.5 160q0 88 44 158t117.5 109t156.5 39q74 0 130 -30.5t86.5 -82.5t30.5 -114t-32 -115t-87 -84.5t-122 -31.5q-60 0 -100 22.5t-59 58t-19 75.5q0 51 25 89.5t64.5 59t81.5 20.5q34 0 62.5 -13.5t29.5 -33.5q0 -10 -7.5 -18t-17.5 -8
q-17 0 -34 24q-12 17 -24.5 25.5t-34.5 8.5q-89 0 -89 -130q0 -68 35.5 -111t114.5 -43q48 0 89 19t66.5 58.5t25.5 99.5q0 63 -32.5 116.5t-88.5 84.5t-124 31q-79 0 -135 -34.5t-85 -94t-29 -132.5q0 -92 44 -156.5t108 -96t124 -31.5q61 0 104 8.5t97 36.5q2 1 4 -2t0 -5
q-53 -40 -107.5 -54t-122.5 -14q-67 0 -134 33z" />
    <glyph glyph-name="ordfeminine" unicode="&#xaa;" horiz-adv-x="276" 
d="M270 407q4 0 5.5 -3.5t-0.5 -5.5l-68 -32q-10 -4 -18 7.5t-9 35.5l-44 -24q-22 -12 -32.5 -16t-22.5 -4q-20 0 -32 11t-12 28q0 16 12.5 25t47.5 22l83 30v57q0 46 -13 60t-37 14q-21 0 -34 -14t-18 -37q-2 -10 -5.5 -15.5t-14.5 -5.5q-9 0 -15 6t-6 12q0 14 21 31
t49.5 29t49.5 12q24 0 39 -18t15 -54v-117q0 -23 5 -33t18 -10q8 0 35 9h1zM180 420v51l-77 -30q-16 -6 -21.5 -11t-5.5 -14q0 -11 8 -19t21 -8q12 0 26 6zM261.5 309q1.5 -4 1.5 -8q0 -13 -5 -13h-224q-2 0 -3.5 4t-1.5 9q0 4 1.5 8t2.5 4h225q2 0 3.5 -4z" />
    <glyph glyph-name="guillemotleft" unicode="&#xab;" horiz-adv-x="451" 
d="M61 189q-4 4 -4 12q0 7 4 11l174 149q0 1 2 1t4 -2.5t1 -3.5l-130 -155l130 -155q1 -2 -2.5 -5.5t-4.5 -0.5zM208 189q-4 4 -4 12q0 7 4 11l174 149q2 3 5.5 0t1.5 -5l-129 -155l129 -155v-1q0 -3 -2.5 -5t-4.5 0z" />
    <glyph glyph-name="logicalnot" unicode="&#xac;" horiz-adv-x="395" 
d="M364 77q0 -2 -6.5 -3.5t-13.5 -1.5t-12.5 1.5t-5.5 2.5v153h-292q-2 0 -3.5 6.5t-1.5 13.5t1.5 12.5t2.5 5.5h331v-190z" />
    <glyph glyph-name="uni00AD" unicode="&#xad;" horiz-adv-x="323" 
d="M27 167zM28.5 174.5q-1.5 7.5 -1.5 15.5q0 17 3 17l261 47q2 1 3.5 -5.5t1.5 -13.5t-1.5 -13t-3.5 -7l-259 -47q-2 -1 -3.5 6.5z" />
    <glyph glyph-name="registered" unicode="&#xae;" horiz-adv-x="752" 
d="M542 687.5q64 -37.5 99 -100t35 -136.5q0 -86 -42 -158t-112.5 -113.5t-153.5 -41.5q-72 0 -139.5 34.5t-110 100.5t-42.5 157q0 83 44.5 150.5t117.5 106t156 38.5q84 0 148 -37.5zM524.5 198q56.5 31 88 89t31.5 136q0 77 -36.5 141t-100.5 101t-143 37
q-78 0 -134.5 -34t-85.5 -91t-29 -124q0 -90 42 -155t106.5 -98t129.5 -33q75 0 131.5 31zM567 275.5q0 -4.5 -2 -4.5h-74q-10 0 -35 41t-68 123q-27 -6 -59 -5v-103q0 -20 3.5 -29t14.5 -12t35 -3q2 0 2 -6t-2 -6q-18 0 -29 1l-43 1l-42 -1q-11 -1 -29 -1q-2 0 -2 6t2 6
q25 0 36 3t15 12t4 29v216q0 19 -4 28t-15 12.5t-36 3.5q-2 0 -2 6t2 6l71 -1q12 0 44 2l38 1q89 0 89 -65q0 -60 -55 -89q39 -75 57 -105t37 -46t45 -16q2 0 2 -4.5zM369 445q74 0 74 67q0 76 -68 76q-20 0 -29 -2.5t-13 -12.5t-4 -33v-91q30 -4 40 -4z" />
    <glyph glyph-name="macron" unicode="&#xaf;" horiz-adv-x="345" 
d="M43.5 489q-1.5 4 -1.5 9q0 13 5 13h251q5 0 5 -13t-5 -13h-251q-2 0 -3.5 4z" />
    <glyph glyph-name="degree" unicode="&#xb0;" horiz-adv-x="332" 
d="M67.5 410q-38.5 37 -38.5 93q0 53 38.5 90t99.5 37t98.5 -37t37.5 -92t-37.5 -91.5t-98.5 -36.5t-99.5 37zM235.5 411q14.5 27 14.5 83q0 126 -89 126q-46 0 -62 -29.5t-16 -84.5q0 -57 20.5 -89.5t70.5 -32.5q47 0 61.5 27z" />
    <glyph glyph-name="plusminus" unicode="&#xb1;" horiz-adv-x="398" 
d="M30.5 240.5q-1.5 6.5 -1.5 13.5q0 6 1 11.5t3 5.5h147v147q0 4 19 4t19 -4v-147h146q2 0 3.5 -5.5t1.5 -12.5t-1.5 -13t-3.5 -6h-146v-146q0 -2 -6.5 -3.5t-13.5 -1.5t-12.5 1.5t-5.5 2.5v147h-146q-2 0 -3.5 6.5zM367.5 29.5q1.5 -5.5 1.5 -11.5t-1.5 -11.5t-3.5 -5.5
h-330q-2 0 -3.5 5.5t-1.5 12.5q0 6 1.5 11t2.5 5h331q2 0 3.5 -5.5z" />
    <glyph glyph-name="uni00B2" unicode="&#xb2;" horiz-adv-x="250" 
d="M53 445q14 22 30 45q37 54 57 91t20 69q0 27 -14 43t-38 16q-25 0 -43 -16.5t-24 -42.5q0 -2 -4 -2q-3 0 -6 1.5t-2 3.5q22 76 94 76q37 0 57.5 -20t20.5 -51q0 -29 -21.5 -62.5t-60.5 -80.5q-23 -28 -36.5 -46t-18.5 -32q0 -3 3 -3q69 0 93 2.5t32.5 13t18.5 41.5
q0 2 2.5 2t2.5 -2l-1 -84q0 -2 -1 -3.5t-3 -1.5h-174q-2 0 -3 2t0 4q5 15 19 37z" />
    <glyph glyph-name="uni00B3" unicode="&#xb3;" horiz-adv-x="251" 
d="M193 546q21 -18 21 -52q0 -41 -26.5 -69.5t-72.5 -28.5q-38 0 -61 19t-31 50q-1 4 5 5.5t7 -2.5q6 -21 24.5 -38t50.5 -17q63 0 63 68q0 38 -21.5 61t-53.5 23q-2 0 -2 6t2 6q29 0 45.5 23.5t16.5 49.5q0 25 -15 42t-39 17q-23 0 -41 -17t-24 -42q0 -2 -4 -2q-3 0 -6 1.5
t-2 3.5q9 34 32 55t61 21q36 0 57.5 -20.5t21.5 -51.5q0 -28 -18 -51t-48 -34q37 -8 58 -26z" />
    <glyph glyph-name="acute" unicode="&#xb4;" horiz-adv-x="212" 
d="M65 472q-3 0 -5.5 1.5t-1.5 2.5l57 240q1 4 14.5 8.5t26 6t10.5 -3.5l-97 -253q0 -2 -4 -2z" />
    <glyph glyph-name="paragraph" unicode="&#xb6;" horiz-adv-x="634" 
d="M290.5 -181.5q-14.5 11.5 -14.5 27.5q0 14 7.5 22.5t19.5 8.5q13 0 19.5 -5.5t13.5 -16.5q7 -12 15.5 -18.5t26.5 -6.5q30 0 42.5 41t12.5 137v117q-40 -3 -88 -3q-74 0 -140 26t-108.5 85t-42.5 153q0 118 70 180t194 62q31 0 64 -3q12 0 37.5 -1.5t47.5 -1.5q20 0 58 2
l52 1q2 0 2 -6t-2 -6q-43 0 -66 -21t-23 -60l1 -477q0 -130 -38 -189t-124 -59q-22 0 -36.5 11.5z" />
    <glyph glyph-name="periodcentered" unicode="&#xb7;" horiz-adv-x="195" 
d="M69 171.5q-11 10.5 -11 28.5q0 17 11 27t29 10q19 0 29 -10t10 -27q0 -18 -10 -28.5t-29 -10.5q-18 0 -29 10.5z" />
    <glyph glyph-name="cedilla" unicode="&#xb8;" horiz-adv-x="232" 
d="M101.5 -39q-4.5 -16 -4.5 -24q0 -11 6.5 -17t19 -13t19.5 -11q25 -14 39.5 -32t14.5 -45q0 -36 -25.5 -65t-73.5 -29q-26 0 -44 9.5t-18 26.5q0 12 8 19.5t20 7.5q10 0 15.5 -5t10.5 -15q8 -12 15 -18t22 -6q37 0 37 41q0 26 -18.5 46.5t-67.5 46.5q-8 4 -12 7t-4 7
q0 5 6 17q11 28 24 62l10 28l12 -1q-7 -21 -11.5 -37z" />
    <glyph glyph-name="uni00B9" unicode="&#xb9;" horiz-adv-x="262" 
d="M47 408q0 6 2 6q34 0 47.5 4t17.5 17.5t4 47.5v118v41q0 23 -3 32.5t-13 9.5q-8 0 -23.5 -6t-36.5 -16h-1q-4 0 -6.5 4.5t1.5 6.5l110 54q1 1 3 1q3 0 5 -2.5t2 -5.5v-237q0 -34 3.5 -47.5t16.5 -17.5t45 -4q3 0 3 -6t-3 -6l-35 1q-30 2 -48 2q-19 0 -51 -2l-38 -1
q-2 0 -2 6z" />
    <glyph glyph-name="ordmasculine" unicode="&#xba;" horiz-adv-x="313" 
d="M60 399.5q-35 40.5 -35 98.5q0 43 21 72.5t53 44.5t65 15q38 0 66.5 -19t44 -50t15.5 -66q0 -37 -19 -68.5t-50.5 -49.5t-68.5 -18q-57 0 -92 40.5zM229.5 401.5q23.5 27.5 23.5 75.5q0 58 -30.5 97.5t-77.5 39.5q-40 0 -61.5 -25.5t-21.5 -71.5q0 -58 30 -100.5
t75 -42.5q39 0 62.5 27.5zM32.5 292q-1.5 4 -1.5 9q0 4 1.5 8t2.5 4h243q2 0 3.5 -4t1.5 -8q0 -13 -5 -13h-242q-2 0 -3.5 4z" />
    <glyph glyph-name="guillemotright" unicode="&#xbb;" horiz-adv-x="451" 
d="M243 212q5 -5 5 -11q0 -7 -5 -12l-174 -149q0 -1 -2 -1t-4 2.5t-1 4.5l130 154l-130 156q-1 2 2.5 5t4.5 0zM391 212q4 -4 4 -11q0 -8 -4 -12l-175 -149q0 -1 -2 -1t-4 2.5t-1 4.5l130 154l-130 156q-1 2 2.5 5t4.5 0z" />
    <glyph glyph-name="onequarter" unicode="&#xbc;" horiz-adv-x="598" 
d="M32 0zM47 314.5q0 5.5 2 5.5q34 0 47.5 4t17.5 17.5t4 47.5v119v41q0 23 -3 32t-12 9q-12 0 -61 -22h-1q-4 0 -6.5 5t1.5 6l110 55h2q3 0 5.5 -2.5t2.5 -4.5v-238q0 -34 3.5 -47.5t16.5 -17.5t45 -4q3 0 3 -5.5t-3 -5.5q-22 0 -35 1l-48 1l-51 -1q-14 -1 -38 -1
q-2 0 -2 5.5zM180 -1q-5 0 -13 4t-7 6l280 617q0 1 3 1q4 0 12 -3.5t7 -5.5l-280 -618q0 -1 -2 -1zM570 5q0 -4 -1 -6l-59 1l-76 -1q-1 0 -1 6t1 6q26 0 36.5 2t14.5 8t4 20v51q-68 2 -125 2q-2 0 -3.5 2t0.5 3l154 225q2 2 5 1t3 -3v-210l46 3q2 0 2 -13q0 -14 -2 -14
q-30 2 -46 2v-49q0 -14 2.5 -19.5t11.5 -8t32 -2.5q1 -2 1 -6zM489 111v154l-90 -153q-1 -3 2 -3q40 0 88 2z" />
    <glyph glyph-name="onehalf" unicode="&#xbd;" horiz-adv-x="609" 
d="M32 0zM47 314.5q0 5.5 2 5.5q34 0 47.5 4t17.5 17.5t4 47.5v119v41q0 23 -3 32t-12 9q-12 0 -61 -22h-1q-4 0 -6.5 5t1.5 6l110 55h2q3 0 5.5 -2.5t2.5 -4.5v-238q0 -34 3.5 -47.5t16.5 -17.5t45 -4q3 0 3 -5.5t-3 -5.5q-22 0 -35 1l-48 1l-51 -1q-14 -1 -38 -1
q-2 0 -2 5.5zM180 -1q-5 0 -13 4t-7 6l280 617q0 1 3 1q4 0 12 -3.5t7 -5.5l-280 -618q0 -1 -2 -1zM409 38.5q11 17.5 33 48.5q37 54 57 91t20 70q0 27 -14.5 42.5t-37.5 15.5q-25 0 -43 -16t-24 -42q0 -3 -4 -3q-3 0 -6 1.5t-2 3.5q22 76 94 76q38 0 58 -19.5t20 -50.5
q0 -29 -21.5 -62.5t-60.5 -80.5q-23 -28 -36.5 -46t-18.5 -32q0 -3 3 -3q69 0 93 2.5t32.5 13t18.5 41.5q0 2 2.5 2t2.5 -2l-1 -84q0 -5 -4 -5h-174q-4 0 -3 6q5 15 16 32.5z" />
    <glyph glyph-name="threequarters" unicode="&#xbe;" horiz-adv-x="587" 
d="M22 0zM193.5 452.5q20.5 -18.5 20.5 -52.5q0 -40 -26.5 -68.5t-72.5 -28.5q-38 0 -61 19t-31 50q-1 4 5 5t7 -3q6 -21 24.5 -38t50.5 -17q28 0 45.5 16t17.5 52q0 38 -21.5 61t-53.5 23q-2 0 -2 6t2 6q29 0 45.5 24t16.5 50q0 24 -15 41t-39 17q-23 0 -41 -16.5
t-24 -41.5q0 -3 -5 -3q-3 0 -5.5 1.5t-1.5 3.5q9 34 32 55t61 21q36 0 57.5 -20t21.5 -51q0 -28 -18 -51t-47 -34q37 -8 57.5 -26.5zM169 -1q-5 0 -13 4t-7 6l280 617q0 1 3 1q4 0 12 -3.5t7 -5.5l-280 -618q0 -1 -2 -1zM559 5q0 -4 -1 -6l-59 1l-76 -1q-1 0 -1 6t1 6
q26 0 36.5 2t14.5 8t4 20v51q-68 2 -125 2q-2 0 -3.5 2t0.5 3l154 225q2 2 5 1t3 -3v-210l46 3q2 0 2 -13q0 -14 -2 -14q-30 2 -46 2v-49q0 -14 2.5 -19.5t11.5 -8t32 -2.5q1 -2 1 -6zM478 111v154l-90 -153q-1 -3 2 -3q40 0 88 2z" />
    <glyph glyph-name="questiondown" unicode="&#xbf;" horiz-adv-x="327" 
d="M210 350.5q11 -10.5 11 -28.5q0 -17 -11 -27t-29 -10q-19 0 -29 10t-10 27q0 18 10 28.5t29 10.5q18 0 29 -10.5zM205 -250q9 13 12 35q4 18 11 28t23 10q14 0 22 -9.5t8 -21.5q0 -27 -34 -47t-81 -20q-57 0 -94 31t-37 89q0 42 17.5 69.5t53.5 63.5t50 63t14 61
q0 24 -6 55q-1 3 4.5 4t6.5 -2q11 -26 18.5 -61.5t7.5 -57.5q0 -31 -13 -51.5t-39 -45.5q-28 -27 -42.5 -50t-14.5 -60q0 -43 22 -69.5t56 -26.5q26 0 35 13z" />
    <glyph glyph-name="Agrave" unicode="&#xc0;" horiz-adv-x="698" 
d="M0 0zM698 6q0 -6 -4 -6q-18 0 -58 2q-38 2 -56 2q-21 0 -55 -2q-32 -2 -48 -2q-4 0 -4 6t4 6q41 0 59 7.5t18 25.5q0 14 -11 39l-119 255h-191l-90 -216q-14 -34 -14 -56q0 -29 24 -42t75 -13q5 0 5 -6t-5 -6q-18 0 -52 2q-38 2 -66 2q-25 0 -59 -2q-30 -2 -49 -2
q-5 0 -5 6t5 6q28 0 47.5 10t37 36t37.5 74l209 503q2 3 6.5 3t5.5 -3l232 -498q23 -51 41 -77.5t35.5 -37t40.5 -10.5q4 0 4 -6zM241 358h175l-93 198zM214 756q-7 1 5.5 8.5t29 13.5t20.5 4q40 -23 84.5 -48t87.5 -45q2 -1 2 -4t-2 -5t-4 -1q-113 50 -223 77z" />
    <glyph glyph-name="Aacute" unicode="&#xc1;" horiz-adv-x="698" 
d="M0 0zM698 6q0 -6 -4 -6q-18 0 -58 2q-38 2 -56 2q-21 0 -55 -2q-32 -2 -48 -2q-4 0 -4 6t4 6q41 0 59 7.5t18 25.5q0 14 -11 39l-119 255h-191l-90 -216q-14 -34 -14 -56q0 -29 24 -42t75 -13q5 0 5 -6t-5 -6q-18 0 -52 2q-38 2 -66 2q-25 0 -59 -2q-30 -2 -49 -2
q-5 0 -5 6t5 6q28 0 47.5 10t37 36t37.5 74l209 503q2 3 6.5 3t5.5 -3l232 -498q23 -51 41 -77.5t35.5 -37t40.5 -10.5q4 0 4 -6zM241 358h175l-93 198zM239 678q-4 0 -5 4.5t2 6.5q46 21 122 65l50 28q4 2 20.5 -4t29 -13.5t5.5 -8.5q-62 -15 -113.5 -33.5t-108.5 -43.5z
" />
    <glyph glyph-name="Acircumflex" unicode="&#xc2;" horiz-adv-x="698" 
d="M0 0zM698 6q0 -6 -4 -6q-18 0 -58 2q-38 2 -56 2q-21 0 -55 -2q-32 -2 -48 -2q-4 0 -4 6t4 6q41 0 59 7.5t18 25.5q0 14 -11 39l-119 255h-191l-90 -216q-14 -34 -14 -56q0 -29 24 -42t75 -13q5 0 5 -6t-5 -6q-18 0 -52 2q-38 2 -66 2q-25 0 -59 -2q-30 -2 -49 -2
q-5 0 -5 6t5 6q28 0 47.5 10t37 36t37.5 74l209 503q2 3 6.5 3t5.5 -3l232 -498q23 -51 41 -77.5t35.5 -37t40.5 -10.5q4 0 4 -6zM241 358h175l-93 198zM326 747q5 5 11 5q7 0 12 -5l102 -92q1 0 1 -2t-2.5 -4t-3.5 -1l-108 62l-109 -62q-2 -1 -5 2.5t-1 4.5z" />
    <glyph glyph-name="Atilde" unicode="&#xc3;" horiz-adv-x="698" 
d="M0 0zM698 6q0 -6 -4 -6q-18 0 -58 2q-38 2 -56 2q-21 0 -55 -2q-32 -2 -48 -2q-4 0 -4 6t4 6q41 0 59 7.5t18 25.5q0 14 -11 39l-119 255h-191l-90 -216q-14 -34 -14 -56q0 -29 24 -42t75 -13q5 0 5 -6t-5 -6q-18 0 -52 2q-38 2 -66 2q-25 0 -59 -2q-30 -2 -49 -2
q-5 0 -5 6t5 6q28 0 47.5 10t37 36t37.5 74l209 503q2 3 6.5 3t5.5 -3l232 -498q23 -51 41 -77.5t35.5 -37t40.5 -10.5q4 0 4 -6zM241 358h175l-93 198zM442.5 744q10.5 7 21.5 20h2q3 0 5 -2.5t0 -4.5q-26 -34 -43 -45.5t-35 -11.5q-15 0 -31 3.5t-32 8.5q-42 12 -69 12
q-16 0 -24.5 -5.5t-15 -12l-9.5 -9.5h-1q-3 0 -5.5 2.5t-0.5 4.5q16 22 38.5 40t45.5 18q17 0 52 -11q44 -14 74 -14q17 0 27.5 7z" />
    <glyph glyph-name="Adieresis" unicode="&#xc4;" horiz-adv-x="698" 
d="M0 0zM698 6q0 -6 -4 -6q-18 0 -58 2q-38 2 -56 2q-21 0 -55 -2q-32 -2 -48 -2q-4 0 -4 6t4 6q41 0 59 7.5t18 25.5q0 14 -11 39l-119 255h-191l-90 -216q-14 -34 -14 -56q0 -29 24 -42t75 -13q5 0 5 -6t-5 -6q-18 0 -52 2q-38 2 -66 2q-25 0 -59 -2q-30 -2 -49 -2
q-5 0 -5 6t5 6q28 0 47.5 10t37 36t37.5 74l209 503q2 3 6.5 3t5.5 -3l232 -498q23 -51 41 -77.5t35.5 -37t40.5 -10.5q4 0 4 -6zM241 358h175l-93 198zM221.5 730q-10.5 10 -10.5 28t10.5 28t29.5 10q18 0 28 -10t10 -28t-10 -28t-28 -10q-19 0 -29.5 10zM397 730
q-11 10 -11 28t11 28t29 10q19 0 29 -10t10 -28t-10 -28t-29 -10q-18 0 -29 10z" />
    <glyph glyph-name="Aring" unicode="&#xc5;" horiz-adv-x="698" 
d="M0 0zM698 6q0 -6 -4 -6q-18 0 -58 2q-38 2 -56 2q-21 0 -55 -2q-32 -2 -48 -2q-4 0 -4 6t4 6q41 0 59 7.5t18 25.5q0 14 -11 39l-119 255h-191l-90 -216q-14 -34 -14 -56q0 -29 24 -42t75 -13q5 0 5 -6t-5 -6q-18 0 -52 2q-38 2 -66 2q-25 0 -59 -2q-30 -2 -49 -2
q-5 0 -5 6t5 6q28 0 47.5 10t37 36t37.5 74l209 503q2 3 6.5 3t5.5 -3l232 -498q23 -51 41 -77.5t35.5 -37t40.5 -10.5q4 0 4 -6zM241 358h175l-93 198zM274 689q-23 24 -23 56q0 36 28.5 56.5t64.5 20.5q34 0 58.5 -23t24.5 -56q0 -35 -28.5 -56.5t-64.5 -21.5
q-37 0 -60 24zM378.5 687q9.5 12 9.5 38q0 36 -18.5 62t-45.5 26q-19 0 -27 -11.5t-8 -36.5q0 -34 16.5 -62t43.5 -28q20 0 29.5 12z" />
    <glyph glyph-name="AE" unicode="&#xc6;" horiz-adv-x="871" 
d="M814 148.5q6 -0.5 6 -3.5q-9 -63 -9 -130q0 -8 -3.5 -11.5t-12.5 -3.5h-401q-2 0 -2 6t2 6q39 0 57.5 5t25 19.5t6.5 44.5v235h-178l-134 -193q-31 -45 -31 -70q0 -41 79 -41q5 0 5 -6t-5 -6q-18 0 -52 2q-38 2 -66 2q-23 0 -53 -2q-28 -2 -43 -2q-4 0 -4 6t4 6
q29 0 68 32.5t78 87.5l307 442q13 18 13 25q0 9 -16.5 11.5t-60.5 2.5q-2 0 -2 6t2 6h384q9 0 9 -9l2 -121q0 -3 -5.5 -3t-5.5 3q0 49 -27 80t-71 31h-58q-38 0 -55.5 -5t-24 -17.5t-6.5 -40.5v-208h120q46 0 64 15.5t18 53.5q0 2 6 2t6 -2l-1 -79q0 -29 1 -43l1 -47
q0 -2 -6 -2t-6 2q0 45 -19 63t-67 18h-117v-231q0 -29 6.5 -42.5t24 -18.5t55.5 -5h81q40 0 68.5 35t36.5 92q0 3 6 2.5zM318 335h165v237z" />
    <glyph glyph-name="Ccedilla" unicode="&#xc7;" horiz-adv-x="669" 
d="M618 161q3 0 5.5 -1t2.5 -3l-14 -107q-2 -12 -4.5 -15.5t-11.5 -7.5q-89 -39 -191 -39h-20q-13 -41 -13 -51q0 -11 6.5 -17t19 -13t19.5 -11q25 -14 39.5 -32t14.5 -45q0 -36 -25.5 -65t-73.5 -29q-26 0 -44 9.5t-18 26.5q0 12 8 19.5t20 7.5q10 0 15.5 -5t10.5 -15
q8 -12 15 -18t22 -6q37 0 37 41q0 26 -18.5 46.5t-67.5 46.5q-8 4 -12 7t-4 7q0 5 6 17q15 36 30 80q-109 7 -181.5 56t-107 122t-34.5 152q0 91 51 163.5t135 113t178 40.5q49 0 98.5 -10t79.5 -27q8 -5 10.5 -9.5t3.5 -14.5l11 -105q0 -3 -5 -3.5t-6 2.5q-36 146 -231 146
q-78 0 -137.5 -33.5t-92.5 -94.5t-33 -141q0 -94 41 -173.5t109 -126t147 -46.5q74 0 127.5 39t78.5 119q0 3 4 3z" />
    <glyph glyph-name="Egrave" unicode="&#xc8;" horiz-adv-x="533" 
d="M42 0zM476 148.5q6 -0.5 6 -3.5q-9 -63 -9 -130q0 -8 -3.5 -11.5t-12.5 -3.5h-413q-2 0 -2 6t2 6q39 0 57.5 5t25 19.5t6.5 44.5v463q0 30 -6.5 44t-25 19.5t-57.5 5.5q-2 0 -2 6t2 6h396q9 0 9 -9l2 -121q0 -3 -5.5 -3t-5.5 3q0 51 -27 81t-71 30h-69q-38 0 -56 -5
t-24.5 -19t-6.5 -44v-203h132q46 0 64 15.5t18 53.5q0 2 6 2t6 -2l-1 -79q0 -29 1 -43l1 -47q0 -2 -6 -2t-6 2q0 45 -19 63t-67 18h-129v-231q0 -29 6.5 -42.5t24 -18.5t56.5 -5h92q40 0 68.5 35t36.5 92q0 3 6 2.5zM166 756q-7 1 5.5 8.5t29 13.5t20.5 4q40 -23 84.5 -48
t87.5 -45q2 -1 2 -4t-2 -5t-4 -1q-113 50 -223 77z" />
    <glyph glyph-name="Eacute" unicode="&#xc9;" horiz-adv-x="533" 
d="M42 0zM476 148.5q6 -0.5 6 -3.5q-9 -63 -9 -130q0 -8 -3.5 -11.5t-12.5 -3.5h-413q-2 0 -2 6t2 6q39 0 57.5 5t25 19.5t6.5 44.5v463q0 30 -6.5 44t-25 19.5t-57.5 5.5q-2 0 -2 6t2 6h396q9 0 9 -9l2 -121q0 -3 -5.5 -3t-5.5 3q0 51 -27 81t-71 30h-69q-38 0 -56 -5
t-24.5 -19t-6.5 -44v-203h132q46 0 64 15.5t18 53.5q0 2 6 2t6 -2l-1 -79q0 -29 1 -43l1 -47q0 -2 -6 -2t-6 2q0 45 -19 63t-67 18h-129v-231q0 -29 6.5 -42.5t24 -18.5t56.5 -5h92q40 0 68.5 35t36.5 92q0 3 6 2.5zM191 678q-4 0 -5 4.5t2 6.5q46 21 122 65l50 28
q4 2 20.5 -4t29 -13.5t5.5 -8.5q-62 -15 -113.5 -33.5t-108.5 -43.5z" />
    <glyph glyph-name="Ecircumflex" unicode="&#xca;" horiz-adv-x="533" 
d="M42 0zM476 148.5q6 -0.5 6 -3.5q-9 -63 -9 -130q0 -8 -3.5 -11.5t-12.5 -3.5h-413q-2 0 -2 6t2 6q39 0 57.5 5t25 19.5t6.5 44.5v463q0 30 -6.5 44t-25 19.5t-57.5 5.5q-2 0 -2 6t2 6h396q9 0 9 -9l2 -121q0 -3 -5.5 -3t-5.5 3q0 51 -27 81t-71 30h-69q-38 0 -56 -5
t-24.5 -19t-6.5 -44v-203h132q46 0 64 15.5t18 53.5q0 2 6 2t6 -2l-1 -79q0 -29 1 -43l1 -47q0 -2 -6 -2t-6 2q0 45 -19 63t-67 18h-129v-231q0 -29 6.5 -42.5t24 -18.5t56.5 -5h92q40 0 68.5 35t36.5 92q0 3 6 2.5zM279 783q5 5 12 5q6 0 11 -5l102 -93q1 0 1 -2t-2.5 -4
t-3.5 -1l-108 62l-109 -62q-2 -1 -5 2.5t-1 4.5z" />
    <glyph glyph-name="Edieresis" unicode="&#xcb;" horiz-adv-x="533" 
d="M42 0zM476 148.5q6 -0.5 6 -3.5q-9 -63 -9 -130q0 -8 -3.5 -11.5t-12.5 -3.5h-413q-2 0 -2 6t2 6q39 0 57.5 5t25 19.5t6.5 44.5v463q0 30 -6.5 44t-25 19.5t-57.5 5.5q-2 0 -2 6t2 6h396q9 0 9 -9l2 -121q0 -3 -5.5 -3t-5.5 3q0 51 -27 81t-71 30h-69q-38 0 -56 -5
t-24.5 -19t-6.5 -44v-203h132q46 0 64 15.5t18 53.5q0 2 6 2t6 -2l-1 -79q0 -29 1 -43l1 -47q0 -2 -6 -2t-6 2q0 45 -19 63t-67 18h-129v-231q0 -29 6.5 -42.5t24 -18.5t56.5 -5h92q40 0 68.5 35t36.5 92q0 3 6 2.5zM173.5 730q-10.5 10 -10.5 28t10.5 28t29.5 10
q18 0 28 -10t10 -28t-10 -28t-28 -10q-19 0 -29.5 10zM349 730q-11 10 -11 28t11 28t29 10q19 0 29 -10t10 -28t-10 -28t-29 -10q-18 0 -29 10z" />
    <glyph glyph-name="Igrave" unicode="&#xcc;" horiz-adv-x="330" 
d="M34 0zM198.5 36q6.5 -14 24.5 -19t58 -5q2 0 2 -6t-2 -6q-30 0 -47 1l-70 1l-67 -1q-18 -1 -49 -1q-3 0 -3 6t3 6q39 0 57.5 5t25.5 19.5t7 44.5v463q0 30 -7 44t-25.5 19.5t-57.5 5.5q-3 0 -3 6t3 6l49 -1q42 -2 67 -2q28 0 70 2l47 1q2 0 2 -6t-2 -6q-39 0 -57.5 -6
t-25 -20.5t-6.5 -44.5v-461q0 -31 6.5 -45zM41 756q-7 1 5.5 8.5t29 13.5t20.5 4q40 -23 84.5 -48t87.5 -45q2 -1 2 -4t-2 -5t-4 -1q-113 50 -223 77z" />
    <glyph glyph-name="Iacute" unicode="&#xcd;" horiz-adv-x="330" 
d="M45 0zM198.5 36q6.5 -14 24.5 -19t58 -5q2 0 2 -6t-2 -6q-30 0 -47 1l-70 1l-67 -1q-18 -1 -49 -1q-3 0 -3 6t3 6q39 0 57.5 5t25.5 19.5t7 44.5v463q0 30 -7 44t-25.5 19.5t-57.5 5.5q-3 0 -3 6t3 6l49 -1q42 -2 67 -2q28 0 70 2l47 1q2 0 2 -6t-2 -6q-39 0 -57.5 -6
t-25 -20.5t-6.5 -44.5v-461q0 -31 6.5 -45zM66 678q-4 0 -5 4.5t2 6.5q46 21 122 65l50 28q4 2 20.5 -4t29 -13.5t5.5 -8.5q-62 -15 -113.5 -33.5t-108.5 -43.5z" />
    <glyph glyph-name="Icircumflex" unicode="&#xce;" horiz-adv-x="330" 
d="M45 0zM198.5 36q6.5 -14 24.5 -19t58 -5q2 0 2 -6t-2 -6q-30 0 -47 1l-70 1l-67 -1q-18 -1 -49 -1q-3 0 -3 6t3 6q39 0 57.5 5t25.5 19.5t7 44.5v463q0 30 -7 44t-25.5 19.5t-57.5 5.5q-3 0 -3 6t3 6l49 -1q42 -2 67 -2q28 0 70 2l47 1q2 0 2 -6t-2 -6q-39 0 -57.5 -6
t-25 -20.5t-6.5 -44.5v-461q0 -31 6.5 -45zM154 783q5 5 12 5q6 0 11 -5l102 -93q1 0 1 -2t-2.5 -4t-3.5 -1l-108 62l-109 -62q-2 -1 -5 2.5t-1 4.5z" />
    <glyph glyph-name="Idieresis" unicode="&#xcf;" horiz-adv-x="330" 
d="M45 0zM198.5 36q6.5 -14 24.5 -19t58 -5q2 0 2 -6t-2 -6q-30 0 -47 1l-70 1l-67 -1q-18 -1 -49 -1q-3 0 -3 6t3 6q39 0 57.5 5t25.5 19.5t7 44.5v463q0 30 -7 44t-25.5 19.5t-57.5 5.5q-3 0 -3 6t3 6l49 -1q42 -2 67 -2q28 0 70 2l47 1q2 0 2 -6t-2 -6q-39 0 -57.5 -6
t-25 -20.5t-6.5 -44.5v-461q0 -31 6.5 -45zM66 730q-11 10 -11 28t11 28t29 10q19 0 29 -10t10 -28t-10 -28t-29 -10q-18 0 -29 10zM206.5 730q-10.5 10 -10.5 28t10.5 28t29.5 10q18 0 28 -10t10 -28t-10 -28t-28 -10q-19 0 -29.5 10z" />
    <glyph glyph-name="Eth" unicode="&#xd0;" horiz-adv-x="688" 
d="M469 587q81 -40 125.5 -109t44.5 -155q0 -97 -46.5 -171.5t-124.5 -115t-171 -40.5q-29 0 -65 3q-14 1 -34.5 2t-45.5 1l-66 -1q-18 -1 -50 -1q-2 0 -2 6t2 6q39 0 57.5 5t25.5 19.5t7 44.5v221h-73q-4 0 -4 9t4 9h73v224q0 30 -6.5 44t-25 19.5t-57.5 5.5q-2 0 -2 6t2 6
l49 -1q42 -2 66 -2q35 0 71 3q44 2 60 2q105 0 186 -40zM436 43q65 34 101.5 100t36.5 158q0 88 -34.5 159t-99 112.5t-148.5 41.5q-44 0 -67.5 -5t-34.5 -20.5t-11 -46.5v-222h136q4 0 4 -9t-4 -9h-136v-210q0 -30 9 -48t32 -26.5t67 -8.5q84 0 149 34z" />
    <glyph glyph-name="Ntilde" unicode="&#xd1;" horiz-adv-x="725" 
d="M41 0zM702 619q0 -6 -3 -6q-43 0 -60.5 -21t-17.5 -72v-531q0 -2 -5 -3t-7 1l-452 556l-17 19v-458q0 -51 17 -71.5t59 -20.5q3 0 3 -6t-3 -6q-24 0 -37 1l-48 1l-49 -1q-13 -1 -39 -1q-2 0 -2 6t2 6q43 0 59 20t16 72v479q-35 30 -72 30q-3 0 -3 6t3 6l36 -1
q11 -1 31 -1q17 0 28 1t17 1q7 0 11.5 -3.5t10.5 -14.5q11 -18 24 -34l395 -491v438q0 51 -16 72t-58 21q-2 0 -2 6t2 6l38 -1q30 -2 48 -2q17 0 49 2l39 1q3 0 3 -6zM478.5 744q10.5 7 21.5 20h2q3 0 5 -2.5t0 -4.5q-26 -34 -43 -45.5t-35 -11.5q-15 0 -31 3.5t-32 8.5
q-42 12 -69 12q-16 0 -24.5 -5.5t-15 -12l-9.5 -9.5h-1q-3 0 -5.5 2.5t-0.5 4.5q16 22 38.5 40t45.5 18q17 0 52 -11q44 -14 74 -14q17 0 27.5 7z" />
    <glyph glyph-name="Ograve" unicode="&#xd2;" horiz-adv-x="766" 
d="M49 0zM200.5 31.5q-72.5 43.5 -112 118t-39.5 162.5q0 103 52 176.5t133.5 110.5t166.5 37q95 0 167 -44.5t110.5 -117.5t38.5 -155q0 -91 -48 -167t-128.5 -120t-174.5 -44q-93 0 -165.5 43.5zM530 41q57 33 90 97t33 153q0 94 -36.5 167.5t-103 114.5t-154.5 41
q-116 0 -181 -72t-65 -196q0 -93 36.5 -170.5t102.5 -122.5t150 -45q71 0 128 33zM260 756q-7 1 5.5 8.5t29 13.5t20.5 4q40 -23 84.5 -48t87.5 -45q2 -1 2 -4t-2 -5t-4 -1q-113 50 -223 77z" />
    <glyph glyph-name="Oacute" unicode="&#xd3;" horiz-adv-x="766" 
d="M49 0zM200.5 31.5q-72.5 43.5 -112 118t-39.5 162.5q0 103 52 176.5t133.5 110.5t166.5 37q95 0 167 -44.5t110.5 -117.5t38.5 -155q0 -91 -48 -167t-128.5 -120t-174.5 -44q-93 0 -165.5 43.5zM530 41q57 33 90 97t33 153q0 94 -36.5 167.5t-103 114.5t-154.5 41
q-116 0 -181 -72t-65 -196q0 -93 36.5 -170.5t102.5 -122.5t150 -45q71 0 128 33zM285 678q-4 0 -5 4.5t2 6.5q46 21 122 65l50 28q4 2 20.5 -4t29 -13.5t5.5 -8.5q-62 -15 -113.5 -33.5t-108.5 -43.5z" />
    <glyph glyph-name="Ocircumflex" unicode="&#xd4;" horiz-adv-x="766" 
d="M49 0zM200.5 31.5q-72.5 43.5 -112 118t-39.5 162.5q0 103 52 176.5t133.5 110.5t166.5 37q95 0 167 -44.5t110.5 -117.5t38.5 -155q0 -91 -48 -167t-128.5 -120t-174.5 -44q-93 0 -165.5 43.5zM530 41q57 33 90 97t33 153q0 94 -36.5 167.5t-103 114.5t-154.5 41
q-116 0 -181 -72t-65 -196q0 -93 36.5 -170.5t102.5 -122.5t150 -45q71 0 128 33zM373 783q5 5 12 5q6 0 11 -5l102 -93q1 0 1 -2t-2.5 -4t-3.5 -1l-108 62l-109 -62q-2 -1 -5 2.5t-1 4.5z" />
    <glyph glyph-name="Otilde" unicode="&#xd5;" horiz-adv-x="766" 
d="M49 0zM200.5 31.5q-72.5 43.5 -112 118t-39.5 162.5q0 103 52 176.5t133.5 110.5t166.5 37q95 0 167 -44.5t110.5 -117.5t38.5 -155q0 -91 -48 -167t-128.5 -120t-174.5 -44q-93 0 -165.5 43.5zM530 41q57 33 90 97t33 153q0 94 -36.5 167.5t-103 114.5t-154.5 41
q-116 0 -181 -72t-65 -196q0 -93 36.5 -170.5t102.5 -122.5t150 -45q71 0 128 33zM488.5 744q10.5 7 21.5 20h2q3 0 5 -2.5t0 -4.5q-26 -34 -43 -45.5t-35 -11.5q-15 0 -31 3.5t-32 8.5q-42 12 -69 12q-16 0 -24.5 -5.5t-15 -12l-9.5 -9.5h-1q-3 0 -5.5 2.5t-0.5 4.5
q16 22 38.5 40t45.5 18q17 0 52 -11q44 -14 74 -14q17 0 27.5 7z" />
    <glyph glyph-name="Odieresis" unicode="&#xd6;" horiz-adv-x="766" 
d="M49 0zM200.5 31.5q-72.5 43.5 -112 118t-39.5 162.5q0 103 52 176.5t133.5 110.5t166.5 37q95 0 167 -44.5t110.5 -117.5t38.5 -155q0 -91 -48 -167t-128.5 -120t-174.5 -44q-93 0 -165.5 43.5zM530 41q57 33 90 97t33 153q0 94 -36.5 167.5t-103 114.5t-154.5 41
q-116 0 -181 -72t-65 -196q0 -93 36.5 -170.5t102.5 -122.5t150 -45q71 0 128 33zM267.5 730q-10.5 10 -10.5 28t10.5 28t29.5 10q18 0 28 -10t10 -28t-10 -28t-28 -10q-19 0 -29.5 10zM443 730q-11 10 -11 28t11 28t29 10q19 0 29 -10t10 -28t-10 -28t-29 -10q-18 0 -29 10
z" />
    <glyph glyph-name="multiply" unicode="&#xd7;" horiz-adv-x="378" 
d="M319 87q3 -4 -10 -17t-17 -10l-103 103l-104 -103q-2 -4 -15.5 9.5t-11.5 15.5l105 105l-103 104q-4 2 9.5 15.5t15.5 10.5l104 -104l103 103q4 3 17 -10t10 -17l-103 -102z" />
    <glyph glyph-name="Oslash" unicode="&#xd8;" horiz-adv-x="766" 
d="M692.5 443q24.5 -60 24.5 -124q0 -91 -48 -167t-128.5 -120t-174.5 -44q-64 0 -118.5 21t-96.5 59l-74 -75q0 -1 -2 -1q-3 0 -8 6t-3 9l74 75q-43 44 -66 103.5t-23 126.5q0 103 52 176.5t133.5 110.5t166.5 37q62 0 115 -19.5t94 -55.5l67 68l2 1q5 0 10 -5t2 -7
l-68 -70q45 -45 69.5 -105zM130 226q17 -57 49 -102l394 399q-39 44 -93.5 67.5t-120.5 23.5q-116 0 -181 -72t-65 -196q0 -63 17 -120zM530 41q57 33 90 97t33 153q0 65 -18 120t-51 98l-393 -400q39 -48 93 -74.5t118 -26.5q71 0 128 33z" />
    <glyph glyph-name="Ugrave" unicode="&#xd9;" horiz-adv-x="697" 
d="M26 0zM551.5 590.5q-20.5 22.5 -64.5 22.5q-3 0 -3 6t3 6l42 -1q34 -2 55 -2q18 0 48 2l41 1q2 0 2 -6t-2 -6q-41 0 -60 -22.5t-19 -70.5v-286q0 -117 -63 -182t-170 -65q-74 0 -129 29.5t-85 83.5t-30 125v319q0 30 -6.5 44t-25 19.5t-57.5 5.5q-2 0 -2 6t2 6l48 -1
q42 -2 67 -2q27 0 69 2l46 1q3 0 3 -6t-3 -6q-39 0 -57 -6t-24.5 -20.5t-6.5 -44.5v-282q0 -117 55 -180.5t154 -63.5q91 0 142 57.5t51 159.5v287q0 48 -20.5 70.5zM250 756q-7 1 5.5 8.5t29 13.5t20.5 4q40 -23 84.5 -48t87.5 -45q2 -1 2 -4t-2 -5t-4 -1q-113 50 -223 77z
" />
    <glyph glyph-name="Uacute" unicode="&#xda;" horiz-adv-x="697" 
d="M26 0zM551.5 590.5q-20.5 22.5 -64.5 22.5q-3 0 -3 6t3 6l42 -1q34 -2 55 -2q18 0 48 2l41 1q2 0 2 -6t-2 -6q-41 0 -60 -22.5t-19 -70.5v-286q0 -117 -63 -182t-170 -65q-74 0 -129 29.5t-85 83.5t-30 125v319q0 30 -6.5 44t-25 19.5t-57.5 5.5q-2 0 -2 6t2 6l48 -1
q42 -2 67 -2q27 0 69 2l46 1q3 0 3 -6t-3 -6q-39 0 -57 -6t-24.5 -20.5t-6.5 -44.5v-282q0 -117 55 -180.5t154 -63.5q91 0 142 57.5t51 159.5v287q0 48 -20.5 70.5zM275 678q-4 0 -5 4.5t2 6.5q46 21 122 65l50 28q4 2 20.5 -4t29 -13.5t5.5 -8.5q-62 -15 -113.5 -33.5
t-108.5 -43.5z" />
    <glyph glyph-name="Ucircumflex" unicode="&#xdb;" horiz-adv-x="697" 
d="M26 0zM551.5 590.5q-20.5 22.5 -64.5 22.5q-3 0 -3 6t3 6l42 -1q34 -2 55 -2q18 0 48 2l41 1q2 0 2 -6t-2 -6q-41 0 -60 -22.5t-19 -70.5v-286q0 -117 -63 -182t-170 -65q-74 0 -129 29.5t-85 83.5t-30 125v319q0 30 -6.5 44t-25 19.5t-57.5 5.5q-2 0 -2 6t2 6l48 -1
q42 -2 67 -2q27 0 69 2l46 1q3 0 3 -6t-3 -6q-39 0 -57 -6t-24.5 -20.5t-6.5 -44.5v-282q0 -117 55 -180.5t154 -63.5q91 0 142 57.5t51 159.5v287q0 48 -20.5 70.5zM363 783q5 5 12 5q6 0 11 -5l102 -93q1 0 1 -2t-2.5 -4t-3.5 -1l-108 62l-109 -62q-2 -1 -5 2.5t-1 4.5z
" />
    <glyph glyph-name="Udieresis" unicode="&#xdc;" horiz-adv-x="697" 
d="M26 0zM551.5 590.5q-20.5 22.5 -64.5 22.5q-3 0 -3 6t3 6l42 -1q34 -2 55 -2q18 0 48 2l41 1q2 0 2 -6t-2 -6q-41 0 -60 -22.5t-19 -70.5v-286q0 -117 -63 -182t-170 -65q-74 0 -129 29.5t-85 83.5t-30 125v319q0 30 -6.5 44t-25 19.5t-57.5 5.5q-2 0 -2 6t2 6l48 -1
q42 -2 67 -2q27 0 69 2l46 1q3 0 3 -6t-3 -6q-39 0 -57 -6t-24.5 -20.5t-6.5 -44.5v-282q0 -117 55 -180.5t154 -63.5q91 0 142 57.5t51 159.5v287q0 48 -20.5 70.5zM257.5 730q-10.5 10 -10.5 28t10.5 28t29.5 10q18 0 28 -10t10 -28t-10 -28t-28 -10q-19 0 -29.5 10z
M433 730q-11 10 -11 28t11 28t29 10q19 0 29 -10t10 -28t-10 -28t-29 -10q-18 0 -29 10z" />
    <glyph glyph-name="Yacute" unicode="&#xdd;" horiz-adv-x="607" 
d="M0 0zM613 619q0 -6 -2 -6q-37 0 -72 -23.5t-63 -66.5l-141 -214v-228q0 -31 6 -45t24 -19t58 -5q3 0 3 -6t-3 -6q-30 0 -47 1l-68 1l-68 -1q-18 -1 -48 -1q-3 0 -3 6t3 6q39 0 57.5 5t25.5 19.5t7 44.5v213l-171 248q-26 39 -51 55t-62 16q-3 0 -3 6t3 6l37 -1
q24 -2 36 -2q33 0 81 2l52 1q2 0 2 -6t-2 -6q-30 0 -43.5 -4.5t-13.5 -14.5q0 -6 10 -21l168 -241l128 194q22 36 22 55q0 32 -54 32q-2 0 -2 6t2 6l45 -1q38 -2 67 -2q17 0 41 2l37 1q2 0 2 -6zM217 678q-4 0 -5 4.5t2 6.5q46 21 122 65l50 28q4 2 20.5 -4t29 -13.5
t5.5 -8.5q-62 -15 -113.5 -33.5t-108.5 -43.5z" />
    <glyph glyph-name="Thorn" unicode="&#xde;" horiz-adv-x="535" 
d="M385.5 190.5q49.5 43.5 49.5 125.5q0 80 -49.5 125.5t-129.5 45.5q-37 0 -70 -9v-393q0 -32 9 -46.5t34.5 -20.5t81.5 -6q3 0 3 -6t-3 -6q-41 0 -64 1l-87 1l-66 -1q-18 -1 -50 -1q-2 0 -2 6t2 6q39 0 57.5 5t25 19.5t6.5 44.5v463q0 30 -6.5 44t-25 19.5t-57.5 5.5
q-2 0 -2 6t2 6l50 -1q40 -2 66 -2q35 0 87 2l64 1q3 0 3 -6t-3 -6q-56 0 -81.5 -6t-34.5 -21t-9 -47v-48q43 8 95 8q98 0 157 -40t59 -130q0 -65 -33 -109t-84 -65.5t-104 -21.5q-24 0 -49 5q-3 0 -3 5q0 3 1.5 6t3.5 2q24 -4 36 -4q71 0 120.5 43.5z" />
    <glyph glyph-name="germandbls" unicode="&#xdf;" horiz-adv-x="491" 
d="M264 20q-6 4 -6 12l-2 84q0 2 5.5 2.5t6.5 -1.5q32 -109 102 -109q25 0 41.5 18.5t16.5 49.5q0 38 -20.5 68.5t-60.5 70.5q-42 42 -64.5 76t-22.5 75q0 31 12 54.5t35 53.5q25 33 38 59t13 62q0 45 -20 81t-71 36q-60 0 -94 -70.5t-34 -195.5v-365q0 -30 5 -44.5
t18.5 -19.5t43.5 -5q2 0 2 -6t-2 -6l-90 1l-96 -1q-3 0 -3 6t3 6q31 0 45.5 5t20 19.5t5.5 44.5l-1 367q0 132 52.5 205t145.5 73q62 0 90.5 -31t28.5 -68q0 -32 -14.5 -57.5t-42.5 -59.5q-27 -32 -40 -54.5t-13 -49.5q0 -33 21.5 -63.5t63.5 -73.5q43 -45 65 -78t22 -72
q0 -32 -16 -62t-45.5 -49t-67.5 -19q-42 0 -76 31z" />
    <glyph glyph-name="agrave" unicode="&#xe0;" horiz-adv-x="419" 
d="M57 0zM414 54q4 0 5 -4.5t-3 -6.5l-103 -49q-4 -2 -8 -2q-11 0 -20.5 18t-11.5 49l-66 -36q-33 -17 -51 -23.5t-36 -6.5q-31 0 -47 16.5t-16 40.5q0 25 20 41.5t70 34.5l126 45v84q0 68 -18.5 94t-49.5 26q-36 0 -56 -26t-25 -58q-2 -14 -8.5 -23.5t-23.5 -9.5
q-14 0 -22 7t-8 20q0 22 28.5 48t69.5 44t75 18q38 0 61 -27.5t23 -82.5v-177q0 -37 8.5 -53t29.5 -16q19 0 55 15h2zM273 71v3v86l-116 -44q-22 -8 -31 -19t-9 -28q0 -21 12 -32.5t32 -11.5q18 0 38 9zM127.5 730.5q12.5 -1.5 26.5 -6t14 -8.5l56 -240q2 -2 -3.5 -3.5
t-6.5 1.5l-97 253q-2 5 10.5 3.5z" />
    <glyph glyph-name="aacute" unicode="&#xe1;" horiz-adv-x="419" 
d="M57 0zM414 54q4 0 5 -4.5t-3 -6.5l-103 -49q-4 -2 -8 -2q-11 0 -20.5 18t-11.5 49l-66 -36q-33 -17 -51 -23.5t-36 -6.5q-31 0 -47 16.5t-16 40.5q0 25 20 41.5t70 34.5l126 45v84q0 68 -18.5 94t-49.5 26q-36 0 -56 -26t-25 -58q-2 -14 -8.5 -23.5t-23.5 -9.5
q-14 0 -22 7t-8 20q0 22 28.5 48t69.5 44t75 18q38 0 61 -27.5t23 -82.5v-177q0 -37 8.5 -53t29.5 -16q19 0 55 15h2zM273 71v3v86l-116 -44q-22 -8 -31 -19t-9 -28q0 -21 12 -32.5t32 -11.5q18 0 38 9zM202 472q-3 0 -5.5 1.5t-1.5 2.5l57 240q1 4 14.5 8.5t26 6t10.5 -3.5
l-97 -253q0 -2 -4 -2z" />
    <glyph glyph-name="acircumflex" unicode="&#xe2;" horiz-adv-x="419" 
d="M57 0zM414 54q4 0 5 -4.5t-3 -6.5l-103 -49q-4 -2 -8 -2q-11 0 -20.5 18t-11.5 49l-66 -36q-33 -17 -51 -23.5t-36 -6.5q-31 0 -47 16.5t-16 40.5q0 25 20 41.5t70 34.5l126 45v84q0 68 -18.5 94t-49.5 26q-36 0 -56 -26t-25 -58q-2 -14 -8.5 -23.5t-23.5 -9.5
q-14 0 -22 7t-8 20q0 22 28.5 48t69.5 44t75 18q38 0 61 -27.5t23 -82.5v-177q0 -37 8.5 -53t29.5 -16q19 0 55 15h2zM273 71v3v86l-116 -44q-22 -8 -31 -19t-9 -28q0 -21 12 -32.5t32 -11.5q18 0 38 9zM283.5 472.5q-5.5 -1.5 -6.5 1.5l-68 179l-69 -179q0 -2 -4 -2
q-3 0 -5.5 1.5t-1.5 2.5l68 249q0 5 11 5q9 0 12 -5l67 -249q2 -2 -3.5 -3.5z" />
    <glyph glyph-name="atilde" unicode="&#xe3;" horiz-adv-x="419" 
d="M57 0zM414 54q4 0 5 -4.5t-3 -6.5l-103 -49q-4 -2 -8 -2q-11 0 -20.5 18t-11.5 49l-66 -36q-33 -17 -51 -23.5t-36 -6.5q-31 0 -47 16.5t-16 40.5q0 25 20 41.5t70 34.5l126 45v84q0 68 -18.5 94t-49.5 26q-36 0 -56 -26t-25 -58q-2 -14 -8.5 -23.5t-23.5 -9.5
q-14 0 -22 7t-8 20q0 22 28.5 48t69.5 44t75 18q38 0 61 -27.5t23 -82.5v-177q0 -37 8.5 -53t29.5 -16q19 0 55 15h2zM273 71v3v86l-116 -44q-22 -8 -31 -19t-9 -28q0 -21 12 -32.5t32 -11.5q18 0 38 9zM312.5 529q10.5 7 21.5 20h1q3 0 5.5 -2.5t0.5 -4.5q-26 -34 -43 -46
t-35 -12q-15 0 -31 3.5t-32 8.5t-34 9t-35 4q-16 0 -24.5 -5.5t-15 -12l-9.5 -9.5h-2q-3 0 -5 2.5t0 4.5q16 22 38.5 39.5t45.5 17.5q14 0 31.5 -4.5t20.5 -5.5q44 -14 74 -14q17 0 27.5 7z" />
    <glyph glyph-name="adieresis" unicode="&#xe4;" horiz-adv-x="419" 
d="M57 0zM414 54q4 0 5 -4.5t-3 -6.5l-103 -49q-4 -2 -8 -2q-11 0 -20.5 18t-11.5 49l-66 -36q-33 -17 -51 -23.5t-36 -6.5q-31 0 -47 16.5t-16 40.5q0 25 20 41.5t70 34.5l126 45v84q0 68 -18.5 94t-49.5 26q-36 0 -56 -26t-25 -58q-2 -14 -8.5 -23.5t-23.5 -9.5
q-14 0 -22 7t-8 20q0 22 28.5 48t69.5 44t75 18q38 0 61 -27.5t23 -82.5v-177q0 -37 8.5 -53t29.5 -16q19 0 55 15h2zM273 71v3v86l-116 -44q-22 -8 -31 -19t-9 -28q0 -21 12 -32.5t32 -11.5q18 0 38 9zM91.5 491q-10.5 10 -10.5 28t10.5 28t29.5 10q18 0 28 -10t10 -28
t-10 -28t-28 -10q-19 0 -29.5 10zM267 491q-11 10 -11 28t11 28t29 10q19 0 29 -10t10 -28t-10 -28t-29 -10q-18 0 -29 10z" />
    <glyph glyph-name="aring" unicode="&#xe5;" horiz-adv-x="419" 
d="M57 0zM414 54q4 0 5 -4.5t-3 -6.5l-103 -49q-4 -2 -8 -2q-11 0 -20.5 18t-11.5 49l-66 -36q-33 -17 -51 -23.5t-36 -6.5q-31 0 -47 16.5t-16 40.5q0 25 20 41.5t70 34.5l126 45v84q0 68 -18.5 94t-49.5 26q-36 0 -56 -26t-25 -58q-2 -14 -8.5 -23.5t-23.5 -9.5
q-14 0 -22 7t-8 20q0 22 28.5 48t69.5 44t75 18q38 0 61 -27.5t23 -82.5v-177q0 -37 8.5 -53t29.5 -16q19 0 55 15h2zM273 71v3v86l-116 -44q-22 -8 -31 -19t-9 -28q0 -21 12 -32.5t32 -11.5q18 0 38 9zM139 491.5q-23 23.5 -23 55.5q0 36 29 57t64 21q34 0 58.5 -23.5
t24.5 -56.5q0 -35 -28.5 -56t-64.5 -21q-37 0 -60 23.5zM244 489q9 12 9 38q0 36 -18.5 62t-45.5 26q-19 0 -27 -11.5t-8 -36.5q0 -34 16.5 -62t44.5 -28q20 0 29 12z" />
    <glyph glyph-name="ae" unicode="&#xe6;" horiz-adv-x="589" 
d="M548 54q3 0 6 -3.5t0 -6.5q-32 -30 -63.5 -43t-70.5 -13q-97 0 -134 76l-86 -44q-32 -16 -48 -21.5t-35 -5.5q-31 0 -49 16.5t-18 41.5q0 24 19 38.5t71 33.5l123 42v5q-4 86 -9 126t-20.5 61.5t-49.5 21.5q-35 0 -50.5 -24.5t-21.5 -63.5q-3 -33 -30 -33q-15 0 -23 8
t-8 21q0 22 24.5 47.5t61 43t69.5 17.5q34 0 61 -20t34 -53q28 34 66.5 53.5t83.5 19.5q47 0 73 -26.5t26 -72.5q0 -12 -2.5 -17t-9.5 -5l-221 -1q-6 -25 -6 -58q2 -49 10 -90t38 -74t89 -33q31 0 55 8.5t44 27.5h1zM356 351.5q-26 -23.5 -37 -66.5l171 4q0 41 -20 63.5
t-52 22.5q-36 0 -62 -23.5zM282 73q-13 33 -18 81l-114 -42q-23 -8 -31.5 -16.5t-8.5 -24.5q0 -21 12 -33.5t32 -12.5q24 0 38 5z" />
    <glyph glyph-name="ccedilla" unicode="&#xe7;" horiz-adv-x="407" 
d="M370 54q3 0 5.5 -3t-0.5 -5q-34 -30 -69 -44t-76 -14h-7q-13 -41 -13 -51q0 -11 6.5 -17t19 -13t19.5 -11q25 -14 39.5 -32t14.5 -45q0 -36 -25.5 -65t-73.5 -29q-26 0 -44 9.5t-18 26.5q0 12 8 19.5t20 7.5q10 0 15.5 -5t10.5 -15q8 -12 15 -18t22 -6q37 0 37 41
q0 26 -18.5 46.5t-67.5 46.5q-8 4 -12 7t-4 7q0 5 6 17q15 36 30 80q-58 4 -97 33t-57.5 72.5t-18.5 90.5q0 64 31.5 111.5t81 73t101.5 25.5q43 0 78.5 -17t35.5 -40q0 -12 -8 -20.5t-21 -8.5q-23 0 -40 28q-13 19 -30.5 28.5t-46.5 9.5q-60 0 -92.5 -43.5t-32.5 -117.5
q0 -84 43 -139.5t128 -55.5q64 0 103 35h2z" />
    <glyph glyph-name="egrave" unicode="&#xe8;" horiz-adv-x="405" 
d="M37 0zM358 54q3 0 5.5 -3.5t0.5 -6.5q-66 -56 -143 -56q-58 0 -100 27t-63 70.5t-21 94.5q0 60 28 109t76.5 77.5t107.5 28.5q52 0 81 -26.5t29 -72.5q0 -12 -2.5 -17t-9.5 -5l-248 -1q-5 -28 -5 -55q0 -88 42.5 -143t116.5 -55q59 0 104 34h1zM142.5 351.5
q-28.5 -23.5 -40.5 -67.5l197 5q0 41 -23 63.5t-61 22.5q-44 0 -72.5 -23.5zM144.5 730.5q12.5 -1.5 26.5 -6t14 -8.5l56 -240q2 -2 -3.5 -3.5t-6.5 1.5l-97 253q-2 5 10.5 3.5z" />
    <glyph glyph-name="eacute" unicode="&#xe9;" horiz-adv-x="405" 
d="M37 0zM358 54q3 0 5.5 -3.5t0.5 -6.5q-66 -56 -143 -56q-58 0 -100 27t-63 70.5t-21 94.5q0 60 28 109t76.5 77.5t107.5 28.5q52 0 81 -26.5t29 -72.5q0 -12 -2.5 -17t-9.5 -5l-248 -1q-5 -28 -5 -55q0 -88 42.5 -143t116.5 -55q59 0 104 34h1zM142.5 351.5
q-28.5 -23.5 -40.5 -67.5l197 5q0 41 -23 63.5t-61 22.5q-44 0 -72.5 -23.5zM219 472q-3 0 -5.5 1.5t-1.5 2.5l57 240q1 4 14.5 8.5t26 6t10.5 -3.5l-97 -253q0 -2 -4 -2z" />
    <glyph glyph-name="ecircumflex" unicode="&#xea;" horiz-adv-x="405" 
d="M37 0zM358 54q3 0 5.5 -3.5t0.5 -6.5q-66 -56 -143 -56q-58 0 -100 27t-63 70.5t-21 94.5q0 60 28 109t76.5 77.5t107.5 28.5q52 0 81 -26.5t29 -72.5q0 -12 -2.5 -17t-9.5 -5l-248 -1q-5 -28 -5 -55q0 -88 42.5 -143t116.5 -55q59 0 104 34h1zM142.5 351.5
q-28.5 -23.5 -40.5 -67.5l197 5q0 41 -23 63.5t-61 22.5q-44 0 -72.5 -23.5zM300.5 472.5q-5.5 -1.5 -6.5 1.5l-68 179l-69 -179q0 -2 -4 -2q-3 0 -5.5 1.5t-1.5 2.5l68 249q1 5 11 5q11 0 12 -5l67 -249q2 -2 -3.5 -3.5z" />
    <glyph glyph-name="edieresis" unicode="&#xeb;" horiz-adv-x="405" 
d="M37 0zM358 54q3 0 5.5 -3.5t0.5 -6.5q-66 -56 -143 -56q-58 0 -100 27t-63 70.5t-21 94.5q0 60 28 109t76.5 77.5t107.5 28.5q52 0 81 -26.5t29 -72.5q0 -12 -2.5 -17t-9.5 -5l-248 -1q-5 -28 -5 -55q0 -88 42.5 -143t116.5 -55q59 0 104 34h1zM142.5 351.5
q-28.5 -23.5 -40.5 -67.5l197 5q0 41 -23 63.5t-61 22.5q-44 0 -72.5 -23.5zM108.5 491q-10.5 10 -10.5 28t10.5 28t29.5 10q18 0 28 -10t10 -28t-10 -28t-28 -10q-19 0 -29.5 10zM284 491q-11 10 -11 28t11 28t29 10q19 0 29 -10t10 -28t-10 -28t-29 -10q-18 0 -29 10z" />
    <glyph glyph-name="igrave" unicode="&#xec;" horiz-adv-x="275" 
d="M33 0zM55 6q0 6 2 6q29 0 42.5 5t18.5 19.5t5 44.5v189q0 37 -7.5 53t-25.5 16q-19 0 -48 -15h-1q-4 0 -6 5t2 7l124 58l4 1q2 0 4.5 -2t2.5 -5q0 -6 -1 -39.5t-1 -77.5v-190q0 -30 4.5 -44.5t18 -19.5t42.5 -5q3 0 3 -6t-3 -6q-23 0 -36 1l-53 1l-52 -1q-14 -1 -37 -1
q-2 0 -2 6zM57.5 730.5q12.5 -1.5 26.5 -6t14 -8.5l56 -240q2 -2 -3.5 -3.5t-6.5 1.5l-97 253q-2 5 10.5 3.5z" />
    <glyph glyph-name="iacute" unicode="&#xed;" horiz-adv-x="275" 
d="M33 0zM55 6q0 6 2 6q29 0 42.5 5t18.5 19.5t5 44.5v189q0 37 -7.5 53t-25.5 16q-19 0 -48 -15h-1q-4 0 -6 5t2 7l124 58l4 1q2 0 4.5 -2t2.5 -5q0 -6 -1 -39.5t-1 -77.5v-190q0 -30 4.5 -44.5t18 -19.5t42.5 -5q3 0 3 -6t-3 -6q-23 0 -36 1l-53 1l-52 -1q-14 -1 -37 -1
q-2 0 -2 6zM132 472q-3 0 -5.5 1.5t-1.5 2.5l57 240q1 4 14.5 8.5t26 6t10.5 -3.5l-97 -253q0 -2 -4 -2z" />
    <glyph glyph-name="icircumflex" unicode="&#xee;" horiz-adv-x="275" 
d="M33 0zM55 6q0 6 2 6q29 0 42.5 5t18.5 19.5t5 44.5v189q0 37 -7.5 53t-25.5 16q-19 0 -48 -15h-1q-4 0 -6 5t2 7l124 58l4 1q2 0 4.5 -2t2.5 -5q0 -6 -1 -39.5t-1 -77.5v-190q0 -30 4.5 -44.5t18 -19.5t42.5 -5q3 0 3 -6t-3 -6q-23 0 -36 1l-53 1l-52 -1q-14 -1 -37 -1
q-2 0 -2 6zM213.5 472.5q-5.5 -1.5 -6.5 1.5l-68 179l-69 -179q0 -2 -4 -2q-3 0 -5.5 1.5t-1.5 2.5l68 249q1 5 11 5q11 0 12 -5l67 -249q2 -2 -3.5 -3.5z" />
    <glyph glyph-name="idieresis" unicode="&#xef;" horiz-adv-x="275" 
d="M28 0zM55 6q0 6 2 6q29 0 42.5 5t18.5 19.5t5 44.5v189q0 37 -7.5 53t-25.5 16q-19 0 -48 -15h-1q-4 0 -6 5t2 7l124 58l4 1q2 0 4.5 -2t2.5 -5q0 -6 -1 -39.5t-1 -77.5v-190q0 -30 4.5 -44.5t18 -19.5t42.5 -5q3 0 3 -6t-3 -6q-23 0 -36 1l-53 1l-52 -1q-14 -1 -37 -1
q-2 0 -2 6zM39 491q-11 10 -11 28t11 28t29 10q19 0 29 -10t10 -28t-10 -28t-29 -10q-18 0 -29 10zM179.5 491q-10.5 10 -10.5 28t10.5 28t29.5 10q18 0 28 -10t10 -28t-10 -28t-28 -10q-19 0 -29.5 10z" />
    <glyph glyph-name="eth" unicode="&#xf0;" horiz-adv-x="470" 
d="M398.5 404q34.5 -89 34.5 -177q0 -121 -59 -180.5t-151 -59.5q-56 0 -98 27t-65 73t-23 99q0 69 31 117t78 72t95 24q60 0 109 -37q-29 99 -89 187l-136 -65h-1q-4 0 -6.5 8t1.5 10l131 62q-72 98 -160 152q-2 2 -2 3q0 2 2.5 4.5t5.5 1.5q110 -51 192 -143l105 50h1
q4 0 6.5 -8.5t-1.5 -9.5l-98 -46q63 -75 97.5 -164zM343 47.5q32 42.5 32 143.5q0 54 -11 111q-19 37 -55 58t-81 21q-58 0 -96 -44t-38 -122q0 -57 19.5 -105t55.5 -76.5t82 -28.5q60 0 92 42.5z" />
    <glyph glyph-name="ntilde" unicode="&#xf1;" horiz-adv-x="515" 
d="M10 0zM495 6q0 -6 -3 -6q-23 0 -36 1l-52 1l-53 -1q-13 -1 -36 -1q-3 0 -3 6t3 6q29 0 42 5t18 19.5t5 44.5v167q0 61 -23 89t-72 28q-32 0 -65.5 -18.5t-61.5 -50.5v-215q0 -30 4.5 -44.5t18 -19.5t42.5 -5q3 0 3 -6t-3 -6q-23 0 -36 1l-52 1l-53 -1q-13 -1 -36 -1
q-3 0 -3 6t3 6q29 0 42 5t18 19.5t5 44.5v200q0 35 -8 50t-28 15q-16 0 -56 -15h-2q-4 0 -5.5 4.5t2.5 6.5l111 52q2 1 5 1q8 0 18 -22.5t10 -57.5v-4q40 46 77 67t77 21q56 0 85.5 -30t29.5 -91v-197q0 -30 4.5 -44.5t18 -19.5t42.5 -5q3 0 3 -6zM373.5 529q10.5 7 21.5 20
h1q3 0 5.5 -2.5t0.5 -4.5q-26 -34 -43 -46t-35 -12q-15 0 -31 3.5t-32 8.5t-34 9t-35 4q-16 0 -24.5 -5.5t-15 -12l-9.5 -9.5h-2q-3 0 -5 2.5t0 4.5q16 22 38.5 39.5t45.5 17.5q14 0 31.5 -4.5t20.5 -5.5q44 -14 74 -14q17 0 27.5 7z" />
    <glyph glyph-name="ograve" unicode="&#xf2;" horiz-adv-x="477" 
d="M37 0zM129 15.5q-44 28.5 -68 77t-24 105.5q0 65 31.5 110.5t80 68t99.5 22.5q58 0 101.5 -29t67 -76.5t23.5 -100.5q0 -62 -28.5 -109t-76.5 -72t-105 -25t-101 28.5zM349 44q33 39 33 123q0 60 -21 108.5t-59 76.5t-87 28q-57 0 -89 -39.5t-32 -113.5q0 -60 21 -110.5
t58 -81t85 -30.5q58 0 91 39zM158.5 730.5q12.5 -1.5 26.5 -6t14 -8.5l56 -240q2 -2 -3.5 -3.5t-6.5 1.5l-97 253q-2 5 10.5 3.5z" />
    <glyph glyph-name="oacute" unicode="&#xf3;" horiz-adv-x="477" 
d="M37 0zM129 15.5q-44 28.5 -68 77t-24 105.5q0 65 31.5 110.5t80 68t99.5 22.5q58 0 101.5 -29t67 -76.5t23.5 -100.5q0 -62 -28.5 -109t-76.5 -72t-105 -25t-101 28.5zM349 44q33 39 33 123q0 60 -21 108.5t-59 76.5t-87 28q-57 0 -89 -39.5t-32 -113.5q0 -60 21 -110.5
t58 -81t85 -30.5q58 0 91 39zM233 472q-3 0 -5.5 1.5t-1.5 2.5l57 240q1 4 14.5 8.5t26 6t10.5 -3.5l-97 -253q0 -2 -4 -2z" />
    <glyph glyph-name="ocircumflex" unicode="&#xf4;" horiz-adv-x="477" 
d="M37 0zM129 15.5q-44 28.5 -68 77t-24 105.5q0 65 31.5 110.5t80 68t99.5 22.5q58 0 101.5 -29t67 -76.5t23.5 -100.5q0 -62 -28.5 -109t-76.5 -72t-105 -25t-101 28.5zM349 44q33 39 33 123q0 60 -21 108.5t-59 76.5t-87 28q-57 0 -89 -39.5t-32 -113.5q0 -60 21 -110.5
t58 -81t85 -30.5q58 0 91 39zM314.5 472.5q-5.5 -1.5 -6.5 1.5l-68 179l-69 -179q0 -2 -4 -2q-3 0 -5.5 1.5t-1.5 2.5l68 249q1 5 11 5q11 0 12 -5l67 -249q2 -2 -3.5 -3.5z" />
    <glyph glyph-name="otilde" unicode="&#xf5;" horiz-adv-x="477" 
d="M37 0zM129 15.5q-44 28.5 -68 77t-24 105.5q0 65 31.5 110.5t80 68t99.5 22.5q58 0 101.5 -29t67 -76.5t23.5 -100.5q0 -62 -28.5 -109t-76.5 -72t-105 -25t-101 28.5zM349 44q33 39 33 123q0 60 -21 108.5t-59 76.5t-87 28q-57 0 -89 -39.5t-32 -113.5q0 -60 21 -110.5
t58 -81t85 -30.5q58 0 91 39zM343.5 529q10.5 7 21.5 20h1q3 0 5.5 -2.5t0.5 -4.5q-26 -34 -43 -46t-35 -12q-15 0 -31 3.5t-32 8.5t-34 9t-35 4q-16 0 -24.5 -5.5t-15 -12l-9.5 -9.5h-2q-3 0 -5 2.5t0 4.5q16 22 38.5 39.5t45.5 17.5q14 0 31.5 -4.5t20.5 -5.5
q44 -14 74 -14q17 0 27.5 7z" />
    <glyph glyph-name="odieresis" unicode="&#xf6;" horiz-adv-x="477" 
d="M37 0zM129 15.5q-44 28.5 -68 77t-24 105.5q0 65 31.5 110.5t80 68t99.5 22.5q58 0 101.5 -29t67 -76.5t23.5 -100.5q0 -62 -28.5 -109t-76.5 -72t-105 -25t-101 28.5zM349 44q33 39 33 123q0 60 -21 108.5t-59 76.5t-87 28q-57 0 -89 -39.5t-32 -113.5q0 -60 21 -110.5
t58 -81t85 -30.5q58 0 91 39zM122.5 491q-10.5 10 -10.5 28t10.5 28t29.5 10q18 0 28 -10t10 -28t-10 -28t-28 -10q-19 0 -29.5 10zM298 491q-11 10 -11 28t11 28t29 10q19 0 29 -10t10 -28t-10 -28t-29 -10q-18 0 -29 10z" />
    <glyph glyph-name="divide" unicode="&#xf7;" horiz-adv-x="398" 
d="M168.5 330.5q-10.5 10.5 -10.5 28.5q0 17 10.5 27t29.5 10q18 0 28 -10t10 -27q0 -18 -10 -28.5t-28 -10.5q-19 0 -29.5 10.5zM30.5 177.5q-1.5 6.5 -1.5 13.5q0 6 1 11.5t3 5.5h331q2 0 3.5 -5.5t1.5 -12.5t-1.5 -13t-3.5 -6h-330q-2 0 -3.5 6.5zM168.5 -0.5
q-10.5 10.5 -10.5 28.5q0 17 10.5 27t29.5 10q18 0 28 -10t10 -27q0 -18 -10 -28.5t-28 -10.5q-19 0 -29.5 10.5z" />
    <glyph glyph-name="oslash" unicode="&#xf8;" horiz-adv-x="477" 
d="M426.5 270.5q13.5 -37.5 13.5 -77.5q0 -62 -28.5 -109t-76.5 -72t-105 -25q-76 0 -130 52l-51 -53q0 -1 -2 -1q-3 0 -8 6t-3 9l51 53q-24 29 -37 66.5t-13 78.5q0 65 31.5 110.5t80 68t99.5 22.5q75 0 127 -49l47 48l2 1q4 0 9.5 -5t2.5 -8l-48 -50q25 -28 38.5 -65.5z
M126 93l214 220q-22 32 -54 49.5t-71 17.5q-57 0 -89 -39.5t-32 -113.5q0 -76 32 -134zM349 44q33 39 33 123q0 77 -32 130l-214 -221q23 -33 54 -52t68 -19q58 0 91 39z" />
    <glyph glyph-name="ugrave" unicode="&#xf9;" horiz-adv-x="490" 
d="M2 0zM484 55q4 0 5.5 -4.5t-2.5 -6.5l-112 -52l-4 -1q-9 0 -18.5 22.5t-9.5 57.5v9q-41 -46 -81 -66.5t-82 -20.5q-49 0 -76.5 31t-27.5 91v155q0 41 -6.5 58.5t-22.5 17.5q-15 0 -36 -10h-2q-4 0 -5.5 5t2.5 6l105 47l4 1q2 0 5 -2t3 -5v-243q0 -60 21 -89t63 -29
q35 0 71 18.5t65 51.5v173q0 41 -6.5 58.5t-23.5 17.5q-15 0 -36 -10h-2q-4 0 -5 5t3 6l105 47l3 1q3 0 5.5 -2t2.5 -5v-283q0 -34 8.5 -49.5t28.5 -15.5q10 0 24.5 4.5t31.5 10.5h2zM152.5 730.5q12.5 -1.5 26.5 -6t14 -8.5l56 -240q2 -2 -3.5 -3.5t-6.5 1.5l-97 253
q-2 5 10.5 3.5z" />
    <glyph glyph-name="uacute" unicode="&#xfa;" horiz-adv-x="490" 
d="M2 0zM484 55q4 0 5.5 -4.5t-2.5 -6.5l-112 -52l-4 -1q-9 0 -18.5 22.5t-9.5 57.5v9q-41 -46 -81 -66.5t-82 -20.5q-49 0 -76.5 31t-27.5 91v155q0 41 -6.5 58.5t-22.5 17.5q-15 0 -36 -10h-2q-4 0 -5.5 5t2.5 6l105 47l4 1q2 0 5 -2t3 -5v-243q0 -60 21 -89t63 -29
q35 0 71 18.5t65 51.5v173q0 41 -6.5 58.5t-23.5 17.5q-15 0 -36 -10h-2q-4 0 -5 5t3 6l105 47l3 1q3 0 5.5 -2t2.5 -5v-283q0 -34 8.5 -49.5t28.5 -15.5q10 0 24.5 4.5t31.5 10.5h2zM227 472q-3 0 -5.5 1.5t-1.5 2.5l57 240q1 4 14.5 8.5t26 6t10.5 -3.5l-97 -253
q0 -2 -4 -2z" />
    <glyph glyph-name="ucircumflex" unicode="&#xfb;" horiz-adv-x="490" 
d="M2 0zM484 55q4 0 5.5 -4.5t-2.5 -6.5l-112 -52l-4 -1q-9 0 -18.5 22.5t-9.5 57.5v9q-41 -46 -81 -66.5t-82 -20.5q-49 0 -76.5 31t-27.5 91v155q0 41 -6.5 58.5t-22.5 17.5q-15 0 -36 -10h-2q-4 0 -5.5 5t2.5 6l105 47l4 1q2 0 5 -2t3 -5v-243q0 -60 21 -89t63 -29
q35 0 71 18.5t65 51.5v173q0 41 -6.5 58.5t-23.5 17.5q-15 0 -36 -10h-2q-4 0 -5 5t3 6l105 47l3 1q3 0 5.5 -2t2.5 -5v-283q0 -34 8.5 -49.5t28.5 -15.5q10 0 24.5 4.5t31.5 10.5h2zM308.5 472.5q-5.5 -1.5 -6.5 1.5l-68 179l-69 -179q0 -2 -4 -2q-3 0 -5.5 1.5t-1.5 2.5
l68 249q1 5 11 5q11 0 12 -5l67 -249q2 -2 -3.5 -3.5z" />
    <glyph glyph-name="udieresis" unicode="&#xfc;" horiz-adv-x="490" 
d="M2 0zM484 55q4 0 5.5 -4.5t-2.5 -6.5l-112 -52l-4 -1q-9 0 -18.5 22.5t-9.5 57.5v9q-41 -46 -81 -66.5t-82 -20.5q-49 0 -76.5 31t-27.5 91v155q0 41 -6.5 58.5t-22.5 17.5q-15 0 -36 -10h-2q-4 0 -5.5 5t2.5 6l105 47l4 1q2 0 5 -2t3 -5v-243q0 -60 21 -89t63 -29
q35 0 71 18.5t65 51.5v173q0 41 -6.5 58.5t-23.5 17.5q-15 0 -36 -10h-2q-4 0 -5 5t3 6l105 47l3 1q3 0 5.5 -2t2.5 -5v-283q0 -34 8.5 -49.5t28.5 -15.5q10 0 24.5 4.5t31.5 10.5h2zM116.5 491q-10.5 10 -10.5 28t10.5 28t29.5 10q18 0 28 -10t10 -28t-10 -28t-28 -10
q-19 0 -29.5 10zM292 491q-11 10 -11 28t11 28t29 10q19 0 29 -10t10 -28t-10 -28t-29 -10q-18 0 -29 10z" />
    <glyph glyph-name="yacute" unicode="&#xfd;" horiz-adv-x="437" 
d="M0 0zM432 380q0 -6 -3 -6q-24 0 -41 -15t-31 -54l-125 -333q-37 -97 -69.5 -151.5t-67.5 -78t-81 -23.5q-20 0 -34 9.5t-14 27.5q0 11 8 18t19 7q21 0 41 -12q9 -6 16.5 -8.5t18.5 -2.5q25 0 47 22t47.5 73t60.5 144l-150 306q-23 44 -35 57.5t-31 13.5q-2 0 -2 6t2 6
q21 0 31 -1l31 -1l62 1q14 1 39 1q2 0 2 -6t-2 -6q-60 0 -60 -24q0 -7 4 -15l136 -278l85 244q8 22 8 36q0 21 -18.5 29t-62.5 8q-2 0 -2 6t2 6q27 0 41 -1l60 -1l35 1q9 1 30 1q3 0 3 -6zM219 472q-3 0 -5.5 1.5t-1.5 2.5l57 240q1 4 14.5 8.5t26 6t10.5 -3.5l-97 -253
q0 -2 -4 -2z" />
    <glyph glyph-name="thorn" unicode="&#xfe;" horiz-adv-x="490" 
d="M376.5 377q34.5 -22 55.5 -64t21 -98q0 -74 -34 -125.5t-84 -77t-96 -25.5q-34 0 -60 7t-52 25v-213q0 -30 8 -44t29.5 -19.5t65.5 -5.5q3 0 3 -6t-3 -6q-34 0 -53 1l-72 1l-53 -1q-13 -1 -37 -1q-2 0 -2 6t2 6q28 0 42 5.5t19 19.5t5 44v794q0 37 -7.5 53t-25.5 16
q-16 0 -48 -15h-2q-4 0 -5.5 5t2.5 6l121 59l4 1q2 0 4.5 -2t2.5 -5v-412q45 48 87.5 70.5t86.5 22.5q41 0 75.5 -22zM362 55q36 48 36 129q0 86 -38 134t-96 48q-38 0 -70.5 -19.5t-66.5 -56.5v-215q29 -33 62.5 -50.5t81.5 -17.5q55 0 91 48z" />
    <glyph glyph-name="ydieresis" unicode="&#xff;" horiz-adv-x="437" 
d="M0 0zM432 380q0 -6 -3 -6q-24 0 -41 -15t-31 -54l-125 -333q-37 -97 -69.5 -151.5t-67.5 -78t-81 -23.5q-20 0 -34 9.5t-14 27.5q0 11 8 18t19 7q21 0 41 -12q9 -6 16.5 -8.5t18.5 -2.5q25 0 47 22t47.5 73t60.5 144l-150 306q-23 44 -35 57.5t-31 13.5q-2 0 -2 6t2 6
q21 0 31 -1l31 -1l62 1q14 1 39 1q2 0 2 -6t-2 -6q-60 0 -60 -24q0 -7 4 -15l136 -278l85 244q8 22 8 36q0 21 -18.5 29t-62.5 8q-2 0 -2 6t2 6q27 0 41 -1l60 -1l35 1q9 1 30 1q3 0 3 -6zM108.5 491q-10.5 10 -10.5 28t10.5 28t29.5 10q18 0 28 -10t10 -28t-10 -28t-28 -10
q-19 0 -29.5 10zM284 491q-11 10 -11 28t11 28t29 10q19 0 29 -10t10 -28t-10 -28t-29 -10q-18 0 -29 10z" />
    <glyph glyph-name="Amacron" unicode="&#x100;" horiz-adv-x="698" 
d="M0 0zM698 6q0 -6 -4 -6q-18 0 -58 2q-38 2 -56 2q-21 0 -55 -2q-32 -2 -48 -2q-4 0 -4 6t4 6q41 0 59 7.5t18 25.5q0 14 -11 39l-119 255h-191l-90 -216q-14 -34 -14 -56q0 -29 24 -42t75 -13q5 0 5 -6t-5 -6q-18 0 -52 2q-38 2 -66 2q-25 0 -59 -2q-30 -2 -49 -2
q-5 0 -5 6t5 6q28 0 47.5 10t37 36t37.5 74l209 503q2 3 6.5 3t5.5 -3l232 -498q23 -51 41 -77.5t35.5 -37t40.5 -10.5q4 0 4 -6zM241 358h175l-93 198zM208.5 728q-1.5 4 -1.5 9q0 13 5 13h251q5 0 5 -13t-5 -13h-251q-2 0 -3.5 4z" />
    <glyph glyph-name="amacron" unicode="&#x101;" horiz-adv-x="419" 
d="M57 0zM414 54q4 0 5 -4.5t-3 -6.5l-103 -49q-4 -2 -8 -2q-11 0 -20.5 18t-11.5 49l-66 -36q-33 -17 -51 -23.5t-36 -6.5q-31 0 -47 16.5t-16 40.5q0 25 20 41.5t70 34.5l126 45v84q0 68 -18.5 94t-49.5 26q-36 0 -56 -26t-25 -58q-2 -14 -8.5 -23.5t-23.5 -9.5
q-14 0 -22 7t-8 20q0 22 28.5 48t69.5 44t75 18q38 0 61 -27.5t23 -82.5v-177q0 -37 8.5 -53t29.5 -16q19 0 55 15h2zM273 71v3v86l-116 -44q-22 -8 -31 -19t-9 -28q0 -21 12 -32.5t32 -11.5q18 0 38 9zM78.5 489q-1.5 4 -1.5 9q0 13 5 13h251q5 0 5 -13t-5 -13h-251
q-2 0 -3.5 4z" />
    <glyph glyph-name="Abreve" unicode="&#x102;" horiz-adv-x="698" 
d="M0 0zM698 6q0 -6 -4 -6q-18 0 -58 2q-38 2 -56 2q-21 0 -55 -2q-32 -2 -48 -2q-4 0 -4 6t4 6q41 0 59 7.5t18 25.5q0 14 -11 39l-119 255h-191l-90 -216q-14 -34 -14 -56q0 -29 24 -42t75 -13q5 0 5 -6t-5 -6q-18 0 -52 2q-38 2 -66 2q-25 0 -59 -2q-30 -2 -49 -2
q-5 0 -5 6t5 6q28 0 47.5 10t37 36t37.5 74l209 503q2 3 6.5 3t5.5 -3l232 -498q23 -51 41 -77.5t35.5 -37t40.5 -10.5q4 0 4 -6zM241 358h175l-93 198zM270.5 716.5q-26.5 26.5 -35.5 75.5q-1 4 4 4.5t7 -1.5q8 -30 35 -50.5t57 -20.5t56.5 21t34.5 50q0 2 4 2
q3 0 5.5 -1.5t1.5 -3.5q-9 -49 -35 -75.5t-67 -26.5t-67.5 26.5z" />
    <glyph glyph-name="abreve" unicode="&#x103;" horiz-adv-x="419" 
d="M57 0zM414 54q4 0 5 -4.5t-3 -6.5l-103 -49q-4 -2 -8 -2q-11 0 -20.5 18t-11.5 49l-66 -36q-33 -17 -51 -23.5t-36 -6.5q-31 0 -47 16.5t-16 40.5q0 25 20 41.5t70 34.5l126 45v84q0 68 -18.5 94t-49.5 26q-36 0 -56 -26t-25 -58q-2 -14 -8.5 -23.5t-23.5 -9.5
q-14 0 -22 7t-8 20q0 22 28.5 48t69.5 44t75 18q38 0 61 -27.5t23 -82.5v-177q0 -37 8.5 -53t29.5 -16q19 0 55 15h2zM273 71v3v86l-116 -44q-22 -8 -31 -19t-9 -28q0 -21 12 -32.5t32 -11.5q18 0 38 9zM110.5 628q5.5 1 5.5 -2q0 -47 26 -78t66 -31q38 0 64.5 31.5
t26.5 77.5q0 2 3 2t5.5 -1.5t2.5 -3.5q0 -73 -26 -110.5t-76 -37.5t-76.5 37.5t-26.5 110.5q0 4 5.5 5z" />
    <glyph glyph-name="Aogonek" unicode="&#x104;" horiz-adv-x="701" 
d="M698 3.5q0 -5.5 -4 -5.5q-20 0 -52 2l-40 1q-35 0 -66 -17t-50 -47.5t-19 -68.5q0 -47 28.5 -81.5t86.5 -34.5q35 0 59 14h1q3 0 5.5 -3t0.5 -5q-45 -33 -104 -33q-58 0 -91.5 29t-33.5 80q0 43 20 72.5t58 66.5q27 25 40 42.5t13 37.5q0 15 -7 29l-121 257h-190
l-89 -216q-14 -34 -14 -56q0 -29 24 -42t75 -13q5 0 5 -6t-5 -6q-18 0 -52 2q-38 2 -66 2q-25 0 -59 -2q-30 -2 -49 -2q-5 0 -5 6t5 6q28 0 47.5 10t37 36t37.5 74l209 503q2 3 6.5 3t5.5 -3l232 -500q33 -74 58 -100t59 -26q4 0 4 -5.5zM240 358h173l-92 195z" />
    <glyph glyph-name="aogonek" unicode="&#x105;" horiz-adv-x="419" 
d="M414 54q4 0 5 -4.5t-3 -6.5l-103 -49q-1 -1 -2.5 -1t-2.5 -1q-38 -35 -55 -69t-17 -73q0 -46 23.5 -72t68.5 -26q24 0 39.5 6.5t31.5 19.5h2q3 0 5.5 -3t-0.5 -5q-51 -45 -107 -45q-54 0 -82.5 25.5t-28.5 70.5q0 86 107 175q-17 13 -22 63l-66 -36q-33 -17 -51 -23.5
t-36 -6.5q-31 0 -47 16.5t-16 40.5q0 25 20 41.5t70 34.5l126 45v84q0 68 -18.5 94t-49.5 26q-36 0 -56 -26t-25 -58q-2 -14 -8.5 -23.5t-23.5 -9.5q-14 0 -22 7t-8 20q0 22 28.5 48t69.5 44t75 18q38 0 61 -27.5t23 -82.5v-177q0 -37 8.5 -53t29.5 -16q19 0 55 15h2z
M273 71v3v86l-116 -44q-22 -8 -31 -19t-9 -28q0 -21 12 -32.5t32 -11.5q18 0 38 9z" />
    <glyph glyph-name="Cacute" unicode="&#x106;" horiz-adv-x="669" 
d="M49 0zM511.5 626q49.5 -10 79.5 -27q8 -5 10.5 -9.5t3.5 -14.5l11 -105q0 -3 -5 -3.5t-6 2.5q-36 146 -231 146q-78 0 -137.5 -33.5t-92.5 -94.5t-33 -141q0 -94 41 -173.5t109 -126t147 -46.5q74 0 127.5 39t78.5 119q0 3 4 3q3 0 5.5 -1t2.5 -3l-14 -107
q-2 -12 -4.5 -15.5t-11.5 -7.5q-89 -39 -191 -39q-120 0 -200 48.5t-118 124t-38 158.5q0 91 51 163.5t135 113t178 40.5q49 0 98.5 -10zM280 678q-4 0 -5 4.5t2 6.5q46 21 122 65l50 28q4 2 20.5 -4t29 -13.5t5.5 -8.5q-62 -15 -113.5 -33.5t-108.5 -43.5z" />
    <glyph glyph-name="cacute" unicode="&#x107;" horiz-adv-x="407" 
d="M37 0zM122.5 16.5q-43.5 28.5 -64.5 73.5t-21 95q0 64 31.5 111.5t81 73t101.5 25.5q43 0 78.5 -17t35.5 -40q0 -12 -8 -20.5t-21 -8.5q-23 0 -40 28q-13 19 -30.5 28.5t-46.5 9.5q-60 0 -92.5 -43.5t-32.5 -117.5q0 -84 43 -139.5t128 -55.5q64 0 103 35h2q3 0 5.5 -3
t-0.5 -5q-34 -30 -69 -44t-76 -14q-64 0 -107.5 28.5zM213 472q-3 0 -5.5 1.5t-1.5 2.5l57 240q1 4 14.5 8.5t26 6t10.5 -3.5l-97 -253q0 -2 -4 -2z" />
    <glyph glyph-name="Ccircumflex" unicode="&#x108;" horiz-adv-x="669" 
d="M49 0zM511.5 626q49.5 -10 79.5 -27q8 -5 10.5 -9.5t3.5 -14.5l11 -105q0 -3 -5 -3.5t-6 2.5q-36 146 -231 146q-78 0 -137.5 -33.5t-92.5 -94.5t-33 -141q0 -94 41 -173.5t109 -126t147 -46.5q74 0 127.5 39t78.5 119q0 3 4 3q3 0 5.5 -1t2.5 -3l-14 -107
q-2 -12 -4.5 -15.5t-11.5 -7.5q-89 -39 -191 -39q-120 0 -200 48.5t-118 124t-38 158.5q0 91 51 163.5t135 113t178 40.5q49 0 98.5 -10zM368 783q5 5 12 5q6 0 11 -5l102 -93q1 0 1 -2t-2.5 -4t-3.5 -1l-108 62l-109 -62q-2 -1 -5 2.5t-1 4.5z" />
    <glyph glyph-name="ccircumflex" unicode="&#x109;" horiz-adv-x="407" 
d="M37 0zM122.5 16.5q-43.5 28.5 -64.5 73.5t-21 95q0 64 31.5 111.5t81 73t101.5 25.5q43 0 78.5 -17t35.5 -40q0 -12 -8 -20.5t-21 -8.5q-23 0 -40 28q-13 19 -30.5 28.5t-46.5 9.5q-60 0 -92.5 -43.5t-32.5 -117.5q0 -84 43 -139.5t128 -55.5q64 0 103 35h2q3 0 5.5 -3
t-0.5 -5q-34 -30 -69 -44t-76 -14q-64 0 -107.5 28.5zM294.5 472.5q-5.5 -1.5 -6.5 1.5l-68 179l-69 -179q0 -2 -4 -2q-3 0 -5.5 1.5t-1.5 2.5l68 249q1 5 11 5q11 0 12 -5l67 -249q2 -2 -3.5 -3.5z" />
    <glyph glyph-name="Cdotaccent" unicode="&#x10a;" horiz-adv-x="669" 
d="M49 0zM511.5 626q49.5 -10 79.5 -27q8 -5 10.5 -9.5t3.5 -14.5l11 -105q0 -3 -5 -3.5t-6 2.5q-36 146 -231 146q-78 0 -137.5 -33.5t-92.5 -94.5t-33 -141q0 -94 41 -173.5t109 -126t147 -46.5q74 0 127.5 39t78.5 119q0 3 4 3q3 0 5.5 -1t2.5 -3l-14 -107
q-2 -12 -4.5 -15.5t-11.5 -7.5q-89 -39 -191 -39q-120 0 -200 48.5t-118 124t-38 158.5q0 91 51 163.5t135 113t178 40.5q49 0 98.5 -10zM349.5 723q-10.5 10 -10.5 29q0 17 10.5 27t29.5 10q18 0 28 -10t10 -27q0 -19 -10 -29t-28 -10q-19 0 -29.5 10z" />
    <glyph glyph-name="cdotaccent" unicode="&#x10b;" horiz-adv-x="407" 
d="M37 0zM122.5 16.5q-43.5 28.5 -64.5 73.5t-21 95q0 64 31.5 111.5t81 73t101.5 25.5q43 0 78.5 -17t35.5 -40q0 -12 -8 -20.5t-21 -8.5q-23 0 -40 28q-13 19 -30.5 28.5t-46.5 9.5q-60 0 -92.5 -43.5t-32.5 -117.5q0 -84 43 -139.5t128 -55.5q64 0 103 35h2q3 0 5.5 -3
t-0.5 -5q-34 -30 -69 -44t-76 -14q-64 0 -107.5 28.5zM189.5 526q-10.5 10 -10.5 28t10.5 28t29.5 10q18 0 28 -10t10 -28t-10 -28t-28 -10q-19 0 -29.5 10z" />
    <glyph glyph-name="Ccaron" unicode="&#x10c;" horiz-adv-x="669" 
d="M49 0zM511.5 626q49.5 -10 79.5 -27q8 -5 10.5 -9.5t3.5 -14.5l11 -105q0 -3 -5 -3.5t-6 2.5q-36 146 -231 146q-78 0 -137.5 -33.5t-92.5 -94.5t-33 -141q0 -94 41 -173.5t109 -126t147 -46.5q74 0 127.5 39t78.5 119q0 3 4 3q3 0 5.5 -1t2.5 -3l-14 -107
q-2 -12 -4.5 -15.5t-11.5 -7.5q-89 -39 -191 -39q-120 0 -200 48.5t-118 124t-38 158.5q0 91 51 163.5t135 113t178 40.5q49 0 98.5 -10zM264 779q-1 0 -1 0.5v0.5q0 2 2.5 4.5t4.5 1.5l109 -62l108 62h1q3 0 5 -3t-1 -4l-102 -92q-4 -4 -11 -4q-8 0 -12 4z" />
    <glyph glyph-name="ccaron" unicode="&#x10d;" horiz-adv-x="407" 
d="M37 0zM122.5 16.5q-43.5 28.5 -64.5 73.5t-21 95q0 64 31.5 111.5t81 73t101.5 25.5q43 0 78.5 -17t35.5 -40q0 -12 -8 -20.5t-21 -8.5q-23 0 -40 28q-13 19 -30.5 28.5t-46.5 9.5q-60 0 -92.5 -43.5t-32.5 -117.5q0 -84 43 -139.5t128 -55.5q64 0 103 35h2q3 0 5.5 -3
t-0.5 -5q-34 -30 -69 -44t-76 -14q-64 0 -107.5 28.5zM143.5 730q5.5 1 6.5 -1l69 -179l68 179q1 2 6 1t4 -4l-67 -249q-2 -5 -11 -5t-12 5l-68 249q-1 3 4.5 4z" />
    <glyph glyph-name="Dcaron" unicode="&#x10e;" horiz-adv-x="688" 
d="M34 0zM232 -1q-14 1 -34.5 2t-45.5 1l-66 -1q-18 -1 -50 -1q-2 0 -2 6t2 6q39 0 57.5 5t25.5 19.5t7 44.5v463q0 30 -6.5 44t-25 19.5t-57.5 5.5q-2 0 -2 6t2 6l49 -1q42 -2 66 -2q35 0 71 3q44 2 60 2q105 0 186 -40t125.5 -109t44.5 -155q0 -97 -46.5 -171.5
t-124.5 -115t-171 -40.5q-29 0 -65 3zM436 43q65 34 101.5 100t36.5 158q0 88 -34.5 159t-99 112.5t-148.5 41.5q-44 0 -67.5 -5t-34.5 -20.5t-11 -46.5v-450q0 -30 9 -48t32 -26.5t67 -8.5q84 0 149 34zM202 779q-1 0 -1 0.5v0.5q0 2 2.5 4.5t4.5 1.5l109 -62l108 62h1
q3 0 5 -3t-1 -4l-102 -92q-4 -4 -11 -4q-8 0 -12 4z" />
    <glyph glyph-name="dcaron" unicode="&#x10f;" horiz-adv-x="513" 
d="M37 0zM507 55q4 0 5.5 -5t-2.5 -7l-103 -49q-4 -2 -8 -2q-14 0 -23.5 22.5t-10.5 63.5q-38 -41 -79.5 -66t-92.5 -25q-42 0 -77.5 24t-57 67.5t-21.5 98.5q0 70 35 120.5t88 76t105 25.5q53 0 100 -31v231q0 37 -7.5 53t-26.5 16q-8 0 -20.5 -4.5t-27.5 -10.5h-2
q-4 0 -5 4.5t2 6.5l122 60q2 1 5 1q2 0 4.5 -2t2.5 -5v-610q0 -37 8.5 -53t29.5 -16q31 0 55 15zM299 39.5q33 19.5 66 54.5v212q-26 35 -56.5 54.5t-73.5 19.5q-65 0 -104 -46t-39 -128q0 -55 18 -97t49 -65.5t69 -23.5t71 19.5zM502 721.5q11 -5.5 22 -14.5t11 -13
l-25 -245q0 -2 -5.5 -1.5t-5.5 2.5l-8 272q0 5 11 -0.5z" />
    <glyph glyph-name="Dcroat" unicode="&#x110;" horiz-adv-x="688" 
d="M34 0zM469 587q81 -40 125.5 -109t44.5 -155q0 -97 -46.5 -171.5t-124.5 -115t-171 -40.5q-29 0 -65 3q-14 1 -34.5 2t-45.5 1l-66 -1q-18 -1 -50 -1q-2 0 -2 6t2 6q39 0 57.5 5t25.5 19.5t7 44.5v221h-73q-4 0 -4 9t4 9h73v224q0 30 -6.5 44t-25 19.5t-57.5 5.5
q-2 0 -2 6t2 6l49 -1q42 -2 66 -2q35 0 71 3q44 2 60 2q105 0 186 -40zM436 43q65 34 101.5 100t36.5 158q0 88 -34.5 159t-99 112.5t-148.5 41.5q-44 0 -67.5 -5t-34.5 -20.5t-11 -46.5v-222h136q4 0 4 -9t-4 -9h-136v-210q0 -30 9 -48t32 -26.5t67 -8.5q84 0 149 34z" />
    <glyph glyph-name="dcroat" unicode="&#x111;" horiz-adv-x="513" 
d="M507 55q4 0 5.5 -5t-2.5 -7l-103 -49q-4 -2 -8 -2q-14 0 -23.5 22.5t-10.5 63.5q-38 -41 -79.5 -66t-92.5 -25q-42 0 -77.5 24t-57 67.5t-21.5 98.5q0 70 35 120.5t88 76t105 25.5q53 0 100 -31v133h-172q-4 0 -4 9t4 9h172v80q0 37 -7.5 53t-26.5 16q-8 0 -20.5 -4.5
t-27.5 -10.5h-2q-4 0 -5 4.5t2 6.5l122 60q2 1 5 1q2 0 4.5 -2t2.5 -5v-199h68q4 0 4 -9t-4 -9h-68v-393q0 -37 8.5 -53t29.5 -16q31 0 55 15zM299 39.5q33 19.5 66 54.5v212q-26 35 -56.5 54.5t-73.5 19.5q-65 0 -104 -46t-39 -128q0 -55 18 -97t49 -65.5t69 -23.5t71 19.5
z" />
    <glyph glyph-name="Emacron" unicode="&#x112;" horiz-adv-x="533" 
d="M42 0zM476 148.5q6 -0.5 6 -3.5q-9 -63 -9 -130q0 -8 -3.5 -11.5t-12.5 -3.5h-413q-2 0 -2 6t2 6q39 0 57.5 5t25 19.5t6.5 44.5v463q0 30 -6.5 44t-25 19.5t-57.5 5.5q-2 0 -2 6t2 6h396q9 0 9 -9l2 -121q0 -3 -5.5 -3t-5.5 3q0 51 -27 81t-71 30h-69q-38 0 -56 -5
t-24.5 -19t-6.5 -44v-203h132q46 0 64 15.5t18 53.5q0 2 6 2t6 -2l-1 -79q0 -29 1 -43l1 -47q0 -2 -6 -2t-6 2q0 45 -19 63t-67 18h-129v-231q0 -29 6.5 -42.5t24 -18.5t56.5 -5h92q40 0 68.5 35t36.5 92q0 3 6 2.5zM160.5 728q-1.5 4 -1.5 9q0 13 5 13h251q5 0 5 -13
t-5 -13h-251q-2 0 -3.5 4z" />
    <glyph glyph-name="emacron" unicode="&#x113;" horiz-adv-x="405" 
d="M37 0zM358 54q3 0 5.5 -3.5t0.5 -6.5q-66 -56 -143 -56q-58 0 -100 27t-63 70.5t-21 94.5q0 60 28 109t76.5 77.5t107.5 28.5q52 0 81 -26.5t29 -72.5q0 -12 -2.5 -17t-9.5 -5l-248 -1q-5 -28 -5 -55q0 -88 42.5 -143t116.5 -55q59 0 104 34h1zM142.5 351.5
q-28.5 -23.5 -40.5 -67.5l197 5q0 41 -23 63.5t-61 22.5q-44 0 -72.5 -23.5zM95.5 489q-1.5 4 -1.5 9q0 13 5 13h251q5 0 5 -13t-5 -13h-251q-2 0 -3.5 4z" />
    <glyph glyph-name="Ebreve" unicode="&#x114;" horiz-adv-x="533" 
d="M42 0zM476 148.5q6 -0.5 6 -3.5q-9 -63 -9 -130q0 -8 -3.5 -11.5t-12.5 -3.5h-413q-2 0 -2 6t2 6q39 0 57.5 5t25 19.5t6.5 44.5v463q0 30 -6.5 44t-25 19.5t-57.5 5.5q-2 0 -2 6t2 6h396q9 0 9 -9l2 -121q0 -3 -5.5 -3t-5.5 3q0 51 -27 81t-71 30h-69q-38 0 -56 -5
t-24.5 -19t-6.5 -44v-203h132q46 0 64 15.5t18 53.5q0 2 6 2t6 -2l-1 -79q0 -29 1 -43l1 -47q0 -2 -6 -2t-6 2q0 45 -19 63t-67 18h-129v-231q0 -29 6.5 -42.5t24 -18.5t56.5 -5h92q40 0 68.5 35t36.5 92q0 3 6 2.5zM222.5 716.5q-26.5 26.5 -35.5 75.5q-1 4 4 4.5t7 -1.5
q8 -30 35 -50.5t57 -20.5t56.5 21t34.5 50q0 2 4 2q3 0 5.5 -1.5t1.5 -3.5q-9 -49 -35 -75.5t-67 -26.5t-67.5 26.5z" />
    <glyph glyph-name="ebreve" unicode="&#x115;" horiz-adv-x="405" 
d="M37 0zM358 54q3 0 5.5 -3.5t0.5 -6.5q-66 -56 -143 -56q-58 0 -100 27t-63 70.5t-21 94.5q0 60 28 109t76.5 77.5t107.5 28.5q52 0 81 -26.5t29 -72.5q0 -12 -2.5 -17t-9.5 -5l-248 -1q-5 -28 -5 -55q0 -88 42.5 -143t116.5 -55q59 0 104 34h1zM142.5 351.5
q-28.5 -23.5 -40.5 -67.5l197 5q0 41 -23 63.5t-61 22.5q-44 0 -72.5 -23.5zM127.5 628q5.5 1 5.5 -2q0 -47 26 -78t66 -31q38 0 64.5 31.5t26.5 77.5q0 2 3 2t5.5 -1.5t2.5 -3.5q0 -73 -26 -110.5t-76 -37.5t-76.5 37.5t-26.5 110.5q0 4 5.5 5z" />
    <glyph glyph-name="Edotaccent" unicode="&#x116;" horiz-adv-x="533" 
d="M42 0zM476 148.5q6 -0.5 6 -3.5q-9 -63 -9 -130q0 -8 -3.5 -11.5t-12.5 -3.5h-413q-2 0 -2 6t2 6q39 0 57.5 5t25 19.5t6.5 44.5v463q0 30 -6.5 44t-25 19.5t-57.5 5.5q-2 0 -2 6t2 6h396q9 0 9 -9l2 -121q0 -3 -5.5 -3t-5.5 3q0 51 -27 81t-71 30h-69q-38 0 -56 -5
t-24.5 -19t-6.5 -44v-203h132q46 0 64 15.5t18 53.5q0 2 6 2t6 -2l-1 -79q0 -29 1 -43l1 -47q0 -2 -6 -2t-6 2q0 45 -19 63t-67 18h-129v-231q0 -29 6.5 -42.5t24 -18.5t56.5 -5h92q40 0 68.5 35t36.5 92q0 3 6 2.5zM260.5 723q-10.5 10 -10.5 29q0 17 10.5 27t29.5 10
q18 0 28 -10t10 -27q0 -19 -10 -29t-28 -10q-19 0 -29.5 10z" />
    <glyph glyph-name="edotaccent" unicode="&#x117;" horiz-adv-x="405" 
d="M37 0zM358 54q3 0 5.5 -3.5t0.5 -6.5q-66 -56 -143 -56q-58 0 -100 27t-63 70.5t-21 94.5q0 60 28 109t76.5 77.5t107.5 28.5q52 0 81 -26.5t29 -72.5q0 -12 -2.5 -17t-9.5 -5l-248 -1q-5 -28 -5 -55q0 -88 42.5 -143t116.5 -55q59 0 104 34h1zM142.5 351.5
q-28.5 -23.5 -40.5 -67.5l197 5q0 41 -23 63.5t-61 22.5q-44 0 -72.5 -23.5zM195.5 526q-10.5 10 -10.5 28t10.5 28t29.5 10q18 0 28 -10t10 -28t-10 -28t-28 -10q-19 0 -29.5 10z" />
    <glyph glyph-name="Eogonek" unicode="&#x118;" horiz-adv-x="533" 
d="M497 -222q3 0 5.5 -3t-0.5 -5q-51 -45 -107 -45q-54 0 -82.5 25.5t-28.5 70.5q0 88 112 179h-352q-2 0 -2 6t2 6q39 0 57.5 5t25 19.5t6.5 44.5v463q0 30 -6.5 44t-25 19.5t-57.5 5.5q-2 0 -2 6t2 6h396q9 0 9 -9l2 -121q0 -3 -5.5 -3t-5.5 3q0 51 -27 81t-71 30h-69
q-38 0 -56 -5t-24.5 -19t-6.5 -44v-203h132q46 0 64 15.5t18 53.5q0 2 6 2t6 -2l-1 -79q0 -29 1 -43l1 -47q0 -2 -6 -2t-6 2q0 45 -19 63t-67 18h-129v-231q0 -29 6.5 -42.5t24 -18.5t56.5 -5h92q40 0 68.5 35t36.5 92q0 3 6 2.5t6 -3.5q-9 -63 -9 -130q0 -8 -3.5 -11.5
t-12.5 -3.5h-44q-43 -38 -62 -73.5t-19 -76.5q0 -46 23.5 -72t68.5 -26q24 0 39.5 6.5t31.5 19.5h2z" />
    <glyph glyph-name="eogonek" unicode="&#x119;" horiz-adv-x="405" 
d="M368 -222q3 0 5.5 -3t-0.5 -5q-25 -24 -47.5 -34.5t-48.5 -10.5q-48 0 -73.5 26t-25.5 70q0 87 109 178q-30 -11 -66 -11q-58 0 -100 27t-63 70.5t-21 94.5q0 60 28 109t76.5 77.5t107.5 28.5q52 0 81 -26.5t29 -72.5q0 -12 -2.5 -17t-9.5 -5l-248 -1q-5 -28 -5 -55
q0 -88 42.5 -143t116.5 -55q59 0 104 34h1q3 0 5.5 -3.5t0.5 -6.5q-12 -11 -34 -25q-55 -43 -79.5 -83.5t-24.5 -85.5q0 -46 20.5 -72t59.5 -26q20 0 32.5 6.5t27.5 19.5h2zM142.5 351.5q-28.5 -23.5 -40.5 -67.5l197 5q0 41 -23 63.5t-61 22.5q-44 0 -72.5 -23.5z" />
    <glyph glyph-name="Ecaron" unicode="&#x11a;" horiz-adv-x="533" 
d="M42 0zM476 148.5q6 -0.5 6 -3.5q-9 -63 -9 -130q0 -8 -3.5 -11.5t-12.5 -3.5h-413q-2 0 -2 6t2 6q39 0 57.5 5t25 19.5t6.5 44.5v463q0 30 -6.5 44t-25 19.5t-57.5 5.5q-2 0 -2 6t2 6h396q9 0 9 -9l2 -121q0 -3 -5.5 -3t-5.5 3q0 51 -27 81t-71 30h-69q-38 0 -56 -5
t-24.5 -19t-6.5 -44v-203h132q46 0 64 15.5t18 53.5q0 2 6 2t6 -2l-1 -79q0 -29 1 -43l1 -47q0 -2 -6 -2t-6 2q0 45 -19 63t-67 18h-129v-231q0 -29 6.5 -42.5t24 -18.5t56.5 -5h92q40 0 68.5 35t36.5 92q0 3 6 2.5zM175 779q-1 0 -1 0.5v0.5q0 2 2.5 4.5t4.5 1.5l109 -62
l108 62h1q3 0 5 -3t-1 -4l-102 -92q-4 -4 -11 -4q-8 0 -12 4z" />
    <glyph glyph-name="ecaron" unicode="&#x11b;" horiz-adv-x="405" 
d="M37 0zM358 54q3 0 5.5 -3.5t0.5 -6.5q-66 -56 -143 -56q-58 0 -100 27t-63 70.5t-21 94.5q0 60 28 109t76.5 77.5t107.5 28.5q52 0 81 -26.5t29 -72.5q0 -12 -2.5 -17t-9.5 -5l-248 -1q-5 -28 -5 -55q0 -88 42.5 -143t116.5 -55q59 0 104 34h1zM142.5 351.5
q-28.5 -23.5 -40.5 -67.5l197 5q0 41 -23 63.5t-61 22.5q-44 0 -72.5 -23.5zM149.5 730q5.5 1 6.5 -1l69 -179l68 179q1 2 6 1t4 -4l-67 -249q-2 -5 -11 -5t-12 5l-68 249q-1 3 4.5 4z" />
    <glyph glyph-name="Gcircumflex" unicode="&#x11c;" horiz-adv-x="713" 
d="M49 0zM214.5 30q-80.5 42 -123 114t-42.5 161q0 97 49.5 172t136 117t195.5 42q49 0 92.5 -10t72.5 -28q7 -5 8.5 -8.5t2 -8t0.5 -6.5l12 -105q0 -3 -5.5 -3.5t-6.5 2.5q-19 71 -75 108.5t-142 37.5q-132 0 -205 -73t-73 -202q0 -96 41 -172.5t113.5 -119.5t162.5 -43
q54 0 83.5 9t43 35t13.5 77q0 52 -7 72.5t-30 27.5t-80 7q-6 0 -6 8q0 3 1.5 5.5t3.5 2.5q77 -5 124 -5q45 0 96 3q2 0 3.5 -2.5t1.5 -4.5q0 -7 -5 -7q-26 1 -37 -6.5t-14 -30.5t-3 -80q0 -45 3.5 -64t3.5 -24q0 -6 -2 -8t-9 -4q-117 -28 -208 -28q-109 0 -189.5 42z
M383 783q5 5 12 5q6 0 11 -5l102 -93q1 0 1 -2t-2.5 -4t-3.5 -1l-108 62l-109 -62q-2 -1 -5 2.5t-1 4.5z" />
    <glyph glyph-name="gcircumflex" unicode="&#x11d;" horiz-adv-x="428" 
d="M15 0zM238 26q61 -9 95.5 -18t59.5 -32.5t25 -65.5q0 -44 -33.5 -89t-90.5 -74t-123 -29q-70 0 -113 35t-43 87q0 80 116 157q-69 20 -69 67q0 53 70 103q-37 14 -57.5 43.5t-20.5 66.5q0 50 41.5 83t109.5 33q64 0 99 -30q55 31 107 31q2 0 3.5 -7t1.5 -14
q0 -12 -2.5 -22.5t-6.5 -8.5q-2 1 -19.5 7.5t-44.5 6.5q-15 0 -29 -3q26 -29 26 -70q0 -33 -17 -62t-50 -46.5t-79 -17.5q-30 0 -51 7q-19 -13 -30 -31.5t-11 -38.5q0 -31 29 -44t82 -21zM128.5 359q-20.5 -20 -20.5 -63q0 -59 32 -92t74 -33q32 0 52.5 22.5t20.5 69.5
q0 52 -31.5 84t-73.5 32q-33 0 -53.5 -20zM298 -233.5q38 19.5 57 50t19 64.5q0 40 -26 61t-59.5 28.5t-97.5 15.5q-28 4 -42 7q-40 -25 -62.5 -53.5t-22.5 -70.5q0 -55 38 -88.5t105 -33.5q53 0 91 19.5zM284.5 472.5q-5.5 -1.5 -6.5 1.5l-68 179l-69 -179q0 -2 -4 -2
q-3 0 -5.5 1.5t-1.5 2.5l68 249q1 5 11 5q11 0 12 -5l67 -249q2 -2 -3.5 -3.5z" />
    <glyph glyph-name="Gbreve" unicode="&#x11e;" horiz-adv-x="713" 
d="M49 0zM214.5 30q-80.5 42 -123 114t-42.5 161q0 97 49.5 172t136 117t195.5 42q49 0 92.5 -10t72.5 -28q7 -5 8.5 -8.5t2 -8t0.5 -6.5l12 -105q0 -3 -5.5 -3.5t-6.5 2.5q-19 71 -75 108.5t-142 37.5q-132 0 -205 -73t-73 -202q0 -96 41 -172.5t113.5 -119.5t162.5 -43
q54 0 83.5 9t43 35t13.5 77q0 52 -7 72.5t-30 27.5t-80 7q-6 0 -6 8q0 3 1.5 5.5t3.5 2.5q77 -5 124 -5q45 0 96 3q2 0 3.5 -2.5t1.5 -4.5q0 -7 -5 -7q-26 1 -37 -6.5t-14 -30.5t-3 -80q0 -45 3.5 -64t3.5 -24q0 -6 -2 -8t-9 -4q-117 -28 -208 -28q-109 0 -189.5 42z
M326.5 716.5q-26.5 26.5 -35.5 75.5q-1 4 4 4.5t7 -1.5q8 -30 35 -50.5t57 -20.5t56.5 21t34.5 50q0 2 4 2q3 0 5.5 -1.5t1.5 -3.5q-9 -49 -35 -75.5t-67 -26.5t-67.5 26.5z" />
    <glyph glyph-name="gbreve" unicode="&#x11f;" horiz-adv-x="428" 
d="M15 0zM238 26q61 -9 95.5 -18t59.5 -32.5t25 -65.5q0 -44 -33.5 -89t-90.5 -74t-123 -29q-70 0 -113 35t-43 87q0 80 116 157q-69 20 -69 67q0 53 70 103q-37 14 -57.5 43.5t-20.5 66.5q0 50 41.5 83t109.5 33q64 0 99 -30q55 31 107 31q2 0 3.5 -7t1.5 -14
q0 -12 -2.5 -22.5t-6.5 -8.5q-2 1 -19.5 7.5t-44.5 6.5q-15 0 -29 -3q26 -29 26 -70q0 -33 -17 -62t-50 -46.5t-79 -17.5q-30 0 -51 7q-19 -13 -30 -31.5t-11 -38.5q0 -31 29 -44t82 -21zM128.5 359q-20.5 -20 -20.5 -63q0 -59 32 -92t74 -33q32 0 52.5 22.5t20.5 69.5
q0 52 -31.5 84t-73.5 32q-33 0 -53.5 -20zM298 -233.5q38 19.5 57 50t19 64.5q0 40 -26 61t-59.5 28.5t-97.5 15.5q-28 4 -42 7q-40 -25 -62.5 -53.5t-22.5 -70.5q0 -55 38 -88.5t105 -33.5q53 0 91 19.5zM111.5 628q5.5 1 5.5 -2q0 -47 26 -78t66 -31q38 0 64.5 31.5
t26.5 77.5q0 2 3 2t5.5 -1.5t2.5 -3.5q0 -73 -26 -110.5t-76 -37.5t-76.5 37.5t-26.5 110.5q0 4 5.5 5z" />
    <glyph glyph-name="Gdotaccent" unicode="&#x120;" horiz-adv-x="713" 
d="M49 0zM214.5 30q-80.5 42 -123 114t-42.5 161q0 97 49.5 172t136 117t195.5 42q49 0 92.5 -10t72.5 -28q7 -5 8.5 -8.5t2 -8t0.5 -6.5l12 -105q0 -3 -5.5 -3.5t-6.5 2.5q-19 71 -75 108.5t-142 37.5q-132 0 -205 -73t-73 -202q0 -96 41 -172.5t113.5 -119.5t162.5 -43
q54 0 83.5 9t43 35t13.5 77q0 52 -7 72.5t-30 27.5t-80 7q-6 0 -6 8q0 3 1.5 5.5t3.5 2.5q77 -5 124 -5q45 0 96 3q2 0 3.5 -2.5t1.5 -4.5q0 -7 -5 -7q-26 1 -37 -6.5t-14 -30.5t-3 -80q0 -45 3.5 -64t3.5 -24q0 -6 -2 -8t-9 -4q-117 -28 -208 -28q-109 0 -189.5 42z
M364.5 723q-10.5 10 -10.5 29q0 17 10.5 27t29.5 10q18 0 28 -10t10 -27q0 -19 -10 -29t-28 -10q-19 0 -29.5 10z" />
    <glyph glyph-name="gdotaccent" unicode="&#x121;" horiz-adv-x="428" 
d="M15 0zM238 26q61 -9 95.5 -18t59.5 -32.5t25 -65.5q0 -44 -33.5 -89t-90.5 -74t-123 -29q-70 0 -113 35t-43 87q0 80 116 157q-69 20 -69 67q0 53 70 103q-37 14 -57.5 43.5t-20.5 66.5q0 50 41.5 83t109.5 33q64 0 99 -30q55 31 107 31q2 0 3.5 -7t1.5 -14
q0 -12 -2.5 -22.5t-6.5 -8.5q-2 1 -19.5 7.5t-44.5 6.5q-15 0 -29 -3q26 -29 26 -70q0 -33 -17 -62t-50 -46.5t-79 -17.5q-30 0 -51 7q-19 -13 -30 -31.5t-11 -38.5q0 -31 29 -44t82 -21zM128.5 359q-20.5 -20 -20.5 -63q0 -59 32 -92t74 -33q32 0 52.5 22.5t20.5 69.5
q0 52 -31.5 84t-73.5 32q-33 0 -53.5 -20zM298 -233.5q38 19.5 57 50t19 64.5q0 40 -26 61t-59.5 28.5t-97.5 15.5q-28 4 -42 7q-40 -25 -62.5 -53.5t-22.5 -70.5q0 -55 38 -88.5t105 -33.5q53 0 91 19.5zM179.5 526q-10.5 10 -10.5 28t10.5 28t29.5 10q18 0 28 -10t10 -28
t-10 -28t-28 -10q-19 0 -29.5 10z" />
    <glyph glyph-name="Gcommaaccent" unicode="&#x122;" horiz-adv-x="713" 
d="M49 0zM214.5 30q-80.5 42 -123 114t-42.5 161q0 97 49.5 172t136 117t195.5 42q49 0 92.5 -10t72.5 -28q7 -5 8.5 -8.5t2 -8t0.5 -6.5l12 -105q0 -3 -5.5 -3.5t-6.5 2.5q-19 71 -75 108.5t-142 37.5q-132 0 -205 -73t-73 -202q0 -96 41 -172.5t113.5 -119.5t162.5 -43
q54 0 83.5 9t43 35t13.5 77q0 52 -7 72.5t-30 27.5t-80 7q-6 0 -6 8q0 3 1.5 5.5t3.5 2.5q77 -5 124 -5q45 0 96 3q2 0 3.5 -2.5t1.5 -4.5q0 -7 -5 -7q-26 1 -37 -6.5t-14 -30.5t-3 -80q0 -45 3.5 -64t3.5 -24q0 -6 -2 -8t-9 -4q-117 -28 -208 -28q-109 0 -189.5 42z
M450.5 -107q13.5 -18 13.5 -53q0 -32 -14.5 -59.5t-42.5 -55.5q-1 -1 -3 -1q-3 0 -5 3.5t0 4.5q43 40 43 95q0 18 -5 28q-6 -14 -28 -14q-17 0 -26.5 9.5t-9.5 25.5q0 35 38 35q26 0 39.5 -18z" />
    <glyph glyph-name="gcommaaccent" unicode="&#x123;" horiz-adv-x="428" 
d="M176.5 505q-13.5 18 -13.5 53q0 32 14.5 59.5t42.5 55.5q1 1 3 1q3 0 5 -3.5t0 -4.5q-43 -40 -43 -95q0 -18 5 -28q6 14 28 14q17 0 26.5 -9.5t9.5 -25.5q0 -35 -38 -35q-26 0 -39.5 18zM238 26q61 -9 95.5 -18t59.5 -32.5t25 -65.5q0 -44 -33.5 -89t-90.5 -74t-123 -29
q-70 0 -113 35t-43 87q0 80 116 157q-69 20 -69 67q0 53 70 103q-37 14 -57.5 43.5t-20.5 66.5q0 50 41.5 83t109.5 33q64 0 99 -30q55 31 107 31q2 0 3.5 -7t1.5 -14q0 -12 -2.5 -22.5t-6.5 -8.5q-2 1 -19.5 7.5t-44.5 6.5q-15 0 -29 -3q26 -29 26 -70q0 -33 -17 -62
t-50 -46.5t-79 -17.5q-30 0 -51 7q-19 -13 -30 -31.5t-11 -38.5q0 -31 29 -44t82 -21zM128.5 359q-20.5 -20 -20.5 -63q0 -59 32 -92t74 -33q32 0 52.5 22.5t20.5 69.5q0 52 -31.5 84t-73.5 32q-33 0 -53.5 -20zM298 -233.5q38 19.5 57 50t19 64.5q0 40 -26 61t-59.5 28.5
t-97.5 15.5q-28 4 -42 7q-40 -25 -62.5 -53.5t-22.5 -70.5q0 -55 38 -88.5t105 -33.5q53 0 91 19.5z" />
    <glyph glyph-name="Hcircumflex" unicode="&#x124;" horiz-adv-x="758" 
d="M34 0zM723 6q0 -6 -3 -6q-31 0 -48 1l-67 1l-69 -1q-17 -1 -47 -1q-3 0 -3 6t3 6q40 0 58 5t24.5 19t6.5 45v235h-399v-235q0 -31 6.5 -45t24.5 -19t58 -5q2 0 2 -6t-2 -6q-30 0 -48 1l-68 1l-66 -1q-18 -1 -50 -1q-2 0 -2 6t2 6q39 0 57.5 5t25.5 19.5t7 44.5v463
q0 30 -6.5 44t-25 19.5t-57.5 5.5q-2 0 -2 6t2 6l49 -1q42 -2 66 -2q27 0 69 2l47 1q2 0 2 -6t-2 -6q-39 0 -57.5 -6t-25 -20.5t-6.5 -44.5v-207h399v207q0 30 -6.5 44.5t-25 20.5t-57.5 6q-3 0 -3 6t3 6l47 -1q42 -2 69 -2q25 0 67 2l48 1q3 0 3 -6t-3 -6q-39 0 -57.5 -5.5
t-25.5 -19.5t-7 -44v-463q0 -30 7 -44.5t25.5 -19.5t57.5 -5q3 0 3 -6zM368 783q5 5 12 5q6 0 11 -5l102 -93q1 0 1 -2t-2.5 -4t-3.5 -1l-108 62l-109 -62q-2 -1 -5 2.5t-1 4.5z" />
    <glyph glyph-name="hcircumflex" unicode="&#x125;" horiz-adv-x="496" 
d="M3 0zM476 6q0 -6 -2 -6q-23 0 -37 1l-52 1l-53 -1q-13 -1 -36 -1q-3 0 -3 6t3 6q29 0 42 5t18 19.5t5 44.5v163q0 61 -23 90t-71 29q-32 0 -66 -18.5t-62 -50.5v-213q0 -30 5 -44.5t18.5 -19.5t42.5 -5q2 0 2 -6t-2 -6q-23 0 -37 1l-52 1l-53 -1q-13 -1 -36 -1q-3 0 -3 6
t3 6q29 0 42 5t18 19.5t5 44.5v519q0 37 -7 53t-25 16q-17 0 -48 -15h-2q-4 0 -5.5 5t2.5 6l123 60h2q7 0 7 -7v-409q40 46 77.5 66.5t77.5 20.5q55 0 84.5 -30.5t29.5 -90.5v-194q0 -30 5 -44.5t18.5 -19.5t42.5 -5q2 0 2 -6zM113 818q5 5 12 5q6 0 11 -5l102 -93q1 0 1 -2
t-2.5 -4t-3.5 -1l-108 62l-109 -62q-2 -1 -5 2.5t-1 4.5z" />
    <glyph glyph-name="Hbar" unicode="&#x126;" horiz-adv-x="758" 
d="M723 6q0 -6 -3 -6q-31 0 -48 1l-67 1l-69 -1q-17 -1 -47 -1q-3 0 -3 6t3 6q40 0 58 5t24.5 19t6.5 45v141h-399v-141q0 -31 6.5 -45t24.5 -19t58 -5q2 0 2 -6t-2 -6q-30 0 -48 1l-68 1l-66 -1q-18 -1 -50 -1q-2 0 -2 6t2 6q39 0 57.5 5t25.5 19.5t7 44.5v463
q0 30 -6.5 44t-25 19.5t-57.5 5.5q-2 0 -2 6t2 6l49 -1q42 -2 66 -2q27 0 69 2l47 1q2 0 2 -6t-2 -6q-39 0 -57.5 -6t-25 -20.5t-6.5 -44.5v-114h399v114q0 30 -6.5 44.5t-25 20.5t-57.5 6q-3 0 -3 6t3 6l47 -1q42 -2 69 -2q25 0 67 2l48 1q3 0 3 -6t-3 -6q-39 0 -57.5 -5.5
t-25.5 -19.5t-7 -44v-463q0 -30 7 -44.5t25.5 -19.5t57.5 -5q3 0 3 -6zM179 241h399v168h-399v-168z" />
    <glyph glyph-name="hbar" unicode="&#x127;" horiz-adv-x="497" 
d="M476 6q0 -6 -2 -6q-23 0 -37 1l-52 1l-53 -1q-13 -1 -36 -1q-3 0 -3 6t3 6q29 0 42 5t18 19.5t5 44.5v163q0 61 -23 90t-71 29q-32 0 -66 -18.5t-62 -50.5v-213q0 -30 5 -44.5t18.5 -19.5t42.5 -5q2 0 2 -6t-2 -6q-23 0 -37 1l-52 1l-53 -1q-13 -1 -36 -1q-3 0 -3 6t3 6
q29 0 42 5t18 19.5t5 44.5v420h-78q-4 0 -4 9t4 9h78v81q0 37 -7 53t-25 16q-17 0 -48 -15h-2q-4 0 -5.5 5t2.5 6l123 60h2q7 0 7 -7v-199h162q4 0 4 -9t-4 -9h-162v-192q40 46 77.5 66.5t77.5 20.5q55 0 84.5 -30.5t29.5 -90.5v-194q0 -30 5 -44.5t18.5 -19.5t42.5 -5
q2 0 2 -6z" />
    <glyph glyph-name="Itilde" unicode="&#x128;" horiz-adv-x="330" 
d="M30 0zM198.5 36q6.5 -14 24.5 -19t58 -5q2 0 2 -6t-2 -6q-30 0 -47 1l-70 1l-67 -1q-18 -1 -49 -1q-3 0 -3 6t3 6q39 0 57.5 5t25.5 19.5t7 44.5v463q0 30 -7 44t-25.5 19.5t-57.5 5.5q-3 0 -3 6t3 6l49 -1q42 -2 67 -2q28 0 70 2l47 1q2 0 2 -6t-2 -6q-39 0 -57.5 -6
t-25 -20.5t-6.5 -44.5v-461q0 -31 6.5 -45zM38 697q-3 0 -5.5 2.5t-0.5 4.5q16 22 38.5 40t45.5 18q17 0 52 -11q44 -14 74 -14q17 0 27.5 7t21.5 20h2q3 0 5 -2.5t0 -4.5q-26 -34 -43 -45.5t-35 -11.5q-15 0 -31 3.5t-32 8.5q-42 12 -69 12q-16 0 -24.5 -5.5t-15 -12
l-9.5 -9.5h-1z" />
    <glyph glyph-name="itilde" unicode="&#x129;" horiz-adv-x="275" 
d="M27 0zM55 6q0 6 2 6q29 0 42.5 5t18.5 19.5t5 44.5v189q0 37 -7.5 53t-25.5 16q-19 0 -48 -15h-1q-4 0 -6 5t2 7l124 58l4 1q2 0 4.5 -2t2.5 -5q0 -6 -1 -39.5t-1 -77.5v-190q0 -30 4.5 -44.5t18 -19.5t42.5 -5q3 0 3 -6t-3 -6q-23 0 -36 1l-53 1l-52 -1q-14 -1 -37 -1
q-2 0 -2 6zM219.5 529q10.5 7 21.5 20h1q3 0 5.5 -2.5t0.5 -4.5q-26 -34 -43 -46t-35 -12q-14 0 -40 12q-2 1 -16 7t-29 6q-16 0 -25.5 -5.5t-16 -12.5t-8.5 -9h-1q-2 0 -4.5 2.5t-1.5 4.5q46 57 85 57q9 0 33 -10q28 -14 46 -14q17 0 27.5 7z" />
    <glyph glyph-name="Imacron" unicode="&#x12a;" horiz-adv-x="330" 
d="M34 0zM198.5 36q6.5 -14 24.5 -19t58 -5q2 0 2 -6t-2 -6q-30 0 -47 1l-70 1l-67 -1q-18 -1 -49 -1q-3 0 -3 6t3 6q39 0 57.5 5t25.5 19.5t7 44.5v463q0 30 -7 44t-25.5 19.5t-57.5 5.5q-3 0 -3 6t3 6l49 -1q42 -2 67 -2q28 0 70 2l47 1q2 0 2 -6t-2 -6q-39 0 -57.5 -6
t-25 -20.5t-6.5 -44.5v-461q0 -31 6.5 -45zM35.5 728q-1.5 4 -1.5 9q0 13 5 13h251q5 0 5 -13t-5 -13h-251q-2 0 -3.5 4z" />
    <glyph glyph-name="imacron" unicode="&#x12b;" horiz-adv-x="275" 
d="M7 0zM55 6q0 6 2 6q29 0 42.5 5t18.5 19.5t5 44.5v189q0 37 -7.5 53t-25.5 16q-19 0 -48 -15h-1q-4 0 -6 5t2 7l124 58l4 1q2 0 4.5 -2t2.5 -5q0 -6 -1 -39.5t-1 -77.5v-190q0 -30 4.5 -44.5t18 -19.5t42.5 -5q3 0 3 -6t-3 -6q-23 0 -36 1l-53 1l-52 -1q-14 -1 -37 -1
q-2 0 -2 6zM8.5 489q-1.5 4 -1.5 9q0 13 5 13h251q5 0 5 -13t-5 -13h-251q-2 0 -3.5 4z" />
    <glyph glyph-name="Ibreve" unicode="&#x12c;" horiz-adv-x="330" 
d="M45 0zM198.5 36q6.5 -14 24.5 -19t58 -5q2 0 2 -6t-2 -6q-30 0 -47 1l-70 1l-67 -1q-18 -1 -49 -1q-3 0 -3 6t3 6q39 0 57.5 5t25.5 19.5t7 44.5v463q0 30 -7 44t-25.5 19.5t-57.5 5.5q-3 0 -3 6t3 6l49 -1q42 -2 67 -2q28 0 70 2l47 1q2 0 2 -6t-2 -6q-39 0 -57.5 -6
t-25 -20.5t-6.5 -44.5v-461q0 -31 6.5 -45zM97.5 716.5q-26.5 26.5 -35.5 75.5q-1 4 4 4.5t7 -1.5q8 -30 35 -50.5t57 -20.5t56.5 21t34.5 50q0 2 4 2q3 0 5.5 -1.5t1.5 -3.5q-9 -49 -35 -75.5t-67 -26.5t-67.5 26.5z" />
    <glyph glyph-name="ibreve" unicode="&#x12d;" horiz-adv-x="275" 
d="M33 0zM55 6q0 6 2 6q29 0 42.5 5t18.5 19.5t5 44.5v189q0 37 -7.5 53t-25.5 16q-19 0 -48 -15h-1q-4 0 -6 5t2 7l124 58l4 1q2 0 4.5 -2t2.5 -5q0 -6 -1 -39.5t-1 -77.5v-190q0 -30 4.5 -44.5t18 -19.5t42.5 -5q3 0 3 -6t-3 -6q-23 0 -36 1l-53 1l-52 -1q-14 -1 -37 -1
q-2 0 -2 6zM40.5 628q5.5 1 5.5 -2q0 -47 26 -78t66 -31q38 0 64.5 31.5t26.5 77.5q0 2 3 2t5.5 -1.5t2.5 -3.5q0 -73 -26 -110.5t-76 -37.5t-76.5 37.5t-26.5 110.5q0 4 5.5 5z" />
    <glyph glyph-name="Iogonek" unicode="&#x12e;" horiz-adv-x="330" 
d="M283 6q0 -6 -2 -6q-28 0 -44 1l-62 1q-57 -70 -57 -152q0 -46 21.5 -72t61.5 -26q18 0 29 5.5t18.5 12t10.5 8.5h1q3 0 5.5 -3t0.5 -5q-25 -24 -47 -34.5t-47 -10.5q-48 0 -75 26t-27 70t22.5 90t66.5 91l-64 -1q-17 -1 -47 -1q-3 0 -3 6t3 6q39 0 57.5 5t25.5 19.5
t7 44.5v463q0 30 -7 44t-25.5 19.5t-57.5 5.5q-3 0 -3 6t3 6l49 -1q42 -2 67 -2q28 0 70 2l47 1q2 0 2 -6t-2 -6q-39 0 -57.5 -6t-25 -20.5t-6.5 -44.5v-461q0 -31 6.5 -45t24.5 -19t58 -5q2 0 2 -6z" />
    <glyph glyph-name="iogonek" unicode="&#x12f;" horiz-adv-x="275" 
d="M108.5 526q-10.5 10 -10.5 28t10.5 28t29.5 10q18 0 28 -10t10 -28t-10 -28t-28 -10q-19 0 -29.5 10zM239 -214q3 0 5.5 -3t0.5 -5q-25 -24 -47 -34.5t-47 -10.5q-48 0 -75 26t-27 70q0 42 20.5 86t60.5 87q-56 -2 -73 -2q-2 0 -2 6t2 6q29 0 42.5 5t18.5 19.5t5 44.5
v189q0 37 -7.5 53t-25.5 16q-19 0 -48 -15h-1q-4 0 -6 5t2 7l124 58l4 1q2 0 4.5 -2t2.5 -5q0 -6 -1 -39.5t-1 -77.5v-190q0 -30 4.5 -44.5t18 -19.5t42.5 -5q3 0 3 -6t-3 -6q-23 0 -36 1l-51 1q-51 -67 -51 -144q0 -46 21.5 -72t61.5 -26q18 0 29 5.5t18.5 12t10.5 8.5h1z
" />
    <glyph glyph-name="Idotaccent" unicode="&#x130;" horiz-adv-x="330" 
d="M45 0zM198.5 36q6.5 -14 24.5 -19t58 -5q2 0 2 -6t-2 -6q-30 0 -47 1l-70 1l-67 -1q-18 -1 -49 -1q-3 0 -3 6t3 6q39 0 57.5 5t25.5 19.5t7 44.5v463q0 30 -7 44t-25.5 19.5t-57.5 5.5q-3 0 -3 6t3 6l49 -1q42 -2 67 -2q28 0 70 2l47 1q2 0 2 -6t-2 -6q-39 0 -57.5 -6
t-25 -20.5t-6.5 -44.5v-461q0 -31 6.5 -45zM135.5 723q-10.5 10 -10.5 29q0 17 10.5 27t29.5 10q18 0 28 -10t10 -27q0 -19 -10 -29t-28 -10q-19 0 -29.5 10z" />
    <glyph glyph-name="dotlessi" unicode="&#x131;" horiz-adv-x="275" 
d="M55 6q0 6 2 6q29 0 42.5 5t18.5 19.5t5 44.5v189q0 37 -7.5 53t-25.5 16q-19 0 -48 -15h-1q-4 0 -6 5t2 7l124 58l4 1q2 0 4.5 -2t2.5 -5q0 -6 -1 -39.5t-1 -77.5v-190q0 -30 4.5 -44.5t18 -19.5t42.5 -5q3 0 3 -6t-3 -6q-23 0 -36 1l-53 1l-52 -1q-14 -1 -37 -1
q-2 0 -2 6z" />
    <glyph glyph-name="IJ" unicode="&#x132;" horiz-adv-x="688" 
d="M193.5 305q6.5 -14 24.5 -19t58 -5q3 0 3 -6t-3 -6q-30 0 -47 1l-70 1l-66 -1q-18 -1 -50 -1q-2 0 -2 6t2 6q39 0 57.5 5t25.5 19.5t7 44.5v194q0 30 -7 44t-25.5 19.5t-57.5 5.5q-2 0 -2 6t2 6l50 -1q40 -2 66 -2q29 0 71 2l46 1q3 0 3 -6t-3 -6q-39 0 -57.5 -6
t-25 -20.5t-6.5 -44.5v-192q0 -31 6.5 -45zM655 619q0 -6 -2 -6q-34 0 -50.5 -6t-22 -20.5t-5.5 -44.5v-284q0 -86 -29.5 -147t-82 -92.5t-121.5 -31.5q-61 0 -111 23t-78.5 58t-28.5 68q0 15 7.5 23t19.5 8q20 0 27.5 -13t14.5 -42q8 -33 19 -55.5t40.5 -39t83.5 -16.5
q95 0 140.5 52.5t45.5 146.5v344q0 30 -7.5 44t-29 19.5t-65.5 5.5q-3 0 -3 6t3 6l57 -1q44 -2 70 -2q24 0 64 2l42 1q2 0 2 -6z" />
    <glyph glyph-name="ij" unicode="&#x133;" horiz-adv-x="524" 
d="M33 0zM55 6q0 6 2 6q29 0 42.5 5t18.5 19.5t5 44.5v189q0 37 -7.5 53t-25.5 16q-19 0 -48 -15h-1q-4 0 -6 5t2 7l124 58l4 1q2 0 4.5 -2t2.5 -5q0 -6 -1 -39.5t-1 -77.5v-190q0 -30 4.5 -44.5t18 -19.5t42.5 -5q3 0 3 -6t-3 -6q-23 0 -36 1l-53 1l-52 -1q-14 -1 -37 -1
q-2 0 -2 6zM108.5 526q-10.5 10 -10.5 28t10.5 28t29.5 10q18 0 28 -10t10 -28t-10 -28t-28 -10q-19 0 -29.5 10zM429 348.5q-1 -33.5 -1 -77.5v-319q0 -68 -12 -111.5t-40.5 -72.5t-78.5 -50q-2 -1 -4.5 4.5t-0.5 6.5q49 21 69 67t20 133v341q0 37 -7 53t-25 16
q-19 0 -48 -15h-1q-5 0 -6.5 5t2.5 7l124 58l3 1q7 0 7 -7q0 -6 -1 -39.5zM366.5 526q-10.5 10 -10.5 28t10.5 28t29.5 10q18 0 28 -10t10 -28t-10 -28t-28 -10q-19 0 -29.5 10z" />
    <glyph glyph-name="Jcircumflex" unicode="&#x134;" horiz-adv-x="318" 
d="M0 0zM277 619q0 -6 -2 -6q-34 0 -50 -6t-21.5 -20.5t-5.5 -44.5v-576q0 -96 -43.5 -153t-127.5 -57q-33 0 -51.5 10.5t-18.5 27.5q0 13 7.5 21t21.5 8q15 0 23 -6t18 -18q8 -12 16 -18t22 -6q39 0 59 43.5t20 138.5v587q0 30 -7.5 44t-28.5 19.5t-66 5.5q-2 0 -2 6t2 6
l57 -1q46 -2 71 -2t63 2l42 1q2 0 2 -6zM149 794q5 5 12 5q6 0 11 -5l102 -93q1 0 1 -2t-2.5 -4t-3.5 -1l-108 62l-109 -62q-2 -1 -5 2.5t-1 4.5z" />
    <glyph glyph-name="jcircumflex" unicode="&#x135;" horiz-adv-x="255" 
d="M21 0zM160 348.5q-1 -33.5 -1 -77.5v-319q0 -68 -12 -111.5t-40.5 -72.5t-78.5 -50q-2 -1 -4.5 4.5t-0.5 6.5q49 21 69 67t20 133v341q0 37 -7 53t-25 16q-19 0 -48 -15h-1q-5 0 -6.5 5t2.5 7l124 58l3 1q7 0 7 -7q0 -6 -1 -39.5zM202.5 472.5q-5.5 -1.5 -6.5 1.5
l-68 179l-69 -179q0 -2 -4 -2q-3 0 -5.5 1.5t-1.5 2.5l68 249q1 5 11 5q11 0 12 -5l67 -249q2 -2 -3.5 -3.5z" />
    <glyph glyph-name="Kcommaaccent" unicode="&#x136;" horiz-adv-x="649" 
d="M34 0zM638 6q0 -6 -3 -6h-112q-35 0 -42 4t-36.5 46t-71.5 95l-159 197l-35 -34v-227q0 -31 6.5 -45t24.5 -19t58 -5q2 0 2 -6t-2 -6q-30 0 -48 1l-68 1l-66 -1q-18 -1 -50 -1q-2 0 -2 6t2 6q39 0 57.5 5t25.5 19.5t7 44.5v463q0 30 -6.5 44t-25 19.5t-57.5 5.5
q-2 0 -2 6t2 6l49 -1q42 -2 66 -2q27 0 69 2l47 1q2 0 2 -6t-2 -6q-39 0 -57.5 -6t-25 -20.5t-6.5 -44.5v-211l220 219q34 34 34 47q0 9 -13.5 12.5t-44.5 3.5q-2 0 -2 6t2 6l42 -1q38 -2 71 -2q31 0 65 2l35 1q3 0 3 -6t-3 -6q-41 0 -84.5 -15.5t-81.5 -53.5l-170 -166
l143 -180q76 -95 116 -134t61 -45.5t63 -6.5q3 0 3 -6zM375.5 -107q13.5 -18 13.5 -53q0 -32 -14.5 -59.5t-42.5 -55.5q-1 -1 -3 -1q-3 0 -5 3.5t0 4.5q43 40 43 95q0 18 -5 28q-6 -14 -28 -14q-17 0 -26.5 9.5t-9.5 25.5q0 35 38 35q26 0 39.5 -18z" />
    <glyph glyph-name="kcommaaccent" unicode="&#x137;" horiz-adv-x="491" 
d="M3 0zM482 6q0 -6 -2 -6q-23 0 -37 1l-52 1l-70 -1q-16 -1 -43 -1q-2 0 -2 6t2 6q28 0 40.5 4.5t12.5 14.5q0 9 -9 22l-125 173l-58 -44v-101q0 -30 5 -44.5t18.5 -19.5t42.5 -5q2 0 2 -6t-2 -6q-23 0 -37 1l-52 1l-53 -1q-13 -1 -36 -1q-3 0 -3 6t3 6q29 0 42 5t18 19.5
t5 44.5v519q0 37 -7 53t-25 16q-17 0 -48 -15h-2q-4 0 -5.5 5t2.5 6l120 59l5 1q2 0 4.5 -2t2.5 -5v-523l145 113q34 25 34 43q0 23 -63 23q-3 0 -3 6t3 6q27 0 41 -1l71 -1l66 1q12 1 35 1q2 0 2 -6t-2 -6q-75 0 -166 -69l-64 -49l125 -175q48 -69 117 -69q2 0 2 -6z
M278.5 -107q13.5 -18 13.5 -53q0 -32 -14.5 -59.5t-42.5 -55.5q-1 -1 -3 -1q-3 0 -5 3.5t0 4.5q43 40 43 95q0 18 -5 28q-6 -14 -28 -14q-17 0 -26.5 9.5t-9.5 25.5q0 35 38 35q26 0 39.5 -18z" />
    <glyph glyph-name="kgreenlandic" unicode="&#x138;" horiz-adv-x="509" 
d="M500 6q0 -6 -3 -6q-23 0 -36 1l-53 1l-71 -1q-15 -1 -41 -1q-3 0 -3 6t3 6q27 0 39.5 4.5t12.5 14.5q0 9 -9 22l-124 173l-58 -44v-101q0 -30 4.5 -44.5t18 -19.5t42.5 -5q3 0 3 -6t-3 -6q-23 0 -36 1l-53 1l-52 -1q-14 -1 -37 -1q-2 0 -2 6t2 6q29 0 42.5 5t18.5 19.5
t5 44.5v200q0 35 -8 50t-28 15q-16 0 -56 -15h-2q-4 0 -5.5 4.5t2.5 6.5l111 52q2 1 5 1q8 0 18 -22.5t10 -57.5v-119l145 112q34 25 34 43q0 23 -63 23q-3 0 -3 6t3 6q26 0 40 -1l72 -1l65 1q13 1 35 1q3 0 3 -6t-3 -6q-75 0 -166 -69l-64 -48l125 -176q48 -69 117 -69
q3 0 3 -6z" />
    <glyph glyph-name="Lacute" unicode="&#x139;" horiz-adv-x="530" 
d="M34 0zM178 85q0 -29 6.5 -42.5t24 -18.5t55.5 -5h128q99 0 117 127q0 3 5.5 2.5t5.5 -3.5q-9 -79 -9 -130q0 -8 -3 -11.5t-12 -3.5h-460q-2 0 -2 6t2 6q39 0 57.5 5t25 19.5t6.5 44.5v463q0 30 -6.5 44t-25 19.5t-57.5 5.5q-2 0 -2 6t2 6l49 -1q42 -2 66 -2q27 0 69 2
l47 1q2 0 2 -6t-2 -6q-39 0 -57.5 -5.5t-25 -20t-6.5 -44.5v-458zM58 678q-4 0 -5 4.5t2 6.5q46 21 122 65l50 28q4 2 20.5 -4t29 -13.5t5.5 -8.5q-62 -15 -113.5 -33.5t-108.5 -43.5z" />
    <glyph glyph-name="lacute" unicode="&#x13a;" horiz-adv-x="256" 
d="M17 0zM38 6q0 6 3 6q29 0 42 5t18 19.5t5 44.5v519q0 37 -7 53t-25 16q-16 0 -48 -15h-2q-4 0 -5.5 5t2.5 6l123 59q2 1 5 1q2 0 4.5 -2t2.5 -5v-637q0 -30 4.5 -44t18 -19.5t42.5 -5.5q3 0 3 -6t-3 -6q-22 0 -36 1l-54 1l-54 -1q-13 -1 -36 -1q-3 0 -3 6zM26 727
q-4 0 -5 4.5t2 6.5q46 21 122 65l50 28q4 2 20.5 -4t29 -13.5t5.5 -8.5q-62 -15 -113.5 -33.5t-108.5 -43.5z" />
    <glyph glyph-name="Lcommaaccent" unicode="&#x13b;" horiz-adv-x="530" 
d="M34 0zM178 85q0 -29 6.5 -42.5t24 -18.5t55.5 -5h128q99 0 117 127q0 3 5.5 2.5t5.5 -3.5q-9 -79 -9 -130q0 -8 -3 -11.5t-12 -3.5h-460q-2 0 -2 6t2 6q39 0 57.5 5t25 19.5t6.5 44.5v463q0 30 -6.5 44t-25 19.5t-57.5 5.5q-2 0 -2 6t2 6l49 -1q42 -2 66 -2q27 0 69 2
l47 1q2 0 2 -6t-2 -6q-39 0 -57.5 -5.5t-25 -20t-6.5 -44.5v-458zM330.5 -107q13.5 -18 13.5 -53q0 -32 -14.5 -59.5t-42.5 -55.5q-1 -1 -3 -1q-3 0 -5 3.5t0 4.5q43 40 43 95q0 18 -5 28q-6 -14 -28 -14q-17 0 -26.5 9.5t-9.5 25.5q0 35 38 35q26 0 39.5 -18z" />
    <glyph glyph-name="lcommaaccent" unicode="&#x13c;" horiz-adv-x="256" 
d="M17 0zM38 6q0 6 3 6q29 0 42 5t18 19.5t5 44.5v519q0 37 -7 53t-25 16q-16 0 -48 -15h-2q-4 0 -5.5 5t2.5 6l123 59q2 1 5 1q2 0 4.5 -2t2.5 -5v-637q0 -30 4.5 -44t18 -19.5t42.5 -5.5q3 0 3 -6t-3 -6q-22 0 -36 1l-54 1l-54 -1q-13 -1 -36 -1q-3 0 -3 6zM163.5 -107
q13.5 -18 13.5 -53q0 -32 -14.5 -59.5t-42.5 -55.5q-1 -1 -3 -1q-3 0 -5 3.5t0 4.5q43 40 43 95q0 18 -5 28q-6 -14 -28 -14q-17 0 -26.5 9.5t-9.5 25.5q0 35 38 35q26 0 39.5 -18z" />
    <glyph glyph-name="Lcaron" unicode="&#x13d;" horiz-adv-x="530" 
d="M34 0zM178 85q0 -29 6.5 -42.5t24 -18.5t55.5 -5h128q99 0 117 127q0 3 5.5 2.5t5.5 -3.5q-9 -79 -9 -130q0 -8 -3 -11.5t-12 -3.5h-460q-2 0 -2 6t2 6q39 0 57.5 5t25 19.5t6.5 44.5v463q0 30 -6.5 44t-25 19.5t-57.5 5.5q-2 0 -2 6t2 6l49 -1q42 -2 66 -2q27 0 69 2
l47 1q2 0 2 -6t-2 -6q-39 0 -57.5 -5.5t-25 -20t-6.5 -44.5v-458zM364 624.5q11 -5.5 22 -14.5t11 -13l-25 -245q0 -2 -5.5 -1.5t-5.5 2.5l-8 272q0 5 11 -0.5z" />
    <glyph glyph-name="lcaron" unicode="&#x13e;" horiz-adv-x="256" 
d="M17 0zM38 6q0 6 3 6q29 0 42 5t18 19.5t5 44.5v519q0 37 -7 53t-25 16q-16 0 -48 -15h-2q-4 0 -5.5 5t2.5 6l123 59q2 1 5 1q2 0 4.5 -2t2.5 -5v-637q0 -30 4.5 -44t18 -19.5t42.5 -5.5q3 0 3 -6t-3 -6q-22 0 -36 1l-54 1l-54 -1q-13 -1 -36 -1q-3 0 -3 6zM240 724.5
q11 -5.5 22 -14.5t11 -13l-25 -245q0 -2 -5.5 -1.5t-5.5 2.5l-8 272q0 5 11 -0.5z" />
    <glyph glyph-name="Ldot" unicode="&#x13f;" horiz-adv-x="530" 
d="M34 0zM178 85q0 -29 6.5 -42.5t24 -18.5t55.5 -5h128q99 0 117 127q0 3 5.5 2.5t5.5 -3.5q-9 -79 -9 -130q0 -8 -3 -11.5t-12 -3.5h-460q-2 0 -2 6t2 6q39 0 57.5 5t25 19.5t6.5 44.5v463q0 30 -6.5 44t-25 19.5t-57.5 5.5q-2 0 -2 6t2 6l49 -1q42 -2 66 -2q27 0 69 2
l47 1q2 0 2 -6t-2 -6q-39 0 -57.5 -5.5t-25 -20t-6.5 -44.5v-458zM400 294.5q-11 10.5 -11 28.5q0 17 11 27t29 10q19 0 29 -10t10 -27q0 -18 -10 -28.5t-29 -10.5q-18 0 -29 10.5z" />
    <glyph glyph-name="ldot" unicode="&#x140;" horiz-adv-x="256" 
d="M17 0zM38 6q0 6 3 6q29 0 42 5t18 19.5t5 44.5v519q0 37 -7 53t-25 16q-16 0 -48 -15h-2q-4 0 -5.5 5t2.5 6l123 59q2 1 5 1q2 0 4.5 -2t2.5 -5v-637q0 -30 4.5 -44t18 -19.5t42.5 -5.5q3 0 3 -6t-3 -6q-22 0 -36 1l-54 1l-54 -1q-13 -1 -36 -1q-3 0 -3 6zM228 309.5
q-11 10.5 -11 28.5q0 17 11 27t29 10q19 0 29 -10t10 -27q0 -18 -10 -28.5t-29 -10.5q-18 0 -29 10.5z" />
    <glyph glyph-name="Lslash" unicode="&#x141;" horiz-adv-x="518" 
d="M514.5 148.5q5.5 -0.5 5.5 -3.5q-9 -79 -9 -130q0 -8 -3 -11.5t-12 -3.5h-460q-2 0 -2 6t2 6q39 0 57.5 5t25 19.5t6.5 44.5v188l-51 -29h-1q-4 0 -8 7.5t-1 8.5l61 35v253q0 30 -6.5 44t-25 19.5t-57.5 5.5q-2 0 -2 6t2 6l49 -1q42 -2 66 -2q27 0 69 2l47 1q2 0 2 -6
t-2 -6q-39 0 -57.5 -5.5t-25 -20t-6.5 -44.5v-221l105 60h1q4 0 8 -7.5t0 -8.5l-114 -66v-215q0 -29 6.5 -42.5t24 -18.5t55.5 -5h128q99 0 117 127q0 3 5.5 2.5z" />
    <glyph glyph-name="lslash" unicode="&#x142;" horiz-adv-x="260" 
d="M221 406q4 0 8 -7.5t0 -9.5l-69 -40v-268q0 -30 4.5 -44t18 -19.5t42.5 -5.5q3 0 3 -6t-3 -6q-22 0 -36 1l-54 1l-54 -1q-13 -1 -36 -1q-3 0 -3 6t3 6q29 0 42 5t18 19.5t5 44.5v240l-59 -34h-1q-4 0 -8 7.5t0 8.5l68 39v258q0 37 -7 53t-25 16q-16 0 -48 -15h-2
q-4 0 -5.5 5t2.5 6l123 59q2 1 5 1q2 0 4.5 -2t2.5 -5v-347l60 35h1z" />
    <glyph glyph-name="Nacute" unicode="&#x143;" horiz-adv-x="725" 
d="M41 0zM702 619q0 -6 -3 -6q-43 0 -60.5 -21t-17.5 -72v-531q0 -2 -5 -3t-7 1l-452 556l-17 19v-458q0 -51 17 -71.5t59 -20.5q3 0 3 -6t-3 -6q-24 0 -37 1l-48 1l-49 -1q-13 -1 -39 -1q-2 0 -2 6t2 6q43 0 59 20t16 72v479q-35 30 -72 30q-3 0 -3 6t3 6l36 -1
q11 -1 31 -1q17 0 28 1t17 1q7 0 11.5 -3.5t10.5 -14.5q11 -18 24 -34l395 -491v438q0 51 -16 72t-58 21q-2 0 -2 6t2 6l38 -1q30 -2 48 -2q17 0 49 2l39 1q3 0 3 -6zM275 678q-4 0 -5 4.5t2 6.5q46 21 122 65l50 28q4 2 20.5 -4t29 -13.5t5.5 -8.5q-62 -15 -113.5 -33.5
t-108.5 -43.5z" />
    <glyph glyph-name="nacute" unicode="&#x144;" horiz-adv-x="515" 
d="M10 0zM495 6q0 -6 -3 -6q-23 0 -36 1l-52 1l-53 -1q-13 -1 -36 -1q-3 0 -3 6t3 6q29 0 42 5t18 19.5t5 44.5v167q0 61 -23 89t-72 28q-32 0 -65.5 -18.5t-61.5 -50.5v-215q0 -30 4.5 -44.5t18 -19.5t42.5 -5q3 0 3 -6t-3 -6q-23 0 -36 1l-52 1l-53 -1q-13 -1 -36 -1
q-3 0 -3 6t3 6q29 0 42 5t18 19.5t5 44.5v200q0 35 -8 50t-28 15q-16 0 -56 -15h-2q-4 0 -5.5 4.5t2.5 6.5l111 52q2 1 5 1q8 0 18 -22.5t10 -57.5v-4q40 46 77 67t77 21q56 0 85.5 -30t29.5 -91v-197q0 -30 4.5 -44.5t18 -19.5t42.5 -5q3 0 3 -6zM263 472q-3 0 -5.5 1.5
t-1.5 2.5l57 240q1 4 14.5 8.5t26 6t10.5 -3.5l-97 -253q0 -2 -4 -2z" />
    <glyph glyph-name="Ncommaaccent" unicode="&#x145;" horiz-adv-x="725" 
d="M41 0zM702 619q0 -6 -3 -6q-43 0 -60.5 -21t-17.5 -72v-531q0 -2 -5 -3t-7 1l-452 556l-17 19v-458q0 -51 17 -71.5t59 -20.5q3 0 3 -6t-3 -6q-24 0 -37 1l-48 1l-49 -1q-13 -1 -39 -1q-2 0 -2 6t2 6q43 0 59 20t16 72v479q-35 30 -72 30q-3 0 -3 6t3 6l36 -1
q11 -1 31 -1q17 0 28 1t17 1q7 0 11.5 -3.5t10.5 -14.5q11 -18 24 -34l395 -491v438q0 51 -16 72t-58 21q-2 0 -2 6t2 6l38 -1q30 -2 48 -2q17 0 49 2l39 1q3 0 3 -6zM406.5 -107q13.5 -18 13.5 -53q0 -32 -14.5 -59.5t-42.5 -55.5q-1 -1 -3 -1q-3 0 -5 3.5t0 4.5
q43 40 43 95q0 18 -5 28q-6 -14 -28 -14q-17 0 -26.5 9.5t-9.5 25.5q0 35 38 35q26 0 39.5 -18z" />
    <glyph glyph-name="ncommaaccent" unicode="&#x146;" horiz-adv-x="515" 
d="M10 0zM495 6q0 -6 -3 -6q-23 0 -36 1l-52 1l-53 -1q-13 -1 -36 -1q-3 0 -3 6t3 6q29 0 42 5t18 19.5t5 44.5v167q0 61 -23 89t-72 28q-32 0 -65.5 -18.5t-61.5 -50.5v-215q0 -30 4.5 -44.5t18 -19.5t42.5 -5q3 0 3 -6t-3 -6q-23 0 -36 1l-52 1l-53 -1q-13 -1 -36 -1
q-3 0 -3 6t3 6q29 0 42 5t18 19.5t5 44.5v200q0 35 -8 50t-28 15q-16 0 -56 -15h-2q-4 0 -5.5 4.5t2.5 6.5l111 52q2 1 5 1q8 0 18 -22.5t10 -57.5v-4q40 46 77 67t77 21q56 0 85.5 -30t29.5 -91v-197q0 -30 4.5 -44.5t18 -19.5t42.5 -5q3 0 3 -6zM289.5 -107
q13.5 -18 13.5 -53q0 -32 -14.5 -59.5t-42.5 -55.5q-1 -1 -3 -1q-3 0 -5 3.5t0 4.5q43 40 43 95q0 18 -5 28q-6 -14 -28 -14q-17 0 -26.5 9.5t-9.5 25.5q0 35 38 35q26 0 39.5 -18z" />
    <glyph glyph-name="Ncaron" unicode="&#x147;" horiz-adv-x="725" 
d="M41 0zM702 619q0 -6 -3 -6q-43 0 -60.5 -21t-17.5 -72v-531q0 -2 -5 -3t-7 1l-452 556l-17 19v-458q0 -51 17 -71.5t59 -20.5q3 0 3 -6t-3 -6q-24 0 -37 1l-48 1l-49 -1q-13 -1 -39 -1q-2 0 -2 6t2 6q43 0 59 20t16 72v479q-35 30 -72 30q-3 0 -3 6t3 6l36 -1
q11 -1 31 -1q17 0 28 1t17 1q7 0 11.5 -3.5t10.5 -14.5q11 -18 24 -34l395 -491v438q0 51 -16 72t-58 21q-2 0 -2 6t2 6l38 -1q30 -2 48 -2q17 0 49 2l39 1q3 0 3 -6zM259 779q-1 0 -1 0.5v0.5q0 2 2.5 4.5t4.5 1.5l109 -62l108 62h1q3 0 5 -3t-1 -4l-102 -92q-4 -4 -11 -4
q-8 0 -12 4z" />
    <glyph glyph-name="ncaron" unicode="&#x148;" horiz-adv-x="515" 
d="M10 0zM495 6q0 -6 -3 -6q-23 0 -36 1l-52 1l-53 -1q-13 -1 -36 -1q-3 0 -3 6t3 6q29 0 42 5t18 19.5t5 44.5v167q0 61 -23 89t-72 28q-32 0 -65.5 -18.5t-61.5 -50.5v-215q0 -30 4.5 -44.5t18 -19.5t42.5 -5q3 0 3 -6t-3 -6q-23 0 -36 1l-52 1l-53 -1q-13 -1 -36 -1
q-3 0 -3 6t3 6q29 0 42 5t18 19.5t5 44.5v200q0 35 -8 50t-28 15q-16 0 -56 -15h-2q-4 0 -5.5 4.5t2.5 6.5l111 52q2 1 5 1q8 0 18 -22.5t10 -57.5v-4q40 46 77 67t77 21q56 0 85.5 -30t29.5 -91v-197q0 -30 4.5 -44.5t18 -19.5t42.5 -5q3 0 3 -6zM193.5 730q5.5 1 6.5 -1
l69 -179l68 179q1 2 6 1t4 -4l-67 -249q-2 -5 -11 -5t-12 5l-68 249q-1 3 4.5 4z" />
    <glyph glyph-name="napostrophe" unicode="&#x149;" horiz-adv-x="515" 
d="M10 0zM112.5 613.5q16.5 -21.5 16.5 -61.5q0 -39 -17.5 -72t-51.5 -66q-1 -1 -3 -1q-3 0 -5 3t0 5q49 50 49 118q0 26 -10 41q-7 -15 -29 -15q-17 0 -26.5 9.5t-9.5 25.5q0 35 41 35q29 0 45.5 -21.5zM495 6q0 -6 -3 -6q-23 0 -36 1l-52 1l-53 -1q-13 -1 -36 -1
q-3 0 -3 6t3 6q29 0 42 5t18 19.5t5 44.5v167q0 61 -23 89t-72 28q-32 0 -65.5 -18.5t-61.5 -50.5v-215q0 -30 4.5 -44.5t18 -19.5t42.5 -5q3 0 3 -6t-3 -6q-23 0 -36 1l-52 1l-53 -1q-13 -1 -36 -1q-3 0 -3 6t3 6q29 0 42 5t18 19.5t5 44.5v200q0 35 -8 50t-28 15
q-16 0 -56 -15h-2q-4 0 -5.5 4.5t2.5 6.5l111 52q2 1 5 1q8 0 18 -22.5t10 -57.5v-4q40 46 77 67t77 21q56 0 85.5 -30t29.5 -91v-197q0 -30 4.5 -44.5t18 -19.5t42.5 -5q3 0 3 -6z" />
    <glyph glyph-name="Eng" unicode="&#x14a;" horiz-adv-x="725" 
d="M702 619q0 -6 -3 -6q-43 0 -60.5 -21t-17.5 -72v-531q0 -89 -32 -134.5t-94 -45.5q-33 0 -54.5 16t-21.5 39q0 15 7 23.5t20 8.5t19.5 -7.5t13.5 -24.5q7 -18 15 -27.5t26 -9.5q38 0 59.5 43.5t21.5 115.5v11l-444 546l-17 19v-458q0 -51 17 -71.5t59 -20.5q3 0 3 -6
t-3 -6q-24 0 -37 1l-48 1l-49 -1q-13 -1 -39 -1q-2 0 -2 6t2 6q43 0 60 20.5t17 71.5v478q-36 31 -74 31q-3 0 -3 6t3 6l36 -1q11 -1 31 -1q17 0 28 1t17 1q7 0 11.5 -3.5t10.5 -14.5q11 -18 24 -34l397 -493v440q0 51 -17 72t-59 21q-2 0 -2 6t2 6l38 -1q30 -2 48 -2
q17 0 49 2l39 1q3 0 3 -6z" />
    <glyph glyph-name="eng" unicode="&#x14b;" horiz-adv-x="503" 
d="M396.5 369q29.5 -30 29.5 -91v-326q0 -67 -12 -109.5t-40 -69.5t-79 -48q-3 -1 -5 4.5t0 6.5q49 21 69 64t20 129v319q0 61 -23 89t-72 28q-32 0 -65.5 -18.5t-61.5 -50.5v-215q0 -30 4.5 -44.5t18 -19.5t42.5 -5q3 0 3 -6t-3 -6q-23 0 -36 1l-53 1l-52 -1q-14 -1 -37 -1
q-2 0 -2 6t2 6q29 0 42.5 5t18.5 19.5t5 44.5v200q0 35 -8 50t-28 15q-16 0 -56 -15h-2q-4 0 -5.5 4.5t2.5 6.5l111 52q2 1 5 1q8 0 18 -22.5t10 -57.5v-2q39 45 76.5 65.5t77.5 20.5q56 0 85.5 -30z" />
    <glyph glyph-name="Omacron" unicode="&#x14c;" horiz-adv-x="766" 
d="M49 0zM200.5 31.5q-72.5 43.5 -112 118t-39.5 162.5q0 103 52 176.5t133.5 110.5t166.5 37q95 0 167 -44.5t110.5 -117.5t38.5 -155q0 -91 -48 -167t-128.5 -120t-174.5 -44q-93 0 -165.5 43.5zM530 41q57 33 90 97t33 153q0 94 -36.5 167.5t-103 114.5t-154.5 41
q-116 0 -181 -72t-65 -196q0 -93 36.5 -170.5t102.5 -122.5t150 -45q71 0 128 33zM254.5 728q-1.5 4 -1.5 9q0 13 5 13h251q5 0 5 -13t-5 -13h-251q-2 0 -3.5 4z" />
    <glyph glyph-name="omacron" unicode="&#x14d;" horiz-adv-x="477" 
d="M37 0zM129 15.5q-44 28.5 -68 77t-24 105.5q0 65 31.5 110.5t80 68t99.5 22.5q58 0 101.5 -29t67 -76.5t23.5 -100.5q0 -62 -28.5 -109t-76.5 -72t-105 -25t-101 28.5zM349 44q33 39 33 123q0 60 -21 108.5t-59 76.5t-87 28q-57 0 -89 -39.5t-32 -113.5q0 -60 21 -110.5
t58 -81t85 -30.5q58 0 91 39zM109.5 489q-1.5 4 -1.5 9q0 13 5 13h251q5 0 5 -13t-5 -13h-251q-2 0 -3.5 4z" />
    <glyph glyph-name="Obreve" unicode="&#x14e;" horiz-adv-x="766" 
d="M49 0zM200.5 31.5q-72.5 43.5 -112 118t-39.5 162.5q0 103 52 176.5t133.5 110.5t166.5 37q95 0 167 -44.5t110.5 -117.5t38.5 -155q0 -91 -48 -167t-128.5 -120t-174.5 -44q-93 0 -165.5 43.5zM530 41q57 33 90 97t33 153q0 94 -36.5 167.5t-103 114.5t-154.5 41
q-116 0 -181 -72t-65 -196q0 -93 36.5 -170.5t102.5 -122.5t150 -45q71 0 128 33zM316.5 716.5q-26.5 26.5 -35.5 75.5q-1 4 4 4.5t7 -1.5q8 -30 35 -50.5t57 -20.5t56.5 21t34.5 50q0 2 4 2q3 0 5.5 -1.5t1.5 -3.5q-9 -49 -35 -75.5t-67 -26.5t-67.5 26.5z" />
    <glyph glyph-name="obreve" unicode="&#x14f;" horiz-adv-x="477" 
d="M37 0zM129 15.5q-44 28.5 -68 77t-24 105.5q0 65 31.5 110.5t80 68t99.5 22.5q58 0 101.5 -29t67 -76.5t23.5 -100.5q0 -62 -28.5 -109t-76.5 -72t-105 -25t-101 28.5zM349 44q33 39 33 123q0 60 -21 108.5t-59 76.5t-87 28q-57 0 -89 -39.5t-32 -113.5q0 -60 21 -110.5
t58 -81t85 -30.5q58 0 91 39zM141.5 628q5.5 1 5.5 -2q0 -47 26 -78t66 -31q38 0 64.5 31.5t26.5 77.5q0 2 3 2t5.5 -1.5t2.5 -3.5q0 -73 -26 -110.5t-76 -37.5t-76.5 37.5t-26.5 110.5q0 4 5.5 5z" />
    <glyph glyph-name="Ohungarumlaut" unicode="&#x150;" horiz-adv-x="766" 
d="M49 0zM200.5 31.5q-72.5 43.5 -112 118t-39.5 162.5q0 103 52 176.5t133.5 110.5t166.5 37q95 0 167 -44.5t110.5 -117.5t38.5 -155q0 -91 -48 -167t-128.5 -120t-174.5 -44q-93 0 -165.5 43.5zM530 41q57 33 90 97t33 153q0 94 -36.5 167.5t-103 114.5t-154.5 41
q-116 0 -181 -72t-65 -196q0 -93 36.5 -170.5t102.5 -122.5t150 -45q71 0 128 33zM279 678q-3 0 -4 4.5t1 6.5q41 37 90 87q3 3 20.5 -1t31 -10t6.5 -9q-67 -28 -143 -77zM396 678q-3 0 -4 4.5t1 6.5q41 37 90 87q3 3 19.5 -1t29 -10t6.5 -9q-37 -15 -68.5 -33t-71.5 -44z
" />
    <glyph glyph-name="ohungarumlaut" unicode="&#x151;" horiz-adv-x="477" 
d="M37 0zM129 15.5q-44 28.5 -68 77t-24 105.5q0 65 31.5 110.5t80 68t99.5 22.5q58 0 101.5 -29t67 -76.5t23.5 -100.5q0 -62 -28.5 -109t-76.5 -72t-105 -25t-101 28.5zM349 44q33 39 33 123q0 60 -21 108.5t-59 76.5t-87 28q-57 0 -89 -39.5t-32 -113.5q0 -60 21 -110.5
t58 -81t85 -30.5q58 0 91 39zM147 463q-3 0 -4.5 4.5t1.5 6.5q18 16 50 54q30 35 40 44q4 2 23.5 -2t35 -10t8.5 -8q-63 -25 -152 -89h-2zM264 463q-3 0 -4.5 4.5t1.5 6.5q18 16 50 54q30 35 40 44q4 2 23.5 -2t35 -10t8.5 -8q-63 -25 -152 -89h-2z" />
    <glyph glyph-name="OE" unicode="&#x152;" horiz-adv-x="910" 
d="M852.5 148q5.5 0 5.5 -3q-9 -79 -9 -130q0 -8 -3 -11.5t-12 -3.5h-292q-22 0 -72 -2q-52 -2 -77 -2q-99 0 -177.5 40t-122.5 110t-44 155q0 97 46 171t124.5 114.5t171.5 40.5q41 0 65 -1l80 -1h280q10 0 10 -9l2 -121q0 -3 -6 -3t-6 3q0 50 -27 80.5t-71 30.5h-69
q-38 0 -56 -5t-24 -17.5t-6 -40.5v-208h132q46 0 64 15.5t18 53.5q0 2 5.5 2t5.5 -2l-1 -79q0 -29 1 -43l1 -47q0 -2 -5.5 -2t-5.5 2q0 45 -19 63t-68 18h-128v-231q0 -29 6 -42.5t24 -18.5t56 -5h93q39 0 68 35t37 91q0 3 5.5 3zM510 531q0 45 -22.5 64t-86.5 19
q-84 0 -149.5 -34t-102 -99.5t-36.5 -157.5q0 -88 34.5 -159.5t99 -113t148.5 -41.5q44 0 68 5.5t35.5 21t11.5 46.5v449z" />
    <glyph glyph-name="oe" unicode="&#x153;" horiz-adv-x="685" 
d="M644 54q3 0 6 -3.5t0 -6.5q-60 -56 -131 -56q-59 0 -100 24.5t-61 66.5q-25 -44 -65 -68t-88 -24q-52 0 -93 29t-63.5 77t-22.5 105q0 65 29.5 110.5t75 68t92.5 22.5q53 0 92 -28.5t58 -75.5q29 46 74 73t100 27q47 0 73 -26.5t26 -72.5q0 -12 -2.5 -17t-9.5 -5l-237 -1
q-8 -32 -8 -66q0 -87 44 -137t118 -50q55 0 92 34h1zM309.5 48q28.5 43 28.5 122q0 63 -18.5 110.5t-52 73.5t-76.5 26q-51 0 -80 -39.5t-29 -113.5q0 -60 19.5 -111t54 -81t76.5 -30q49 0 77.5 43zM443 351q-29 -24 -43 -66l186 4q0 41 -20 63.5t-53 22.5q-41 0 -70 -24z
" />
    <glyph glyph-name="Racute" unicode="&#x154;" horiz-adv-x="667" 
d="M42 0zM679 6q0 -6 -3 -6h-116q-26 0 -97 86.5t-172 239.5q-30 -8 -61 -8q-17 0 -43 2v-239q0 -31 6.5 -45t24.5 -19t58 -5q3 0 3 -6t-3 -6q-30 0 -48 1l-68 1l-66 -1q-18 -1 -50 -1q-2 0 -2 6t2 6q40 0 58.5 5t25.5 19.5t7 44.5v463q0 30 -6.5 44t-25 19.5t-57.5 5.5
q-3 0 -3 6t3 6l48 -1q40 -2 66 -2q18 0 34 1t28 2q31 3 55 3q79 0 121 -33t42 -92q0 -48 -28 -90.5t-74 -67.5q87 -128 145 -199t103.5 -102.5t89.5 -31.5q3 0 3 -6zM247 340q73 0 105 30.5t32 98.5q0 76 -35.5 111t-94.5 35q-28 0 -41 -4t-19.5 -19t-6.5 -50v-198
q38 -4 60 -4zM158 678q-4 0 -5 4.5t2 6.5q46 21 122 65l50 28q4 2 20.5 -4t29 -13.5t5.5 -8.5q-62 -15 -113.5 -33.5t-108.5 -43.5z" />
    <glyph glyph-name="racute" unicode="&#x155;" horiz-adv-x="360" 
d="M10 0zM310.5 383.5q19.5 -11.5 19.5 -26.5q0 -10 -7.5 -18t-21.5 -8q-10 0 -18 5.5t-10 6.5q-19 15 -38 15q-14 0 -29.5 -12t-47.5 -51v-214q0 -30 7 -44.5t27.5 -19.5t65.5 -5q3 0 3 -6t-3 -6q-32 0 -51 1l-72 1l-53 -1q-13 -1 -36 -1q-3 0 -3 6t3 6q29 0 42 5t18 19.5
t5 44.5v200q0 35 -8 50t-28 15q-16 0 -56 -15h-2q-4 0 -5.5 4.5t2.5 6.5l111 52q2 1 5 1q8 0 18 -22.5t10 -57.5v-6q41 50 65 68t46 18t41.5 -11.5zM175 472q-3 0 -5.5 1.5t-1.5 2.5l57 240q1 4 14.5 8.5t26 6t10.5 -3.5l-97 -253q0 -2 -4 -2z" />
    <glyph glyph-name="Rcommaaccent" unicode="&#x156;" horiz-adv-x="667" 
d="M42 0zM679 6q0 -6 -3 -6h-116q-26 0 -97 86.5t-172 239.5q-30 -8 -61 -8q-17 0 -43 2v-239q0 -31 6.5 -45t24.5 -19t58 -5q3 0 3 -6t-3 -6q-30 0 -48 1l-68 1l-66 -1q-18 -1 -50 -1q-2 0 -2 6t2 6q40 0 58.5 5t25.5 19.5t7 44.5v463q0 30 -6.5 44t-25 19.5t-57.5 5.5
q-3 0 -3 6t3 6l48 -1q40 -2 66 -2q18 0 34 1t28 2q31 3 55 3q79 0 121 -33t42 -92q0 -48 -28 -90.5t-74 -67.5q87 -128 145 -199t103.5 -102.5t89.5 -31.5q3 0 3 -6zM247 340q73 0 105 30.5t32 98.5q0 76 -35.5 111t-94.5 35q-28 0 -41 -4t-19.5 -19t-6.5 -50v-198
q38 -4 60 -4zM372.5 -107q13.5 -18 13.5 -53q0 -32 -14.5 -59.5t-42.5 -55.5q-1 -1 -3 -1q-3 0 -5 3.5t0 4.5q43 40 43 95q0 18 -5 28q-6 -14 -28 -14q-17 0 -26.5 9.5t-9.5 25.5q0 35 38 35q26 0 39.5 -18z" />
    <glyph glyph-name="rcommaaccent" unicode="&#x157;" horiz-adv-x="360" 
d="M10 0zM310.5 383.5q19.5 -11.5 19.5 -26.5q0 -10 -7.5 -18t-21.5 -8q-10 0 -18 5.5t-10 6.5q-19 15 -38 15q-14 0 -29.5 -12t-47.5 -51v-214q0 -30 7 -44.5t27.5 -19.5t65.5 -5q3 0 3 -6t-3 -6q-32 0 -51 1l-72 1l-53 -1q-13 -1 -36 -1q-3 0 -3 6t3 6q29 0 42 5t18 19.5
t5 44.5v200q0 35 -8 50t-28 15q-16 0 -56 -15h-2q-4 0 -5.5 4.5t2.5 6.5l111 52q2 1 5 1q8 0 18 -22.5t10 -57.5v-6q41 50 65 68t46 18t41.5 -11.5zM186.5 -107q13.5 -18 13.5 -53q0 -32 -14.5 -59.5t-42.5 -55.5q-1 -1 -3 -1q-3 0 -5 3.5t0 4.5q43 40 43 95q0 18 -5 28
q-6 -14 -28 -14q-17 0 -26.5 9.5t-9.5 25.5q0 35 38 35q26 0 39.5 -18z" />
    <glyph glyph-name="Rcaron" unicode="&#x158;" horiz-adv-x="667" 
d="M42 0zM679 6q0 -6 -3 -6h-116q-26 0 -97 86.5t-172 239.5q-30 -8 -61 -8q-17 0 -43 2v-239q0 -31 6.5 -45t24.5 -19t58 -5q3 0 3 -6t-3 -6q-30 0 -48 1l-68 1l-66 -1q-18 -1 -50 -1q-2 0 -2 6t2 6q40 0 58.5 5t25.5 19.5t7 44.5v463q0 30 -6.5 44t-25 19.5t-57.5 5.5
q-3 0 -3 6t3 6l48 -1q40 -2 66 -2q18 0 34 1t28 2q31 3 55 3q79 0 121 -33t42 -92q0 -48 -28 -90.5t-74 -67.5q87 -128 145 -199t103.5 -102.5t89.5 -31.5q3 0 3 -6zM247 340q73 0 105 30.5t32 98.5q0 76 -35.5 111t-94.5 35q-28 0 -41 -4t-19.5 -19t-6.5 -50v-198
q38 -4 60 -4zM142 779q-1 0 -1 0.5v0.5q0 2 2.5 4.5t4.5 1.5l109 -62l108 62h1q3 0 5 -3t-1 -4l-102 -92q-4 -4 -11 -4q-8 0 -12 4z" />
    <glyph glyph-name="rcaron" unicode="&#x159;" horiz-adv-x="360" 
d="M10 0zM310.5 383.5q19.5 -11.5 19.5 -26.5q0 -10 -7.5 -18t-21.5 -8q-10 0 -18 5.5t-10 6.5q-19 15 -38 15q-14 0 -29.5 -12t-47.5 -51v-214q0 -30 7 -44.5t27.5 -19.5t65.5 -5q3 0 3 -6t-3 -6q-32 0 -51 1l-72 1l-53 -1q-13 -1 -36 -1q-3 0 -3 6t3 6q29 0 42 5t18 19.5
t5 44.5v200q0 35 -8 50t-28 15q-16 0 -56 -15h-2q-4 0 -5.5 4.5t2.5 6.5l111 52q2 1 5 1q8 0 18 -22.5t10 -57.5v-6q41 50 65 68t46 18t41.5 -11.5zM105.5 730q5.5 1 6.5 -1l69 -179l68 179q1 2 6 1t4 -4l-67 -249q-2 -5 -11 -5t-12 5l-68 249q-1 3 4.5 4z" />
    <glyph glyph-name="Sacute" unicode="&#x15a;" horiz-adv-x="485" 
d="M67 0zM157 435q19 -29 46.5 -48.5t76.5 -48.5q52 -31 80.5 -51.5t49 -52.5t20.5 -77q0 -47 -23 -85.5t-68.5 -61t-111.5 -22.5q-35 0 -66.5 7.5t-69.5 26.5q-5 3 -6.5 7t-2.5 12l-15 130v1q0 4 5 4.5t6 -3.5q10 -69 53 -120t118 -51q53 0 89.5 29t36.5 91q0 45 -20 77.5
t-48.5 54t-77.5 50.5q-48 28 -75.5 49t-47 52.5t-19.5 75.5q0 50 25.5 85t66.5 52.5t88 17.5q55 0 114 -24q15 -6 15 -17l9 -106q0 -4 -5.5 -4t-6.5 4q-4 52 -39 93t-100 41q-60 0 -88 -35t-28 -84q0 -40 19 -69zM152 678q-4 0 -5 4.5t2 6.5q46 21 122 65l50 28q4 2 20.5 -4
t29 -13.5t5.5 -8.5q-62 -15 -113.5 -33.5t-108.5 -43.5z" />
    <glyph glyph-name="sacute" unicode="&#x15b;" horiz-adv-x="338" 
d="M49 0zM119 264.5q23 -20.5 70 -43.5q34 -17 54 -30t34 -33.5t14 -49.5q0 -50 -37.5 -84.5t-102.5 -34.5q-53 0 -94 31q-6 4 -6 12l-2 72q0 3 5.5 3.5t6.5 -2.5q19 -50 48.5 -73.5t70.5 -23.5q34 0 52 15t18 44t-12.5 48.5t-31 31.5t-50.5 27q-33 16 -52.5 28.5t-33 33.5
t-13.5 52q0 53 40 82t94 29q37 0 71 -15q6 -3 7.5 -5t1.5 -6q0 -19 -1 -30l-1 -39q0 -2 -6 -2t-6 2q0 32 -33 53.5t-70 21.5q-27 0 -42.5 -14.5t-15.5 -42.5q0 -37 23 -57.5zM166 472q-3 0 -5.5 1.5t-1.5 2.5l57 240q1 4 14.5 8.5t26 6t10.5 -3.5l-97 -253q0 -2 -4 -2z" />
    <glyph glyph-name="Scircumflex" unicode="&#x15c;" horiz-adv-x="485" 
d="M67 0zM157 435q19 -29 46.5 -48.5t76.5 -48.5q52 -31 80.5 -51.5t49 -52.5t20.5 -77q0 -47 -23 -85.5t-68.5 -61t-111.5 -22.5q-35 0 -66.5 7.5t-69.5 26.5q-5 3 -6.5 7t-2.5 12l-15 130v1q0 4 5 4.5t6 -3.5q10 -69 53 -120t118 -51q53 0 89.5 29t36.5 91q0 45 -20 77.5
t-48.5 54t-77.5 50.5q-48 28 -75.5 49t-47 52.5t-19.5 75.5q0 50 25.5 85t66.5 52.5t88 17.5q55 0 114 -24q15 -6 15 -17l9 -106q0 -4 -5.5 -4t-6.5 4q-4 52 -39 93t-100 41q-60 0 -88 -35t-28 -84q0 -40 19 -69zM240 783q5 5 12 5q6 0 11 -5l102 -93q1 0 1 -2t-2.5 -4
t-3.5 -1l-108 62l-109 -62q-2 -1 -5 2.5t-1 4.5z" />
    <glyph glyph-name="scircumflex" unicode="&#x15d;" horiz-adv-x="338" 
d="M49 0zM119 264.5q23 -20.5 70 -43.5q34 -17 54 -30t34 -33.5t14 -49.5q0 -50 -37.5 -84.5t-102.5 -34.5q-53 0 -94 31q-6 4 -6 12l-2 72q0 3 5.5 3.5t6.5 -2.5q19 -50 48.5 -73.5t70.5 -23.5q34 0 52 15t18 44t-12.5 48.5t-31 31.5t-50.5 27q-33 16 -52.5 28.5t-33 33.5
t-13.5 52q0 53 40 82t94 29q37 0 71 -15q6 -3 7.5 -5t1.5 -6q0 -19 -1 -30l-1 -39q0 -2 -6 -2t-6 2q0 32 -33 53.5t-70 21.5q-27 0 -42.5 -14.5t-15.5 -42.5q0 -37 23 -57.5zM247.5 472.5q-5.5 -1.5 -6.5 1.5l-68 179l-69 -179q0 -2 -4 -2q-3 0 -5.5 1.5t-1.5 2.5l68 249
q1 5 11 5q11 0 12 -5l67 -249q2 -2 -3.5 -3.5z" />
    <glyph glyph-name="Scedilla" unicode="&#x15e;" horiz-adv-x="485" 
d="M385.5 43.5q-44.5 -46.5 -128.5 -54.5q-6 -18 -9.5 -31.5t-3.5 -20.5q0 -11 6.5 -17t19 -13t19.5 -11q25 -14 39.5 -32t14.5 -45q0 -36 -25.5 -65t-73.5 -29q-26 0 -44 9.5t-18 26.5q0 12 8 19.5t20 7.5q10 0 15.5 -5t10.5 -15q8 -12 15 -18t22 -6q37 0 37 41
q0 26 -18.5 46.5t-67.5 46.5q-8 4 -12 7t-4 7q0 5 6 17q15 36 30 79h-17q-35 0 -66.5 7.5t-69.5 26.5q-5 3 -6.5 7t-2.5 12l-15 130v1q0 4 5 4.5t6 -3.5q10 -69 53 -120t118 -51q53 0 89.5 29t36.5 91q0 45 -20 77.5t-48.5 54t-77.5 50.5q-48 28 -75.5 49t-47 52.5
t-19.5 75.5q0 50 25.5 85t66.5 52.5t88 17.5q55 0 114 -24q15 -6 15 -17l9 -106q0 -4 -5.5 -4t-6.5 4q-4 52 -39 93t-100 41q-60 0 -88 -35t-28 -84q0 -40 19 -69t46.5 -48.5t76.5 -48.5q52 -31 80.5 -51.5t49 -52.5t20.5 -77q0 -67 -44.5 -113.5z" />
    <glyph glyph-name="scedilla" unicode="&#x15f;" horiz-adv-x="338" 
d="M258.5 28q-32.5 -33 -89.5 -38q-13 -42 -13 -53t6.5 -17t19 -13t19.5 -11q25 -14 39.5 -32t14.5 -45q0 -36 -25.5 -65t-73.5 -29q-26 0 -44 9.5t-18 26.5q0 12 8 19.5t20 7.5q10 0 15.5 -5t10.5 -15q8 -12 15 -18t22 -6q37 0 37 41q0 26 -18.5 46.5t-67.5 46.5
q-8 4 -12 7t-4 7q0 5 6 17q15 36 30 80h-5q-53 0 -94 31q-6 4 -6 12l-2 72q0 3 5.5 3.5t6.5 -2.5q19 -50 48.5 -73.5t70.5 -23.5q34 0 52 15t18 44t-12.5 48.5t-31 31.5t-50.5 27q-33 16 -52.5 28.5t-33 33.5t-13.5 52q0 53 40 82t94 29q37 0 71 -15q6 -3 7.5 -5t1.5 -6
q0 -19 -1 -30l-1 -39q0 -2 -6 -2t-6 2q0 32 -33 53.5t-70 21.5q-27 0 -42.5 -14.5t-15.5 -42.5q0 -37 23 -57.5t70 -43.5q34 -17 54 -30t34 -33.5t14 -49.5q0 -47 -32.5 -80z" />
    <glyph glyph-name="Scaron" unicode="&#x160;" horiz-adv-x="485" 
d="M67 0zM157 435q19 -29 46.5 -48.5t76.5 -48.5q52 -31 80.5 -51.5t49 -52.5t20.5 -77q0 -47 -23 -85.5t-68.5 -61t-111.5 -22.5q-35 0 -66.5 7.5t-69.5 26.5q-5 3 -6.5 7t-2.5 12l-15 130v1q0 4 5 4.5t6 -3.5q10 -69 53 -120t118 -51q53 0 89.5 29t36.5 91q0 45 -20 77.5
t-48.5 54t-77.5 50.5q-48 28 -75.5 49t-47 52.5t-19.5 75.5q0 50 25.5 85t66.5 52.5t88 17.5q55 0 114 -24q15 -6 15 -17l9 -106q0 -4 -5.5 -4t-6.5 4q-4 52 -39 93t-100 41q-60 0 -88 -35t-28 -84q0 -40 19 -69zM136 779q-1 0 -1 0.5v0.5q0 2 2.5 4.5t4.5 1.5l109 -62
l108 62h1q3 0 5 -3t-1 -4l-102 -92q-4 -4 -11 -4q-8 0 -12 4z" />
    <glyph glyph-name="scaron" unicode="&#x161;" horiz-adv-x="338" 
d="M49 0zM119 264.5q23 -20.5 70 -43.5q34 -17 54 -30t34 -33.5t14 -49.5q0 -50 -37.5 -84.5t-102.5 -34.5q-53 0 -94 31q-6 4 -6 12l-2 72q0 3 5.5 3.5t6.5 -2.5q19 -50 48.5 -73.5t70.5 -23.5q34 0 52 15t18 44t-12.5 48.5t-31 31.5t-50.5 27q-33 16 -52.5 28.5t-33 33.5
t-13.5 52q0 53 40 82t94 29q37 0 71 -15q6 -3 7.5 -5t1.5 -6q0 -19 -1 -30l-1 -39q0 -2 -6 -2t-6 2q0 32 -33 53.5t-70 21.5q-27 0 -42.5 -14.5t-15.5 -42.5q0 -37 23 -57.5zM96.5 730q5.5 1 6.5 -1l69 -179l68 179q1 2 6 1t4 -4l-67 -249q-2 -5 -11 -5t-12 5l-68 249
q-1 3 4.5 4z" />
    <glyph glyph-name="uni0162" unicode="&#x162;" horiz-adv-x="632" 
d="M591 654q5 0 5 -4q-3 -28 -6 -85.5t-3 -93.5q0 -2 -6 -2t-6 2q0 53 -11 82t-37 42t-73 13q-52 0 -73 -3.5t-28.5 -16.5t-7.5 -46v-461q0 -31 7 -45t28 -19t66 -5q2 0 2 -6t-2 -6q-33 0 -51 1l-74 1q-15 -47 -15 -60q0 -15 9 -24t33 -22q25 -14 39.5 -32t14.5 -45
q0 -36 -25.5 -65t-73.5 -29q-26 0 -44 9.5t-18 26.5q0 12 8 19.5t20 7.5q10 0 15.5 -5t10.5 -15q8 -12 15 -18t22 -6q37 0 37 41q0 26 -18.5 46.5t-67.5 46.5q-8 4 -12 7t-4 7q0 5 6 17q11 29 35 93l-68 -1q-18 -1 -51 -1q-2 0 -2 6t2 6q45 0 66 5t28.5 19.5t7.5 44.5v463
q0 33 -8 45.5t-28.5 15.5t-74.5 3q-63 0 -92 -30t-39 -107q0 -2 -6 -2t-6 2q4 27 9 86.5t5 89.5q0 5 6 5t6 -5q0 -22 53 -22q86 -3 201 -3q59 0 125 2l68 1q36 0 53 5t22 20q1 4 6 4z" />
    <glyph glyph-name="uni0163" unicode="&#x163;" horiz-adv-x="339" 
d="M308 47q3 0 5 -4.5t-1 -6.5q-37 -26 -65 -37t-58 -11h-2q-13 -41 -13 -51q0 -11 6.5 -17t19 -13t19.5 -11q25 -14 39.5 -32t14.5 -45q0 -36 -25.5 -65t-73.5 -29q-26 0 -44 9.5t-18 26.5q0 12 8 19.5t20 7.5q10 0 15.5 -5t10.5 -15q8 -12 15 -18t22 -6q37 0 37 41
q0 26 -18.5 46.5t-67.5 46.5q-8 4 -12 7t-4 7q0 5 6 17q15 36 30 80q-35 2 -56.5 21t-21.5 58v238q0 27 -3.5 37.5t-13.5 14t-35 3.5q-3 0 -3 6t3 6q38 0 61.5 21t23.5 53q0 3 8 3q7 0 7 -3v-73q68 1 141 10q3 0 5 -6.5t2 -16.5q0 -8 -3 -16t-7 -7q-60 15 -138 15v-251
q0 -83 81 -83q46 0 81 27z" />
    <glyph glyph-name="Tcaron" unicode="&#x164;" horiz-adv-x="632" 
d="M37 0zM88 578q-29 -30 -39 -107q0 -2 -6 -2t-6 2q4 27 9 86.5t5 89.5q0 5 6 5t6 -5q0 -22 53 -22q86 -3 201 -3q59 0 125 2l68 1q36 0 53 5t22 20q1 4 6 4t5 -4q-3 -28 -6 -85.5t-3 -93.5q0 -2 -6 -2t-6 2q0 53 -11 82t-37 42t-73 13q-52 0 -73 -3.5t-28.5 -16.5
t-7.5 -46v-461q0 -31 7 -45t28 -19t66 -5q2 0 2 -6t-2 -6q-33 0 -52 1l-77 1l-73 -1q-20 -1 -55 -1q-2 0 -2 6t2 6q45 0 66 5t28.5 19.5t7.5 44.5v463q0 33 -8 45.5t-28.5 15.5t-74.5 3q-63 0 -92 -30zM201 779q-1 0 -1 0.5v0.5q0 2 2.5 4.5t4.5 1.5l109 -62l108 62h1
q3 0 5 -3t-1 -4l-102 -92q-4 -4 -11 -4q-8 0 -12 4z" />
    <glyph glyph-name="tcaron" unicode="&#x165;" horiz-adv-x="339" 
d="M41 0zM308 47q3 0 5 -4.5t-1 -6.5q-37 -26 -65 -37t-58 -11q-41 0 -67 18.5t-26 61.5v238q0 27 -3.5 37.5t-13.5 14t-35 3.5q-3 0 -3 6t3 6q38 0 61.5 21t23.5 53q0 3 8 3q7 0 7 -3v-73q68 1 141 10q3 0 5 -6.5t2 -16.5q0 -8 -3 -16t-7 -7q-60 15 -138 15v-251
q0 -83 81 -83q46 0 81 27zM203 708.5q11 -5.5 22 -14.5t11 -13l-25 -245q0 -2 -5.5 -1.5t-5.5 2.5l-8 272q0 5 11 -0.5z" />
    <glyph glyph-name="Tbar" unicode="&#x166;" horiz-adv-x="632" 
d="M591 654q5 0 5 -4q-3 -28 -6 -85.5t-3 -93.5q0 -2 -6 -2t-6 2q0 53 -11 82t-37 42t-73 13q-52 0 -73 -3.5t-28.5 -16.5t-7.5 -46v-210h102q2 0 3.5 -3t1.5 -6q0 -4 -1.5 -7t-3.5 -3h-102v-232q0 -31 7 -45t28 -19t66 -5q2 0 2 -6t-2 -6q-33 0 -52 1l-77 1l-73 -1
q-20 -1 -55 -1q-2 0 -2 6t2 6q45 0 66 5t28.5 19.5t7.5 44.5v232h-102q-1 0 -2.5 3t-1.5 7q0 3 1.5 6t2.5 3h102v212q0 33 -8 45.5t-28.5 15.5t-74.5 3q-63 0 -92 -30t-39 -107q0 -2 -6 -2t-6 2q4 27 9 86.5t5 89.5q0 5 6 5t6 -5q0 -22 53 -22q86 -3 201 -3q59 0 125 2l68 1
q36 0 53 5t22 20q1 4 6 4z" />
    <glyph glyph-name="tbar" unicode="&#x167;" horiz-adv-x="339" 
d="M308 47q3 0 5 -4.5t-1 -6.5q-37 -26 -65 -37t-58 -11q-41 0 -67 18.5t-26 61.5v140h-45q-1 0 -2.5 3t-1.5 7q0 3 1.5 6t2.5 3h45v79q0 27 -3.5 37.5t-13.5 14t-35 3.5q-3 0 -3 6t3 6q38 0 61.5 21t23.5 53q0 3 8 3q7 0 7 -3v-73q68 1 141 10q3 0 5 -6.5t2 -16.5
q0 -8 -3 -16t-7 -7q-60 15 -138 15v-126h136q4 0 4 -9q0 -10 -4 -10h-136v-106q0 -83 81 -83q46 0 81 27z" />
    <glyph glyph-name="Utilde" unicode="&#x168;" horiz-adv-x="697" 
d="M26 0zM551.5 590.5q-20.5 22.5 -64.5 22.5q-3 0 -3 6t3 6l42 -1q34 -2 55 -2q18 0 48 2l41 1q2 0 2 -6t-2 -6q-41 0 -60 -22.5t-19 -70.5v-286q0 -117 -63 -182t-170 -65q-74 0 -129 29.5t-85 83.5t-30 125v319q0 30 -6.5 44t-25 19.5t-57.5 5.5q-2 0 -2 6t2 6l48 -1
q42 -2 67 -2q27 0 69 2l46 1q3 0 3 -6t-3 -6q-39 0 -57 -6t-24.5 -20.5t-6.5 -44.5v-282q0 -117 55 -180.5t154 -63.5q91 0 142 57.5t51 159.5v287q0 48 -20.5 70.5zM478.5 768q10.5 7 21.5 20h1q3 0 5.5 -2.5t0.5 -4.5q-26 -34 -43 -46t-35 -12q-15 0 -31 3.5t-32 8.5
t-34 9t-35 4q-16 0 -24.5 -5.5t-15 -12l-9.5 -9.5h-2q-3 0 -5 2.5t0 4.5q16 22 38.5 39.5t45.5 17.5q14 0 31.5 -4.5t20.5 -5.5q44 -14 74 -14q17 0 27.5 7z" />
    <glyph glyph-name="utilde" unicode="&#x169;" horiz-adv-x="490" 
d="M2 0zM484 55q4 0 5.5 -4.5t-2.5 -6.5l-112 -52l-4 -1q-9 0 -18.5 22.5t-9.5 57.5v9q-41 -46 -81 -66.5t-82 -20.5q-49 0 -76.5 31t-27.5 91v155q0 41 -6.5 58.5t-22.5 17.5q-15 0 -36 -10h-2q-4 0 -5.5 5t2.5 6l105 47l4 1q2 0 5 -2t3 -5v-243q0 -60 21 -89t63 -29
q35 0 71 18.5t65 51.5v173q0 41 -6.5 58.5t-23.5 17.5q-15 0 -36 -10h-2q-4 0 -5 5t3 6l105 47l3 1q3 0 5.5 -2t2.5 -5v-283q0 -34 8.5 -49.5t28.5 -15.5q10 0 24.5 4.5t31.5 10.5h2zM337.5 529q10.5 7 21.5 20h1q3 0 5.5 -2.5t0.5 -4.5q-26 -34 -43 -46t-35 -12
q-15 0 -31 3.5t-32 8.5t-34 9t-35 4q-16 0 -24.5 -5.5t-15 -12l-9.5 -9.5h-2q-3 0 -5 2.5t0 4.5q16 22 38.5 39.5t45.5 17.5q14 0 31.5 -4.5t20.5 -5.5q44 -14 74 -14q17 0 27.5 7z" />
    <glyph glyph-name="Umacron" unicode="&#x16a;" horiz-adv-x="697" 
d="M26 0zM551.5 590.5q-20.5 22.5 -64.5 22.5q-3 0 -3 6t3 6l42 -1q34 -2 55 -2q18 0 48 2l41 1q2 0 2 -6t-2 -6q-41 0 -60 -22.5t-19 -70.5v-286q0 -117 -63 -182t-170 -65q-74 0 -129 29.5t-85 83.5t-30 125v319q0 30 -6.5 44t-25 19.5t-57.5 5.5q-2 0 -2 6t2 6l48 -1
q42 -2 67 -2q27 0 69 2l46 1q3 0 3 -6t-3 -6q-39 0 -57 -6t-24.5 -20.5t-6.5 -44.5v-282q0 -117 55 -180.5t154 -63.5q91 0 142 57.5t51 159.5v287q0 48 -20.5 70.5zM244.5 728q-1.5 4 -1.5 9q0 13 5 13h251q5 0 5 -13t-5 -13h-251q-2 0 -3.5 4z" />
    <glyph glyph-name="umacron" unicode="&#x16b;" horiz-adv-x="490" 
d="M2 0zM484 55q4 0 5.5 -4.5t-2.5 -6.5l-112 -52l-4 -1q-9 0 -18.5 22.5t-9.5 57.5v9q-41 -46 -81 -66.5t-82 -20.5q-49 0 -76.5 31t-27.5 91v155q0 41 -6.5 58.5t-22.5 17.5q-15 0 -36 -10h-2q-4 0 -5.5 5t2.5 6l105 47l4 1q2 0 5 -2t3 -5v-243q0 -60 21 -89t63 -29
q35 0 71 18.5t65 51.5v173q0 41 -6.5 58.5t-23.5 17.5q-15 0 -36 -10h-2q-4 0 -5 5t3 6l105 47l3 1q3 0 5.5 -2t2.5 -5v-283q0 -34 8.5 -49.5t28.5 -15.5q10 0 24.5 4.5t31.5 10.5h2zM103.5 489q-1.5 4 -1.5 9q0 13 5 13h251q5 0 5 -13t-5 -13h-251q-2 0 -3.5 4z" />
    <glyph glyph-name="Ubreve" unicode="&#x16c;" horiz-adv-x="697" 
d="M26 0zM551.5 590.5q-20.5 22.5 -64.5 22.5q-3 0 -3 6t3 6l42 -1q34 -2 55 -2q18 0 48 2l41 1q2 0 2 -6t-2 -6q-41 0 -60 -22.5t-19 -70.5v-286q0 -117 -63 -182t-170 -65q-74 0 -129 29.5t-85 83.5t-30 125v319q0 30 -6.5 44t-25 19.5t-57.5 5.5q-2 0 -2 6t2 6l48 -1
q42 -2 67 -2q27 0 69 2l46 1q3 0 3 -6t-3 -6q-39 0 -57 -6t-24.5 -20.5t-6.5 -44.5v-282q0 -117 55 -180.5t154 -63.5q91 0 142 57.5t51 159.5v287q0 48 -20.5 70.5zM306.5 716.5q-26.5 26.5 -35.5 75.5q-1 4 4 4.5t7 -1.5q8 -30 35 -50.5t57 -20.5t56.5 21t34.5 50q0 2 4 2
q3 0 5.5 -1.5t1.5 -3.5q-9 -49 -35 -75.5t-67 -26.5t-67.5 26.5z" />
    <glyph glyph-name="ubreve" unicode="&#x16d;" horiz-adv-x="490" 
d="M2 0zM484 55q4 0 5.5 -4.5t-2.5 -6.5l-112 -52l-4 -1q-9 0 -18.5 22.5t-9.5 57.5v9q-41 -46 -81 -66.5t-82 -20.5q-49 0 -76.5 31t-27.5 91v155q0 41 -6.5 58.5t-22.5 17.5q-15 0 -36 -10h-2q-4 0 -5.5 5t2.5 6l105 47l4 1q2 0 5 -2t3 -5v-243q0 -60 21 -89t63 -29
q35 0 71 18.5t65 51.5v173q0 41 -6.5 58.5t-23.5 17.5q-15 0 -36 -10h-2q-4 0 -5 5t3 6l105 47l3 1q3 0 5.5 -2t2.5 -5v-283q0 -34 8.5 -49.5t28.5 -15.5q10 0 24.5 4.5t31.5 10.5h2zM135.5 628q5.5 1 5.5 -2q0 -47 26 -78t66 -31q38 0 64.5 31.5t26.5 77.5q0 2 3 2
t5.5 -1.5t2.5 -3.5q0 -73 -26 -110.5t-76 -37.5t-76.5 37.5t-26.5 110.5q0 4 5.5 5z" />
    <glyph glyph-name="Uring" unicode="&#x16e;" horiz-adv-x="697" 
d="M26 0zM551.5 590.5q-20.5 22.5 -64.5 22.5q-3 0 -3 6t3 6l42 -1q34 -2 55 -2q18 0 48 2l41 1q2 0 2 -6t-2 -6q-41 0 -60 -22.5t-19 -70.5v-286q0 -117 -63 -182t-170 -65q-74 0 -129 29.5t-85 83.5t-30 125v319q0 30 -6.5 44t-25 19.5t-57.5 5.5q-2 0 -2 6t2 6l48 -1
q42 -2 67 -2q27 0 69 2l46 1q3 0 3 -6t-3 -6q-39 0 -57 -6t-24.5 -20.5t-6.5 -44.5v-282q0 -117 55 -180.5t154 -63.5q91 0 142 57.5t51 159.5v287q0 48 -20.5 70.5zM305 730.5q-23 23.5 -23 55.5q0 36 29 57t64 21q34 0 58.5 -23.5t24.5 -56.5q0 -35 -28.5 -56t-64.5 -21
q-37 0 -60 23.5zM410 728q9 12 9 38q0 36 -18.5 62t-45.5 26q-19 0 -27 -11.5t-8 -36.5q0 -34 16.5 -62t44.5 -28q20 0 29 12z" />
    <glyph glyph-name="uring" unicode="&#x16f;" horiz-adv-x="490" 
d="M2 0zM484 55q4 0 5.5 -4.5t-2.5 -6.5l-112 -52l-4 -1q-9 0 -18.5 22.5t-9.5 57.5v9q-41 -46 -81 -66.5t-82 -20.5q-49 0 -76.5 31t-27.5 91v155q0 41 -6.5 58.5t-22.5 17.5q-15 0 -36 -10h-2q-4 0 -5.5 5t2.5 6l105 47l4 1q2 0 5 -2t3 -5v-243q0 -60 21 -89t63 -29
q35 0 71 18.5t65 51.5v173q0 41 -6.5 58.5t-23.5 17.5q-15 0 -36 -10h-2q-4 0 -5 5t3 6l105 47l3 1q3 0 5.5 -2t2.5 -5v-283q0 -34 8.5 -49.5t28.5 -15.5q10 0 24.5 4.5t31.5 10.5h2zM164 491.5q-23 23.5 -23 55.5q0 36 29 57t64 21q34 0 58.5 -23.5t24.5 -56.5
q0 -35 -28.5 -56t-64.5 -21q-37 0 -60 23.5zM269 489q9 12 9 38q0 36 -18.5 62t-45.5 26q-19 0 -27 -11.5t-8 -36.5q0 -34 16.5 -62t44.5 -28q20 0 29 12z" />
    <glyph glyph-name="Uhungarumlaut" unicode="&#x170;" horiz-adv-x="697" 
d="M26 0zM551.5 590.5q-20.5 22.5 -64.5 22.5q-3 0 -3 6t3 6l42 -1q34 -2 55 -2q18 0 48 2l41 1q2 0 2 -6t-2 -6q-41 0 -60 -22.5t-19 -70.5v-286q0 -117 -63 -182t-170 -65q-74 0 -129 29.5t-85 83.5t-30 125v319q0 30 -6.5 44t-25 19.5t-57.5 5.5q-2 0 -2 6t2 6l48 -1
q42 -2 67 -2q27 0 69 2l46 1q3 0 3 -6t-3 -6q-39 0 -57 -6t-24.5 -20.5t-6.5 -44.5v-282q0 -117 55 -180.5t154 -63.5q91 0 142 57.5t51 159.5v287q0 48 -20.5 70.5zM269 678q-3 0 -4 4.5t1 6.5q41 37 90 87q3 3 20.5 -1t31 -10t6.5 -9q-67 -28 -143 -77zM386 678
q-3 0 -4 4.5t1 6.5q41 37 90 87q3 3 19.5 -1t29 -10t6.5 -9q-37 -15 -68.5 -33t-71.5 -44z" />
    <glyph glyph-name="uhungarumlaut" unicode="&#x171;" horiz-adv-x="490" 
d="M2 0zM484 55q4 0 5.5 -4.5t-2.5 -6.5l-112 -52l-4 -1q-9 0 -18.5 22.5t-9.5 57.5v9q-41 -46 -81 -66.5t-82 -20.5q-49 0 -76.5 31t-27.5 91v155q0 41 -6.5 58.5t-22.5 17.5q-15 0 -36 -10h-2q-4 0 -5.5 5t2.5 6l105 47l4 1q2 0 5 -2t3 -5v-243q0 -60 21 -89t63 -29
q35 0 71 18.5t65 51.5v173q0 41 -6.5 58.5t-23.5 17.5q-15 0 -36 -10h-2q-4 0 -5 5t3 6l105 47l3 1q3 0 5.5 -2t2.5 -5v-283q0 -34 8.5 -49.5t28.5 -15.5q10 0 24.5 4.5t31.5 10.5h2zM141 463q-3 0 -4.5 4.5t1.5 6.5q18 16 50 54q30 35 40 44q4 2 23.5 -2t35 -10t8.5 -8
q-63 -25 -152 -89h-2zM258 463q-3 0 -4.5 4.5t1.5 6.5q18 16 50 54q30 35 40 44q4 2 23.5 -2t35 -10t8.5 -8q-63 -25 -152 -89h-2z" />
    <glyph glyph-name="Uogonek" unicode="&#x172;" horiz-adv-x="697" 
d="M675 619q0 -6 -2 -6q-41 0 -60 -22.5t-19 -70.5v-286q0 -97 -44 -159t-122 -80q-39 -36 -57 -71t-18 -74q0 -46 23.5 -72t68.5 -26q23 0 39 6.5t32 19.5h2q3 0 5.5 -3t-0.5 -5q-51 -45 -107 -45q-54 0 -82.5 25.5t-28.5 70.5q0 83 100 169q-21 -3 -44 -3q-74 0 -129 29.5
t-85 83.5t-30 125v319q0 30 -6.5 44t-25 19.5t-57.5 5.5q-2 0 -2 6t2 6l48 -1q42 -2 67 -2q27 0 69 2l46 1q3 0 3 -6t-3 -6q-39 0 -57 -6t-24.5 -20.5t-6.5 -44.5v-282q0 -117 55 -180.5t154 -63.5q91 0 142 57.5t51 159.5v287q0 48 -20.5 70.5t-64.5 22.5q-3 0 -3 6t3 6
l42 -1q34 -2 55 -2q18 0 48 2l41 1q2 0 2 -6z" />
    <glyph glyph-name="uogonek" unicode="&#x173;" horiz-adv-x="490" 
d="M489.5 50.5q1.5 -4.5 -2.5 -6.5l-61 -28q-64 -38 -94.5 -78.5t-30.5 -87.5q0 -46 23.5 -72t68.5 -26q24 0 39.5 6.5t31.5 19.5h2q3 0 5.5 -3t-0.5 -5q-51 -45 -107 -45q-54 0 -82.5 25.5t-28.5 70.5t29 89.5t83 83.5q-9 7 -15.5 27t-6.5 50v9q-41 -46 -81 -66.5
t-82 -20.5q-49 0 -76.5 31t-27.5 91v155q0 41 -6.5 58.5t-22.5 17.5q-15 0 -36 -10h-2q-4 0 -5.5 5t2.5 6l105 47l4 1q2 0 5 -2t3 -5v-243q0 -60 21 -89t63 -29q35 0 71 18.5t65 51.5v173q0 41 -6.5 58.5t-23.5 17.5q-15 0 -36 -10h-2q-4 0 -5 5t3 6l105 47l3 1q3 0 5.5 -2
t2.5 -5v-283q0 -34 8.5 -49.5t28.5 -15.5q9 0 26 5l30 13l1 -3q5 0 6.5 -4.5z" />
    </font>
</defs>
</svg>
